M48
; DRILL file {KiCad 9.0.6} date 2025-12-27T16:01:00+0000
; FORMAT={-:-/ absolute / metric / decimal}
; #@! TF.CreationDate,2025-12-27T16:01:00+00:00
; #@! TF.GenerationSoftware,Kicad,Pcbnew,9.0.6
; #@! TF.FileFunction,Plated,1,4,PTH
FMAT,2
METRIC
; #@! TA.AperFunction,Plated,PTH,ViaDrill
T1C0.300
%
G90
G05
T1
X143.925Y-78.975
X144.47Y-88.22
X145.225Y-78.975
X146.5Y-78.975
X146.79Y-89.32
X147.0Y-76.0
X147.0Y-77.96
X147.7Y-81.75
X147.95Y-83.4
X149.575Y-87.4
X149.63Y-79.36
X149.7Y-89.05
X149.74Y-77.14
X151.15Y-88.075
X151.45Y-81.85
X151.65Y-79.0
X152.5Y-81.0
X153.158Y-83.442
X153.7Y-79.35
X153.73Y-88.06
X154.8Y-81.0
X155.4Y-78.45
X155.517Y-75.475
X155.525Y-76.95
X155.575Y-83.025
X156.8Y-86.05
X156.8Y-88.15
X157.2Y-78.75
X158.5Y-80.0
X158.85Y-86.1
X158.85Y-88.15
X159.2Y-76.9
X160.5Y-77.95
X166.05Y-74.85
X167.925Y-81.85
X167.925Y-82.85
X167.925Y-83.85
X167.925Y-84.85
X167.925Y-85.85
M30
