%TF.GenerationSoftware,KiCad,Pcbnew,9.0.6*%
%TF.CreationDate,2025-12-27T16:00:58+00:00*%
%TF.ProjectId,AZUltra,415a556c-7472-4612-9e6b-696361645f70,rev?*%
%TF.SameCoordinates,Original*%
%TF.FileFunction,Copper,L3,Inr*%
%TF.FilePolarity,Positive*%
%FSLAX46Y46*%
G04 Gerber Fmt 4.6, Leading zero omitted, Abs format (unit mm)*
G04 Created by KiCad (PCBNEW 9.0.6) date 2025-12-27 16:00:58*
%MOMM*%
%LPD*%
G01*
G04 APERTURE LIST*
%TA.AperFunction,ViaPad*%
%ADD10C,0.600000*%
%TD*%
%TA.AperFunction,Conductor*%
%ADD11C,0.200000*%
%TD*%
G04 APERTURE END LIST*
D10*
%TO.N,+BATT1*%
X167925000Y-84850000D03*
X167925000Y-83850000D03*
X167925000Y-82850000D03*
X154800000Y-81000000D03*
X167925000Y-85850000D03*
X167925000Y-81850000D03*
%TO.N,GND*%
X160500000Y-77950000D03*
X155525000Y-76950000D03*
X146500000Y-78975000D03*
X158500000Y-80000000D03*
X146790000Y-89320000D03*
X149630000Y-79360000D03*
X149575000Y-87400000D03*
X144470000Y-88220000D03*
X156800000Y-88150000D03*
X155400000Y-78450000D03*
X156800000Y-86050000D03*
X151150000Y-88075000D03*
X149700000Y-89050000D03*
X158850000Y-86100000D03*
X145225000Y-78975000D03*
X159200000Y-76900000D03*
X157200000Y-78750000D03*
X147700000Y-81750000D03*
X153700000Y-79350000D03*
X158850000Y-88150000D03*
X143925000Y-78975000D03*
X147000000Y-76000000D03*
X155575000Y-83025000D03*
X147950000Y-83400000D03*
X151650000Y-79000000D03*
X155517203Y-75474635D03*
X149740000Y-77140000D03*
X153157538Y-83442462D03*
%TO.N,+5V*%
X166050000Y-74850000D03*
X153730000Y-88060000D03*
X151450000Y-81850000D03*
%TO.N,Net-(U2-PD0)*%
X152500000Y-81000000D03*
X147000000Y-77960000D03*
%TD*%
D11*
%TO.N,+BATT1*%
X166795000Y-80720000D02*
X155080000Y-80720000D01*
X154800000Y-80860000D02*
X154800000Y-81000000D01*
X167925000Y-81850000D02*
X166795000Y-80720000D01*
X155080000Y-80720000D02*
X154800000Y-81000000D01*
%TO.N,+5V*%
X166050000Y-74850000D02*
X165600000Y-75300000D01*
X163950000Y-76575000D02*
X161025057Y-76575000D01*
X151450000Y-85780000D02*
X153730000Y-88060000D01*
X157149943Y-77550000D02*
X152849943Y-81850000D01*
X165600000Y-75300000D02*
X165225000Y-75300000D01*
X151450000Y-85330000D02*
X151450000Y-81850000D01*
X165225000Y-75300000D02*
X163950000Y-76575000D01*
X161025057Y-76575000D02*
X160050057Y-77550000D01*
X152849943Y-81850000D02*
X151450000Y-81850000D01*
X151450000Y-85330000D02*
X151450000Y-85780000D01*
X160050057Y-77550000D02*
X157149943Y-77550000D01*
%TO.N,Net-(U2-PD0)*%
X147000000Y-77960000D02*
X149460000Y-77960000D01*
X149460000Y-77960000D02*
X152500000Y-81000000D01*
%TD*%
%TA.AperFunction,Conductor*%
%TO.N,GND*%
G36*
X168490898Y-73454111D02*
G01*
X168551232Y-73454109D01*
X168562310Y-73454730D01*
X168656857Y-73465382D01*
X168678467Y-73470314D01*
X168762990Y-73499889D01*
X168782962Y-73509507D01*
X168858778Y-73557144D01*
X168876111Y-73570966D01*
X168939428Y-73634282D01*
X168953250Y-73651615D01*
X169000890Y-73727433D01*
X169010510Y-73747408D01*
X169040083Y-73831927D01*
X169045016Y-73853539D01*
X169055657Y-73947984D01*
X169056279Y-73959068D01*
X169056279Y-74027469D01*
X169056280Y-74027482D01*
X169056280Y-93948047D01*
X169055657Y-93959133D01*
X169045005Y-94053663D01*
X169040072Y-94075276D01*
X169010496Y-94159794D01*
X169000877Y-94179767D01*
X168953239Y-94255580D01*
X168939418Y-94272912D01*
X168907760Y-94304570D01*
X168876099Y-94336230D01*
X168858774Y-94350045D01*
X168782955Y-94397685D01*
X168762981Y-94407303D01*
X168678466Y-94436874D01*
X168656853Y-94441807D01*
X168562058Y-94452486D01*
X168550974Y-94453108D01*
X168497565Y-94453107D01*
X168490898Y-94453107D01*
X168490897Y-94453107D01*
X168484015Y-94453107D01*
X168483987Y-94453109D01*
X143562347Y-94453109D01*
X143551261Y-94452486D01*
X143456726Y-94441833D01*
X143435115Y-94436900D01*
X143390235Y-94421195D01*
X143350592Y-94407323D01*
X143330621Y-94397704D01*
X143254803Y-94350064D01*
X143237469Y-94336241D01*
X143174154Y-94272924D01*
X143160333Y-94255593D01*
X143112691Y-94179771D01*
X143103073Y-94159798D01*
X143073499Y-94075282D01*
X143068566Y-94053669D01*
X143057903Y-93959034D01*
X143057280Y-93947949D01*
X143057280Y-77894108D01*
X146499500Y-77894108D01*
X146499500Y-78025892D01*
X146529579Y-78138151D01*
X146533609Y-78153190D01*
X146599496Y-78267309D01*
X146599498Y-78267311D01*
X146599500Y-78267314D01*
X146692686Y-78360500D01*
X146692688Y-78360501D01*
X146692690Y-78360503D01*
X146806810Y-78426390D01*
X146806808Y-78426390D01*
X146806812Y-78426391D01*
X146806814Y-78426392D01*
X146934108Y-78460500D01*
X146934110Y-78460500D01*
X147065890Y-78460500D01*
X147065892Y-78460500D01*
X147193186Y-78426392D01*
X147193188Y-78426390D01*
X147193190Y-78426390D01*
X147307309Y-78360503D01*
X147307309Y-78360502D01*
X147307314Y-78360500D01*
X147378319Y-78289494D01*
X147432834Y-78261719D01*
X147448321Y-78260500D01*
X149294521Y-78260500D01*
X149352712Y-78279407D01*
X149364525Y-78289496D01*
X151970504Y-80895475D01*
X151998281Y-80949992D01*
X151999500Y-80965479D01*
X151999500Y-81065892D01*
X152017547Y-81133245D01*
X152033609Y-81193190D01*
X152099496Y-81307309D01*
X152099498Y-81307311D01*
X152099500Y-81307314D01*
X152172684Y-81380498D01*
X152200460Y-81435013D01*
X152190889Y-81495445D01*
X152147624Y-81538710D01*
X152102679Y-81549500D01*
X151898321Y-81549500D01*
X151840130Y-81530593D01*
X151828323Y-81520509D01*
X151757314Y-81449500D01*
X151757311Y-81449498D01*
X151757309Y-81449496D01*
X151643189Y-81383609D01*
X151643191Y-81383609D01*
X151593799Y-81370375D01*
X151515892Y-81349500D01*
X151384108Y-81349500D01*
X151306200Y-81370375D01*
X151256809Y-81383609D01*
X151142690Y-81449496D01*
X151049496Y-81542690D01*
X150983609Y-81656809D01*
X150983608Y-81656814D01*
X150949500Y-81784108D01*
X150949500Y-81915892D01*
X150979579Y-82028151D01*
X150983609Y-82043190D01*
X151049496Y-82157309D01*
X151049498Y-82157311D01*
X151049500Y-82157314D01*
X151120505Y-82228319D01*
X151148281Y-82282834D01*
X151149500Y-82298321D01*
X151149500Y-85819564D01*
X151169978Y-85895987D01*
X151181468Y-85915890D01*
X151181470Y-85915892D01*
X151209540Y-85964511D01*
X153200505Y-87955476D01*
X153228281Y-88009991D01*
X153229500Y-88025478D01*
X153229500Y-88125892D01*
X153259579Y-88238151D01*
X153263609Y-88253190D01*
X153329496Y-88367309D01*
X153329498Y-88367311D01*
X153329500Y-88367314D01*
X153422686Y-88460500D01*
X153422688Y-88460501D01*
X153422690Y-88460503D01*
X153536810Y-88526390D01*
X153536808Y-88526390D01*
X153536812Y-88526391D01*
X153536814Y-88526392D01*
X153664108Y-88560500D01*
X153664110Y-88560500D01*
X153795890Y-88560500D01*
X153795892Y-88560500D01*
X153923186Y-88526392D01*
X153923188Y-88526390D01*
X153923190Y-88526390D01*
X154037309Y-88460503D01*
X154037309Y-88460502D01*
X154037314Y-88460500D01*
X154130500Y-88367314D01*
X154196392Y-88253186D01*
X154230500Y-88125892D01*
X154230500Y-87994108D01*
X154196392Y-87866814D01*
X154196390Y-87866811D01*
X154196390Y-87866809D01*
X154130503Y-87752690D01*
X154130501Y-87752688D01*
X154130500Y-87752686D01*
X154037314Y-87659500D01*
X154037311Y-87659498D01*
X154037309Y-87659496D01*
X153923189Y-87593609D01*
X153923191Y-87593609D01*
X153873799Y-87580375D01*
X153795892Y-87559500D01*
X153695479Y-87559500D01*
X153637288Y-87540593D01*
X153625475Y-87530504D01*
X151779496Y-85684525D01*
X151751719Y-85630008D01*
X151750500Y-85614521D01*
X151750500Y-82298321D01*
X151752968Y-82290723D01*
X151751719Y-82282834D01*
X151762243Y-82262178D01*
X151769407Y-82240130D01*
X151779490Y-82228323D01*
X151828319Y-82179494D01*
X151882834Y-82151719D01*
X151898321Y-82150500D01*
X152889506Y-82150500D01*
X152889506Y-82150499D01*
X152965932Y-82130021D01*
X153034454Y-82090460D01*
X153090403Y-82034511D01*
X154130496Y-80994416D01*
X154185013Y-80966640D01*
X154245445Y-80976211D01*
X154288710Y-81019476D01*
X154298319Y-81059501D01*
X154298653Y-81059458D01*
X154299071Y-81062635D01*
X154299500Y-81064421D01*
X154299500Y-81065892D01*
X154317547Y-81133245D01*
X154333609Y-81193190D01*
X154399496Y-81307309D01*
X154399498Y-81307311D01*
X154399500Y-81307314D01*
X154492686Y-81400500D01*
X154492688Y-81400501D01*
X154492690Y-81400503D01*
X154606810Y-81466390D01*
X154606808Y-81466390D01*
X154606812Y-81466391D01*
X154606814Y-81466392D01*
X154734108Y-81500500D01*
X154734110Y-81500500D01*
X154865890Y-81500500D01*
X154865892Y-81500500D01*
X154993186Y-81466392D01*
X154993188Y-81466390D01*
X154993190Y-81466390D01*
X155107309Y-81400503D01*
X155107309Y-81400502D01*
X155107314Y-81400500D01*
X155200500Y-81307314D01*
X155266392Y-81193186D01*
X155293001Y-81093875D01*
X155326325Y-81042563D01*
X155383447Y-81020636D01*
X155388628Y-81020500D01*
X166629521Y-81020500D01*
X166687712Y-81039407D01*
X166699525Y-81049496D01*
X167395504Y-81745475D01*
X167423281Y-81799992D01*
X167424500Y-81815479D01*
X167424500Y-81915892D01*
X167454579Y-82028151D01*
X167458609Y-82043190D01*
X167524496Y-82157309D01*
X167524498Y-82157311D01*
X167524500Y-82157314D01*
X167617686Y-82250500D01*
X167617688Y-82250501D01*
X167641525Y-82264264D01*
X167682465Y-82309734D01*
X167688860Y-82370584D01*
X167658267Y-82423572D01*
X167641525Y-82435736D01*
X167617688Y-82449498D01*
X167524496Y-82542690D01*
X167458609Y-82656809D01*
X167458608Y-82656814D01*
X167424500Y-82784108D01*
X167424500Y-82915892D01*
X167454579Y-83028151D01*
X167458609Y-83043190D01*
X167524496Y-83157309D01*
X167524498Y-83157311D01*
X167524500Y-83157314D01*
X167617686Y-83250500D01*
X167617688Y-83250501D01*
X167641525Y-83264264D01*
X167682465Y-83309734D01*
X167688860Y-83370584D01*
X167658267Y-83423572D01*
X167641525Y-83435736D01*
X167617688Y-83449498D01*
X167524496Y-83542690D01*
X167458609Y-83656809D01*
X167458608Y-83656814D01*
X167424500Y-83784108D01*
X167424500Y-83915892D01*
X167454579Y-84028151D01*
X167458609Y-84043190D01*
X167524496Y-84157309D01*
X167524498Y-84157311D01*
X167524500Y-84157314D01*
X167617686Y-84250500D01*
X167617688Y-84250501D01*
X167641525Y-84264264D01*
X167682465Y-84309734D01*
X167688860Y-84370584D01*
X167658267Y-84423572D01*
X167641525Y-84435736D01*
X167617688Y-84449498D01*
X167524496Y-84542690D01*
X167458609Y-84656809D01*
X167458608Y-84656814D01*
X167424500Y-84784108D01*
X167424500Y-84915892D01*
X167454579Y-85028151D01*
X167458609Y-85043190D01*
X167524496Y-85157309D01*
X167524498Y-85157311D01*
X167524500Y-85157314D01*
X167617686Y-85250500D01*
X167617688Y-85250501D01*
X167641525Y-85264264D01*
X167682465Y-85309734D01*
X167688860Y-85370584D01*
X167658267Y-85423572D01*
X167641525Y-85435736D01*
X167617688Y-85449498D01*
X167524496Y-85542690D01*
X167458609Y-85656809D01*
X167458608Y-85656814D01*
X167424500Y-85784108D01*
X167424500Y-85915892D01*
X167454579Y-86028151D01*
X167458609Y-86043190D01*
X167524496Y-86157309D01*
X167524498Y-86157311D01*
X167524500Y-86157314D01*
X167617686Y-86250500D01*
X167617688Y-86250501D01*
X167617690Y-86250503D01*
X167731810Y-86316390D01*
X167731808Y-86316390D01*
X167731812Y-86316391D01*
X167731814Y-86316392D01*
X167859108Y-86350500D01*
X167859110Y-86350500D01*
X167990890Y-86350500D01*
X167990892Y-86350500D01*
X168118186Y-86316392D01*
X168118188Y-86316390D01*
X168118190Y-86316390D01*
X168232309Y-86250503D01*
X168232309Y-86250502D01*
X168232314Y-86250500D01*
X168325500Y-86157314D01*
X168391392Y-86043186D01*
X168425500Y-85915892D01*
X168425500Y-85784108D01*
X168391392Y-85656814D01*
X168391390Y-85656811D01*
X168391390Y-85656809D01*
X168325503Y-85542690D01*
X168325501Y-85542688D01*
X168325500Y-85542686D01*
X168232314Y-85449500D01*
X168208474Y-85435735D01*
X168167534Y-85390267D01*
X168161138Y-85329417D01*
X168191731Y-85276429D01*
X168208474Y-85264264D01*
X168232314Y-85250500D01*
X168325500Y-85157314D01*
X168391392Y-85043186D01*
X168425500Y-84915892D01*
X168425500Y-84784108D01*
X168391392Y-84656814D01*
X168391390Y-84656811D01*
X168391390Y-84656809D01*
X168325503Y-84542690D01*
X168325501Y-84542688D01*
X168325500Y-84542686D01*
X168232314Y-84449500D01*
X168208474Y-84435735D01*
X168167534Y-84390267D01*
X168161138Y-84329417D01*
X168191731Y-84276429D01*
X168208474Y-84264264D01*
X168232314Y-84250500D01*
X168325500Y-84157314D01*
X168391392Y-84043186D01*
X168425500Y-83915892D01*
X168425500Y-83784108D01*
X168391392Y-83656814D01*
X168391390Y-83656811D01*
X168391390Y-83656809D01*
X168325503Y-83542690D01*
X168325501Y-83542688D01*
X168325500Y-83542686D01*
X168232314Y-83449500D01*
X168208474Y-83435735D01*
X168167534Y-83390267D01*
X168161138Y-83329417D01*
X168191731Y-83276429D01*
X168208474Y-83264264D01*
X168232314Y-83250500D01*
X168325500Y-83157314D01*
X168391392Y-83043186D01*
X168425500Y-82915892D01*
X168425500Y-82784108D01*
X168391392Y-82656814D01*
X168391390Y-82656811D01*
X168391390Y-82656809D01*
X168325503Y-82542690D01*
X168325501Y-82542688D01*
X168325500Y-82542686D01*
X168232314Y-82449500D01*
X168208474Y-82435735D01*
X168167534Y-82390267D01*
X168161138Y-82329417D01*
X168191731Y-82276429D01*
X168208474Y-82264264D01*
X168232314Y-82250500D01*
X168325500Y-82157314D01*
X168341259Y-82130019D01*
X168391390Y-82043190D01*
X168391390Y-82043188D01*
X168391392Y-82043186D01*
X168425500Y-81915892D01*
X168425500Y-81784108D01*
X168391392Y-81656814D01*
X168391390Y-81656811D01*
X168391390Y-81656809D01*
X168325503Y-81542690D01*
X168325501Y-81542688D01*
X168325500Y-81542686D01*
X168232314Y-81449500D01*
X168232311Y-81449498D01*
X168232309Y-81449496D01*
X168118189Y-81383609D01*
X168118191Y-81383609D01*
X168068799Y-81370375D01*
X167990892Y-81349500D01*
X167890479Y-81349500D01*
X167832288Y-81330593D01*
X167820475Y-81320504D01*
X167426478Y-80926507D01*
X166979511Y-80479540D01*
X166979508Y-80479538D01*
X166910992Y-80439980D01*
X166910988Y-80439978D01*
X166834564Y-80419500D01*
X166834562Y-80419500D01*
X155040438Y-80419500D01*
X155040435Y-80419500D01*
X154964011Y-80439978D01*
X154964007Y-80439980D01*
X154954944Y-80445213D01*
X154895096Y-80457935D01*
X154839200Y-80433048D01*
X154808607Y-80380060D01*
X154815003Y-80319210D01*
X154835440Y-80289473D01*
X157245418Y-77879496D01*
X157299935Y-77851719D01*
X157315422Y-77850500D01*
X160089620Y-77850500D01*
X160089620Y-77850499D01*
X160166046Y-77830021D01*
X160234568Y-77790460D01*
X160290517Y-77734511D01*
X161120532Y-76904496D01*
X161175049Y-76876719D01*
X161190536Y-76875500D01*
X163989563Y-76875500D01*
X163989563Y-76875499D01*
X164065989Y-76855021D01*
X164134511Y-76815460D01*
X164190460Y-76759511D01*
X165320475Y-75629496D01*
X165374992Y-75601719D01*
X165390479Y-75600500D01*
X165639563Y-75600500D01*
X165639563Y-75600499D01*
X165715989Y-75580021D01*
X165784511Y-75540460D01*
X165840460Y-75484511D01*
X165945473Y-75379496D01*
X165999990Y-75351719D01*
X166015477Y-75350500D01*
X166115890Y-75350500D01*
X166115892Y-75350500D01*
X166243186Y-75316392D01*
X166243188Y-75316390D01*
X166243190Y-75316390D01*
X166357309Y-75250503D01*
X166357309Y-75250502D01*
X166357314Y-75250500D01*
X166450500Y-75157314D01*
X166516392Y-75043186D01*
X166550500Y-74915892D01*
X166550500Y-74784108D01*
X166516392Y-74656814D01*
X166516390Y-74656811D01*
X166516390Y-74656809D01*
X166450503Y-74542690D01*
X166450501Y-74542688D01*
X166450500Y-74542686D01*
X166357314Y-74449500D01*
X166357311Y-74449498D01*
X166357309Y-74449496D01*
X166243189Y-74383609D01*
X166243191Y-74383609D01*
X166193799Y-74370375D01*
X166115892Y-74349500D01*
X165984108Y-74349500D01*
X165906200Y-74370375D01*
X165856809Y-74383609D01*
X165742690Y-74449496D01*
X165649496Y-74542690D01*
X165583609Y-74656809D01*
X165549500Y-74784109D01*
X165549500Y-74884521D01*
X165547032Y-74892116D01*
X165548282Y-74900005D01*
X165537757Y-74920662D01*
X165530593Y-74942712D01*
X165520506Y-74954522D01*
X165504528Y-74970501D01*
X165450012Y-74998281D01*
X165434522Y-74999500D01*
X165185435Y-74999500D01*
X165109011Y-75019978D01*
X165109007Y-75019980D01*
X165040491Y-75059538D01*
X163854525Y-76245504D01*
X163800008Y-76273281D01*
X163784521Y-76274500D01*
X160985492Y-76274500D01*
X160909068Y-76294978D01*
X160909064Y-76294980D01*
X160840548Y-76334538D01*
X159954582Y-77220504D01*
X159900065Y-77248281D01*
X159884578Y-77249500D01*
X157110378Y-77249500D01*
X157033954Y-77269978D01*
X157033950Y-77269980D01*
X156965434Y-77309538D01*
X153169504Y-81105468D01*
X153114987Y-81133245D01*
X153054555Y-81123674D01*
X153011290Y-81080409D01*
X153000500Y-81035464D01*
X153000500Y-80934109D01*
X152990148Y-80895475D01*
X152966392Y-80806814D01*
X152966390Y-80806811D01*
X152966390Y-80806809D01*
X152900503Y-80692690D01*
X152900501Y-80692688D01*
X152900500Y-80692686D01*
X152807314Y-80599500D01*
X152807311Y-80599498D01*
X152807309Y-80599496D01*
X152693189Y-80533609D01*
X152693191Y-80533609D01*
X152643799Y-80520375D01*
X152565892Y-80499500D01*
X152465479Y-80499500D01*
X152407288Y-80480593D01*
X152395475Y-80470504D01*
X152214444Y-80289473D01*
X149644511Y-77719540D01*
X149635066Y-77714087D01*
X149575989Y-77679979D01*
X149575988Y-77679978D01*
X149575987Y-77679978D01*
X149499564Y-77659500D01*
X149499562Y-77659500D01*
X147448321Y-77659500D01*
X147390130Y-77640593D01*
X147378323Y-77630509D01*
X147307314Y-77559500D01*
X147307311Y-77559498D01*
X147307309Y-77559496D01*
X147193189Y-77493609D01*
X147193191Y-77493609D01*
X147143799Y-77480375D01*
X147065892Y-77459500D01*
X146934108Y-77459500D01*
X146856200Y-77480375D01*
X146806809Y-77493609D01*
X146692690Y-77559496D01*
X146599496Y-77652690D01*
X146533609Y-77766809D01*
X146533608Y-77766814D01*
X146499500Y-77894108D01*
X143057280Y-77894108D01*
X143057280Y-74019500D01*
X143057281Y-74019497D01*
X143057280Y-73959163D01*
X143057902Y-73948083D01*
X143057913Y-73947984D01*
X143068554Y-73853529D01*
X143073485Y-73831926D01*
X143103063Y-73747394D01*
X143112677Y-73727430D01*
X143160322Y-73651602D01*
X143174138Y-73634276D01*
X143237461Y-73570950D01*
X143254787Y-73557132D01*
X143330622Y-73509481D01*
X143350577Y-73499871D01*
X143435116Y-73470287D01*
X143456718Y-73465357D01*
X143551005Y-73454732D01*
X143562091Y-73454109D01*
X168490891Y-73454109D01*
X168490898Y-73454111D01*
G37*
%TD.AperFunction*%
%TD*%
M02*
