%TF.GenerationSoftware,KiCad,Pcbnew,9.0.6*%
%TF.CreationDate,2025-12-27T16:00:58+00:00*%
%TF.ProjectId,AZUltra,415a556c-7472-4612-9e6b-696361645f70,rev?*%
%TF.SameCoordinates,Original*%
%TF.FileFunction,Legend,Bot*%
%TF.FilePolarity,Positive*%
%FSLAX46Y46*%
G04 Gerber Fmt 4.6, Leading zero omitted, Abs format (unit mm)*
G04 Created by KiCad (PCBNEW 9.0.6) date 2025-12-27 16:00:58*
%MOMM*%
%LPD*%
G01*
G04 APERTURE LIST*
%ADD10C,0.000000*%
%ADD11C,0.120000*%
G04 APERTURE END LIST*
D10*
G36*
X157201054Y-93801469D02*
G01*
X156972992Y-93801469D01*
X156958289Y-93801294D01*
X156908671Y-93795543D01*
X156889534Y-93788253D01*
X156873469Y-93777509D01*
X156864534Y-93768518D01*
X156854125Y-93752516D01*
X156846492Y-93733138D01*
X156841212Y-93707704D01*
X156839453Y-93678975D01*
X156841418Y-93649997D01*
X156852864Y-93611866D01*
X156873469Y-93585552D01*
X156896759Y-93571366D01*
X156927656Y-93563645D01*
X156972992Y-93561537D01*
X157201054Y-93561537D01*
X157201054Y-93801469D01*
G37*
G36*
X158354901Y-93323727D02*
G01*
X158422179Y-93399682D01*
X158444605Y-93458822D01*
X158444605Y-94450136D01*
X153733104Y-94450136D01*
X153733104Y-93694308D01*
X153833104Y-93694308D01*
X153835268Y-93736867D01*
X153847735Y-93793791D01*
X153858966Y-93820587D01*
X153873913Y-93846619D01*
X153895855Y-93875962D01*
X153923484Y-93905695D01*
X153971949Y-93948834D01*
X154033414Y-93996064D01*
X154111697Y-94053766D01*
X154175831Y-94108265D01*
X154199373Y-94136081D01*
X154216138Y-94164554D01*
X153836841Y-94164554D01*
X153836841Y-94322000D01*
X154444200Y-94322000D01*
X154443767Y-94313373D01*
X154433779Y-94228510D01*
X154414540Y-94163221D01*
X154400617Y-94133895D01*
X154383472Y-94106175D01*
X154360520Y-94076927D01*
X154348585Y-94064592D01*
X154531742Y-94064592D01*
X154532155Y-94081890D01*
X154542007Y-94147231D01*
X154564125Y-94204374D01*
X154579560Y-94229880D01*
X154597775Y-94253203D01*
X154618910Y-94274460D01*
X154642680Y-94293295D01*
X154669486Y-94309885D01*
X154698811Y-94323762D01*
X154731258Y-94335032D01*
X154766104Y-94343256D01*
X154804030Y-94348397D01*
X154844214Y-94350136D01*
X154861383Y-94349804D01*
X154932839Y-94340423D01*
X154994116Y-94319258D01*
X155045417Y-94287448D01*
X155067382Y-94267735D01*
X155086812Y-94245579D01*
X155103767Y-94220820D01*
X155117960Y-94193747D01*
X155129485Y-94163878D01*
X155137955Y-94131792D01*
X155143361Y-94096754D01*
X155145366Y-94059591D01*
X154973962Y-94059591D01*
X154967673Y-94103525D01*
X154951235Y-94144302D01*
X154925906Y-94173291D01*
X154909225Y-94184080D01*
X154890129Y-94191963D01*
X154866679Y-94197203D01*
X154840423Y-94198956D01*
X154802014Y-94193995D01*
X154781809Y-94186731D01*
X154763579Y-94176501D01*
X154733945Y-94147985D01*
X154722986Y-94130124D01*
X154714886Y-94110127D01*
X154709868Y-94088220D01*
X154708147Y-94064592D01*
X154708174Y-94061550D01*
X154710323Y-94038051D01*
X154715768Y-94016109D01*
X154735627Y-93978093D01*
X154765965Y-93949349D01*
X154784515Y-93938974D01*
X154805142Y-93931492D01*
X154843095Y-93923798D01*
X154908456Y-93922699D01*
X154908456Y-93886264D01*
X155230381Y-93886264D01*
X155236503Y-94016265D01*
X155252418Y-94111915D01*
X155275979Y-94183572D01*
X155305998Y-94236765D01*
X155313837Y-94246854D01*
X155358382Y-94291104D01*
X155383394Y-94308673D01*
X155410180Y-94323195D01*
X155439106Y-94334780D01*
X155469730Y-94343156D01*
X155502935Y-94348385D01*
X155537797Y-94350136D01*
X155578205Y-94347723D01*
X155640444Y-94333324D01*
X155695515Y-94306672D01*
X155720264Y-94288880D01*
X155743005Y-94268181D01*
X155763766Y-94244439D01*
X155782235Y-94217860D01*
X155793349Y-94198320D01*
X155807722Y-94165591D01*
X155819713Y-94128150D01*
X155830372Y-94080467D01*
X155838134Y-94026664D01*
X155843497Y-93958048D01*
X155845268Y-93881263D01*
X155845233Y-93869831D01*
X155838772Y-93741813D01*
X155830816Y-93694308D01*
X155932811Y-93694308D01*
X155934975Y-93736867D01*
X155947442Y-93793791D01*
X155958672Y-93820587D01*
X155973619Y-93846619D01*
X155995561Y-93875962D01*
X156023191Y-93905695D01*
X156071656Y-93948834D01*
X156133121Y-93996064D01*
X156211404Y-94053766D01*
X156275538Y-94108265D01*
X156299080Y-94136081D01*
X156315845Y-94164554D01*
X155936548Y-94164554D01*
X155936548Y-94322000D01*
X156543907Y-94322000D01*
X156637824Y-94322000D01*
X156840717Y-94322000D01*
X156857422Y-94282730D01*
X156866160Y-94235574D01*
X156868414Y-94164939D01*
X156867150Y-94104654D01*
X156867150Y-94067010D01*
X156868002Y-94047838D01*
X156877165Y-94010034D01*
X156896012Y-93983848D01*
X156910598Y-93973652D01*
X156928362Y-93966194D01*
X156953938Y-93960752D01*
X156984368Y-93958969D01*
X157201054Y-93958969D01*
X157201054Y-94322000D01*
X157390043Y-94322000D01*
X157390043Y-94008154D01*
X157536937Y-94008154D01*
X157545505Y-94073706D01*
X157566925Y-94141597D01*
X157581998Y-94172303D01*
X157599882Y-94200846D01*
X157620573Y-94227241D01*
X157643917Y-94251296D01*
X157670135Y-94273166D01*
X157698883Y-94292479D01*
X157730617Y-94309412D01*
X157764775Y-94323530D01*
X157801991Y-94334935D01*
X157841520Y-94343232D01*
X157884076Y-94348394D01*
X157928818Y-94350136D01*
X157998237Y-94345340D01*
X158072544Y-94327904D01*
X158138609Y-94298485D01*
X158168657Y-94279374D01*
X158196565Y-94257447D01*
X158222564Y-94232464D01*
X158246242Y-94204743D01*
X158267922Y-94173746D01*
X158287053Y-94140060D01*
X158303928Y-94102871D01*
X158317986Y-94063029D01*
X158329393Y-94019531D01*
X158337685Y-93973425D01*
X158342861Y-93923641D01*
X158344605Y-93871316D01*
X158338578Y-93775720D01*
X158320281Y-93687195D01*
X158291107Y-93610533D01*
X158252173Y-93545399D01*
X158204205Y-93491442D01*
X158176942Y-93468590D01*
X158147513Y-93448501D01*
X158115815Y-93431168D01*
X158082052Y-93416771D01*
X158045805Y-93405253D01*
X158007566Y-93396897D01*
X157966632Y-93391714D01*
X157923763Y-93389969D01*
X157847361Y-93395627D01*
X157772287Y-93413918D01*
X157706230Y-93443753D01*
X157649507Y-93484256D01*
X157602443Y-93534884D01*
X157580113Y-93568505D01*
X157566296Y-93596461D01*
X157555706Y-93626314D01*
X157546389Y-93667825D01*
X157540729Y-93715685D01*
X157720870Y-93715685D01*
X157723374Y-93705262D01*
X157743980Y-93648358D01*
X157771687Y-93606943D01*
X157788524Y-93590746D01*
X157807496Y-93577367D01*
X157829711Y-93566346D01*
X157854386Y-93558353D01*
X157884357Y-93553026D01*
X157917443Y-93551261D01*
X157969368Y-93556614D01*
X157995558Y-93564036D01*
X158019975Y-93574546D01*
X158042841Y-93588263D01*
X158063773Y-93604999D01*
X158083318Y-93625395D01*
X158100670Y-93648854D01*
X158116414Y-93676599D01*
X158129612Y-93707515D01*
X158140644Y-93743260D01*
X158148710Y-93782284D01*
X158153874Y-93826399D01*
X158155616Y-93873844D01*
X158149562Y-93960435D01*
X158132418Y-94032643D01*
X158106229Y-94089769D01*
X158072312Y-94133425D01*
X158031041Y-94164877D01*
X158007389Y-94176237D01*
X157981889Y-94184495D01*
X157953752Y-94189681D01*
X157923763Y-94191427D01*
X157887841Y-94189182D01*
X157835341Y-94175844D01*
X157792587Y-94151510D01*
X157774504Y-94135176D01*
X157758843Y-94116205D01*
X157745269Y-94093893D01*
X157734425Y-94068907D01*
X157726066Y-94039919D01*
X157720870Y-94008154D01*
X157536937Y-94008154D01*
X157390043Y-94008154D01*
X157390043Y-93404037D01*
X156897430Y-93404037D01*
X156871379Y-93404834D01*
X156809731Y-93414794D01*
X156760374Y-93435308D01*
X156738986Y-93449766D01*
X156719761Y-93467070D01*
X156708452Y-93479653D01*
X156691460Y-93503046D01*
X156677231Y-93528858D01*
X156665711Y-93557313D01*
X156657321Y-93587636D01*
X156652200Y-93619452D01*
X156650464Y-93652487D01*
X156653014Y-93678975D01*
X156656397Y-93714125D01*
X156673983Y-93766770D01*
X156687140Y-93789991D01*
X156703209Y-93811179D01*
X156722966Y-93831043D01*
X156745859Y-93848764D01*
X156773849Y-93865390D01*
X156805436Y-93879615D01*
X156762038Y-93899613D01*
X156726784Y-93923141D01*
X156712904Y-93938778D01*
X156702145Y-93957940D01*
X156694061Y-93981801D01*
X156688206Y-94011535D01*
X156681400Y-94093321D01*
X156678161Y-94212695D01*
X156677033Y-94232347D01*
X156667433Y-94261790D01*
X156655250Y-94276028D01*
X156637824Y-94288038D01*
X156637824Y-94322000D01*
X156543907Y-94322000D01*
X156543473Y-94313373D01*
X156540491Y-94288038D01*
X156533486Y-94228510D01*
X156514247Y-94163221D01*
X156500324Y-94133895D01*
X156483179Y-94106175D01*
X156460227Y-94076927D01*
X156432683Y-94048461D01*
X156390034Y-94012085D01*
X156338486Y-93974686D01*
X156270185Y-93925474D01*
X156185085Y-93857538D01*
X156142089Y-93811767D01*
X156128628Y-93790928D01*
X156119244Y-93770037D01*
X156111348Y-93736346D01*
X156109215Y-93698045D01*
X156114276Y-93651122D01*
X156130309Y-93610291D01*
X156155767Y-93580537D01*
X156172047Y-93569607D01*
X156190480Y-93561586D01*
X156211783Y-93556460D01*
X156235171Y-93554723D01*
X156275250Y-93560222D01*
X156293687Y-93567485D01*
X156310082Y-93577650D01*
X156324791Y-93591090D01*
X156337187Y-93607436D01*
X156347765Y-93627934D01*
X156355554Y-93651509D01*
X156360705Y-93680068D01*
X156362446Y-93711893D01*
X156362446Y-93740799D01*
X156532531Y-93740799D01*
X156532531Y-93709365D01*
X156532156Y-93690395D01*
X156522825Y-93618080D01*
X156502190Y-93557504D01*
X156471285Y-93507569D01*
X156452021Y-93486289D01*
X156430289Y-93467540D01*
X156405672Y-93451098D01*
X156378612Y-93437396D01*
X156348148Y-93426177D01*
X156315204Y-93418010D01*
X156278354Y-93412818D01*
X156238963Y-93411071D01*
X156220297Y-93411449D01*
X156147249Y-93421051D01*
X156084566Y-93442407D01*
X156032290Y-93474197D01*
X155990447Y-93515557D01*
X155973483Y-93539735D01*
X155959330Y-93566089D01*
X155947974Y-93594872D01*
X155939700Y-93625691D01*
X155934551Y-93659046D01*
X155932811Y-93694308D01*
X155830816Y-93694308D01*
X155823021Y-93647763D01*
X155799776Y-93577991D01*
X155769651Y-93525762D01*
X155760882Y-93514323D01*
X155739772Y-93490911D01*
X155716581Y-93470379D01*
X155691334Y-93452723D01*
X155664254Y-93438094D01*
X155635156Y-93426446D01*
X155604461Y-93418017D01*
X155571808Y-93412819D01*
X155537797Y-93411071D01*
X155497415Y-93413484D01*
X155435184Y-93427887D01*
X155380106Y-93454552D01*
X155355349Y-93472353D01*
X155332602Y-93493062D01*
X155311834Y-93516815D01*
X155293359Y-93543402D01*
X155282076Y-93563609D01*
X155267765Y-93596743D01*
X155255824Y-93634598D01*
X155245233Y-93682733D01*
X155237513Y-93737207D01*
X155232151Y-93807304D01*
X155230465Y-93882527D01*
X155230381Y-93886264D01*
X154908456Y-93886264D01*
X154908456Y-93804657D01*
X154893344Y-93804657D01*
X154888508Y-93804625D01*
X154831769Y-93798193D01*
X154791275Y-93782293D01*
X154762686Y-93757538D01*
X154751973Y-93740925D01*
X154744154Y-93721772D01*
X154738868Y-93697604D01*
X154737108Y-93670292D01*
X154738626Y-93646471D01*
X154750070Y-93607274D01*
X154771521Y-93578822D01*
X154786295Y-93568178D01*
X154803511Y-93560348D01*
X154824465Y-93555199D01*
X154848006Y-93553459D01*
X154864522Y-93554304D01*
X154905419Y-93565116D01*
X154936336Y-93586412D01*
X154956322Y-93616272D01*
X154959708Y-93625774D01*
X154966981Y-93660260D01*
X154970225Y-93710464D01*
X155133990Y-93710464D01*
X155131754Y-93645356D01*
X155125040Y-93603501D01*
X155112558Y-93564780D01*
X155108498Y-93555309D01*
X155095177Y-93530375D01*
X155078984Y-93507582D01*
X155059597Y-93486562D01*
X155037505Y-93467944D01*
X155012099Y-93451375D01*
X154984152Y-93437526D01*
X154952925Y-93426212D01*
X154919362Y-93417967D01*
X154882820Y-93412813D01*
X154844214Y-93411071D01*
X154779986Y-93415797D01*
X154714686Y-93432458D01*
X154660899Y-93459465D01*
X154618429Y-93495538D01*
X154587190Y-93540019D01*
X154575852Y-93565442D01*
X154567586Y-93592787D01*
X154562443Y-93622478D01*
X154560703Y-93653971D01*
X154566677Y-93707528D01*
X154574260Y-93731560D01*
X154585051Y-93754117D01*
X154600140Y-93776666D01*
X154619096Y-93797998D01*
X154645757Y-93821257D01*
X154677867Y-93843564D01*
X154634908Y-93867791D01*
X154589746Y-93904970D01*
X154558442Y-93947544D01*
X154547079Y-93972230D01*
X154538895Y-93998915D01*
X154533516Y-94030418D01*
X154531742Y-94064592D01*
X154348585Y-94064592D01*
X154332976Y-94048461D01*
X154290327Y-94012085D01*
X154238779Y-93974686D01*
X154170478Y-93925474D01*
X154085378Y-93857538D01*
X154042382Y-93811767D01*
X154028922Y-93790928D01*
X154019537Y-93770037D01*
X154011641Y-93736346D01*
X154009508Y-93698045D01*
X154014569Y-93651122D01*
X154030602Y-93610291D01*
X154056060Y-93580537D01*
X154072341Y-93569607D01*
X154090773Y-93561586D01*
X154112076Y-93556460D01*
X154135464Y-93554723D01*
X154175543Y-93560222D01*
X154193980Y-93567485D01*
X154210375Y-93577650D01*
X154225084Y-93591090D01*
X154237480Y-93607436D01*
X154248058Y-93627934D01*
X154255847Y-93651509D01*
X154260999Y-93680068D01*
X154262739Y-93711893D01*
X154262739Y-93740799D01*
X154432824Y-93740799D01*
X154432824Y-93709365D01*
X154432450Y-93690395D01*
X154423118Y-93618080D01*
X154402483Y-93557504D01*
X154371578Y-93507569D01*
X154352314Y-93486289D01*
X154330582Y-93467540D01*
X154305965Y-93451098D01*
X154278905Y-93437396D01*
X154248441Y-93426177D01*
X154215497Y-93418010D01*
X154178647Y-93412818D01*
X154139256Y-93411071D01*
X154120590Y-93411449D01*
X154047542Y-93421051D01*
X153984859Y-93442407D01*
X153932583Y-93474197D01*
X153890740Y-93515557D01*
X153873776Y-93539735D01*
X153859623Y-93566089D01*
X153848267Y-93594872D01*
X153839993Y-93625691D01*
X153834844Y-93659046D01*
X153833104Y-93694308D01*
X153733104Y-93694308D01*
X153733104Y-93473969D01*
X153768578Y-93391242D01*
X153848394Y-93315287D01*
X153911727Y-93289969D01*
X158279904Y-93289969D01*
X158354901Y-93323727D01*
G37*
G36*
X155559609Y-93555461D02*
G01*
X155578093Y-93560731D01*
X155595020Y-93569188D01*
X155610673Y-93581117D01*
X155624385Y-93596212D01*
X155636508Y-93615311D01*
X155646168Y-93637649D01*
X155646413Y-93638303D01*
X155655408Y-93675169D01*
X155662354Y-93729119D01*
X155668864Y-93879999D01*
X155665172Y-93995567D01*
X155654034Y-94086229D01*
X155641112Y-94129878D01*
X155635660Y-94140420D01*
X155610341Y-94172506D01*
X155595148Y-94183795D01*
X155578251Y-94191998D01*
X155558892Y-94197207D01*
X155537797Y-94198956D01*
X155518786Y-94197503D01*
X155500020Y-94192810D01*
X155482859Y-94184950D01*
X155466865Y-94173558D01*
X155452767Y-94158941D01*
X155439911Y-94139878D01*
X155429426Y-94117348D01*
X155429391Y-94117256D01*
X155420306Y-94080886D01*
X155413305Y-94028012D01*
X155406785Y-93882527D01*
X155410711Y-93759501D01*
X155421849Y-93668115D01*
X155434482Y-93625065D01*
X155440763Y-93612801D01*
X155466603Y-93580174D01*
X155498881Y-93560386D01*
X155517656Y-93555204D01*
X155537797Y-93553459D01*
X155559609Y-93555461D01*
G37*
D11*
%TO.C,BT1*%
X144985000Y-78390000D02*
X144985000Y-80850000D01*
X144985000Y-86850000D02*
X144985000Y-87480000D01*
X144985000Y-87480000D02*
X146425000Y-91430000D01*
X147065000Y-76310000D02*
X144985000Y-78390000D01*
X147065000Y-76310000D02*
X150565000Y-76310000D01*
X160965000Y-76310000D02*
X164465000Y-76310000D01*
X164465000Y-76310000D02*
X166545000Y-78390000D01*
X166545000Y-78390000D02*
X166545000Y-80850000D01*
X166545000Y-86850000D02*
X166545000Y-87480000D01*
X166545000Y-87480000D02*
X165105000Y-91430000D01*
X149765000Y-92400000D02*
G75*
G02*
X146439757Y-91438169I-1310000J1700000D01*
G01*
X165105000Y-91430000D02*
G75*
G02*
X161768354Y-92416530I-2030000J730001D01*
G01*
%TD*%
G36*
X168375060Y-75734126D02*
G01*
X168377869Y-75741657D01*
X168377869Y-78743601D01*
X168378338Y-78752998D01*
X168378338Y-78754144D01*
X168377869Y-78763541D01*
X168377869Y-78772925D01*
X168377336Y-78774210D01*
X168376416Y-78792646D01*
X168372646Y-78800599D01*
X168364930Y-78803572D01*
X167254241Y-78803572D01*
X167246109Y-78800204D01*
X167242741Y-78792072D01*
X167246109Y-78783940D01*
X167248749Y-78781968D01*
X168059369Y-78341328D01*
X168059369Y-78167428D01*
X167039410Y-78042620D01*
X167039410Y-78249371D01*
X167765927Y-78308105D01*
X167773761Y-78312118D01*
X167776463Y-78320495D01*
X167772450Y-78328329D01*
X167770072Y-78329889D01*
X167039410Y-78688947D01*
X167039410Y-78792072D01*
X167036042Y-78800204D01*
X167027910Y-78803572D01*
X166789849Y-78803572D01*
X166781717Y-78800204D01*
X166778350Y-78792215D01*
X166778124Y-78774134D01*
X166777869Y-78773528D01*
X166777869Y-77377058D01*
X167066766Y-77377058D01*
X167066766Y-77896013D01*
X167241764Y-77859621D01*
X167241766Y-77859620D01*
X167241766Y-77466468D01*
X167245134Y-77458336D01*
X167249365Y-77455650D01*
X167418233Y-77394752D01*
X167427025Y-77395162D01*
X167432952Y-77401669D01*
X167432542Y-77410461D01*
X167432029Y-77411430D01*
X167420603Y-77430723D01*
X167396601Y-77493226D01*
X167396600Y-77493228D01*
X167390216Y-77528162D01*
X167390216Y-77528165D01*
X167388188Y-77564874D01*
X167388981Y-77587980D01*
X167400727Y-77651618D01*
X167400729Y-77651625D01*
X167425314Y-77704678D01*
X167425317Y-77704682D01*
X167442196Y-77727427D01*
X167442203Y-77727436D01*
X167461955Y-77747484D01*
X167461963Y-77747491D01*
X167484951Y-77765080D01*
X167510671Y-77779680D01*
X167510682Y-77779686D01*
X167539932Y-77791513D01*
X167571804Y-77799961D01*
X167571803Y-77799961D01*
X167607387Y-77805034D01*
X167645452Y-77806267D01*
X167687056Y-77803410D01*
X167687061Y-77803409D01*
X167730973Y-77796241D01*
X167730987Y-77796239D01*
X167755044Y-77790627D01*
X167797343Y-77777633D01*
X167837451Y-77761235D01*
X167875374Y-77741519D01*
X167875387Y-77741512D01*
X167910764Y-77718736D01*
X167910789Y-77718718D01*
X167943475Y-77693064D01*
X167943492Y-77693049D01*
X167973343Y-77664688D01*
X167973351Y-77664680D01*
X168023633Y-77600983D01*
X168023634Y-77600981D01*
X168060463Y-77529586D01*
X168060463Y-77529585D01*
X168083000Y-77452365D01*
X168090631Y-77370956D01*
X168090466Y-77358753D01*
X168081236Y-77284250D01*
X168059496Y-77223000D01*
X168027011Y-77174498D01*
X167984735Y-77138351D01*
X167959878Y-77124890D01*
X167932838Y-77114791D01*
X167932831Y-77114789D01*
X167902989Y-77108029D01*
X167871106Y-77105007D01*
X167836287Y-77105913D01*
X167799555Y-77111017D01*
X167799555Y-77299999D01*
X167825636Y-77297766D01*
X167828415Y-77297865D01*
X167864245Y-77303538D01*
X167868674Y-77305229D01*
X167893693Y-77321343D01*
X167896629Y-77324063D01*
X167905864Y-77336242D01*
X167907163Y-77338416D01*
X167914469Y-77354427D01*
X167915199Y-77356557D01*
X167920493Y-77378965D01*
X167920775Y-77380830D01*
X167922572Y-77407308D01*
X167922485Y-77409695D01*
X167915478Y-77459315D01*
X167914841Y-77461791D01*
X167906267Y-77484362D01*
X167905526Y-77485941D01*
X167893450Y-77507286D01*
X167892490Y-77508720D01*
X167876618Y-77528959D01*
X167875495Y-77530194D01*
X167856252Y-77548499D01*
X167855027Y-77549513D01*
X167831630Y-77566287D01*
X167830359Y-77567078D01*
X167803566Y-77581431D01*
X167802300Y-77582014D01*
X167771293Y-77594059D01*
X167770062Y-77594459D01*
X167735729Y-77603514D01*
X167734656Y-77603743D01*
X167705827Y-77608469D01*
X167704007Y-77608620D01*
X167648326Y-77608814D01*
X167645082Y-77608359D01*
X167605121Y-77596768D01*
X167601420Y-77594920D01*
X167573029Y-77573605D01*
X167570607Y-77571135D01*
X167560525Y-77557157D01*
X167559381Y-77555185D01*
X167551631Y-77538119D01*
X167550931Y-77536097D01*
X167545689Y-77514668D01*
X167545391Y-77512775D01*
X167543575Y-77487981D01*
X167543552Y-77486699D01*
X167544049Y-77473772D01*
X167544332Y-77471643D01*
X167555066Y-77424847D01*
X167555974Y-77422305D01*
X167565816Y-77402475D01*
X167566763Y-77400899D01*
X167579902Y-77382525D01*
X167581084Y-77381123D01*
X167597526Y-77364515D01*
X167598873Y-77363350D01*
X167619121Y-77348420D01*
X167619121Y-77175864D01*
X167619120Y-77175863D01*
X167066766Y-77377058D01*
X166777869Y-77377058D01*
X166777869Y-76658436D01*
X167398203Y-76658436D01*
X167398203Y-76821345D01*
X167639108Y-76771281D01*
X167647755Y-76772924D01*
X167652707Y-76780200D01*
X167652948Y-76782540D01*
X167652948Y-77017653D01*
X167819583Y-76982972D01*
X167819583Y-76743079D01*
X167822951Y-76734947D01*
X167828744Y-76731819D01*
X168074999Y-76680660D01*
X168075000Y-76680659D01*
X168075000Y-76517751D01*
X167833422Y-76567938D01*
X167824775Y-76566294D01*
X167819823Y-76559017D01*
X167819583Y-76556678D01*
X167819583Y-76321563D01*
X167652948Y-76356246D01*
X167652948Y-76596139D01*
X167649580Y-76604271D01*
X167643788Y-76607398D01*
X167398204Y-76658434D01*
X167398203Y-76658436D01*
X166777869Y-76658436D01*
X166777869Y-75747408D01*
X166781237Y-75739276D01*
X166789369Y-75735908D01*
X166796539Y-75738417D01*
X166865401Y-75793332D01*
X166865412Y-75793340D01*
X166946697Y-75847953D01*
X167032171Y-75895763D01*
X167121259Y-75936448D01*
X167213348Y-75969730D01*
X167307865Y-75995399D01*
X167404147Y-76013279D01*
X167501570Y-76023251D01*
X167599501Y-76025249D01*
X167599509Y-76025249D01*
X167697228Y-76019260D01*
X167794165Y-76005324D01*
X167889656Y-75983528D01*
X167983039Y-75954026D01*
X168073708Y-75917011D01*
X168073712Y-75917009D01*
X168161052Y-75872730D01*
X168161060Y-75872726D01*
X168244504Y-75821475D01*
X168323507Y-75763581D01*
X168358838Y-75732966D01*
X168367189Y-75730186D01*
X168375060Y-75734126D01*
G37*
G36*
X167558821Y-77928338D02*
G01*
X167638017Y-77930312D01*
X167638590Y-77930340D01*
X167640510Y-77930484D01*
X167641080Y-77930541D01*
X167719704Y-77940394D01*
X167720268Y-77940479D01*
X167722142Y-77940809D01*
X167722707Y-77940923D01*
X167799967Y-77958557D01*
X167800528Y-77958700D01*
X167802366Y-77959218D01*
X167802908Y-77959386D01*
X167878014Y-77984619D01*
X167878556Y-77984816D01*
X167880346Y-77985519D01*
X167880872Y-77985741D01*
X167953078Y-78018321D01*
X167953595Y-78018570D01*
X167955319Y-78019454D01*
X167955822Y-78019728D01*
X168024425Y-78059337D01*
X168024910Y-78059633D01*
X168026528Y-78060677D01*
X168027006Y-78061003D01*
X168091325Y-78107245D01*
X168091788Y-78107596D01*
X168093302Y-78108805D01*
X168093735Y-78109169D01*
X168153115Y-78161572D01*
X168153537Y-78161963D01*
X168154936Y-78163328D01*
X168155335Y-78163737D01*
X168209222Y-78221813D01*
X168209601Y-78222243D01*
X168210822Y-78223698D01*
X168211180Y-78224146D01*
X168259029Y-78287316D01*
X168259364Y-78287782D01*
X168260435Y-78289353D01*
X168260746Y-78289834D01*
X168302065Y-78357449D01*
X168302351Y-78357946D01*
X168303273Y-78359639D01*
X168303535Y-78360149D01*
X168337911Y-78431531D01*
X168338148Y-78432057D01*
X168338891Y-78433821D01*
X168339099Y-78434352D01*
X168366196Y-78508799D01*
X168366379Y-78509342D01*
X168366945Y-78511177D01*
X168367100Y-78511729D01*
X168377513Y-78552620D01*
X168377869Y-78555458D01*
X168377869Y-78743601D01*
X168378338Y-78752998D01*
X168378338Y-78754144D01*
X168377869Y-78763541D01*
X168377869Y-78772925D01*
X168377336Y-78774210D01*
X168374417Y-78832700D01*
X168374303Y-78833841D01*
X168362579Y-78911627D01*
X168362351Y-78912751D01*
X168342944Y-78988969D01*
X168342606Y-78990064D01*
X168315707Y-79063968D01*
X168315262Y-79065025D01*
X168281134Y-79135892D01*
X168280586Y-79136899D01*
X168239568Y-79204021D01*
X168238922Y-79204968D01*
X168191431Y-79267666D01*
X168190694Y-79268544D01*
X168137192Y-79326205D01*
X168136371Y-79327005D01*
X168077404Y-79379044D01*
X168076508Y-79379759D01*
X168012642Y-79425675D01*
X168011679Y-79426297D01*
X167943562Y-79465625D01*
X167942542Y-79466148D01*
X167870849Y-79498498D01*
X167869781Y-79498917D01*
X167795222Y-79523966D01*
X167794119Y-79524277D01*
X167717432Y-79541781D01*
X167716303Y-79541980D01*
X167638252Y-79551761D01*
X167637109Y-79551846D01*
X167558491Y-79553806D01*
X167557345Y-79553778D01*
X167478900Y-79547900D01*
X167477762Y-79547757D01*
X167400308Y-79534099D01*
X167399190Y-79533844D01*
X167323471Y-79512541D01*
X167322385Y-79512176D01*
X167249172Y-79483442D01*
X167248127Y-79482971D01*
X167178125Y-79447083D01*
X167177132Y-79446509D01*
X167111067Y-79403839D01*
X167110136Y-79403170D01*
X167048645Y-79354132D01*
X167047785Y-79353374D01*
X166991471Y-79298448D01*
X166990691Y-79297607D01*
X166940133Y-79237353D01*
X166939441Y-79236439D01*
X166895135Y-79171456D01*
X166894537Y-79170478D01*
X166856917Y-79101395D01*
X166856420Y-79100362D01*
X166825869Y-79027886D01*
X166825477Y-79026809D01*
X166802294Y-78951650D01*
X166802011Y-78950539D01*
X166786425Y-78873443D01*
X166786254Y-78872309D01*
X166778415Y-78793970D01*
X166778359Y-78792968D01*
X166778124Y-78774134D01*
X166777869Y-78773528D01*
X166777869Y-78551597D01*
X166778380Y-78548207D01*
X166801673Y-78472691D01*
X166801855Y-78472150D01*
X166802512Y-78470344D01*
X166802722Y-78469808D01*
X166833500Y-78396793D01*
X166833736Y-78396271D01*
X166834557Y-78394566D01*
X166834818Y-78394055D01*
X166872726Y-78324444D01*
X166873013Y-78323948D01*
X166873998Y-78322336D01*
X166874309Y-78321854D01*
X166918954Y-78256372D01*
X166919288Y-78255907D01*
X166920430Y-78254399D01*
X166920789Y-78253950D01*
X166971732Y-78193239D01*
X166972109Y-78192811D01*
X166973401Y-78191418D01*
X166973803Y-78191005D01*
X167019880Y-78146064D01*
X167028054Y-78142798D01*
X167036143Y-78146267D01*
X167039410Y-78154297D01*
X167039410Y-78249371D01*
X167765927Y-78308105D01*
X167773761Y-78312118D01*
X167776463Y-78320495D01*
X167772450Y-78328329D01*
X167770072Y-78329889D01*
X167039410Y-78688947D01*
X167039410Y-78895760D01*
X168059369Y-78341328D01*
X168059369Y-78167428D01*
X167171819Y-78058822D01*
X167164157Y-78054491D01*
X167161801Y-78046010D01*
X167166132Y-78038348D01*
X167167969Y-78037174D01*
X167236971Y-78001798D01*
X167237489Y-78001548D01*
X167239249Y-78000754D01*
X167239777Y-78000532D01*
X167313513Y-77971593D01*
X167314052Y-77971396D01*
X167315886Y-77970780D01*
X167316433Y-77970612D01*
X167392697Y-77949154D01*
X167393256Y-77949012D01*
X167395120Y-77948587D01*
X167395679Y-77948474D01*
X167473698Y-77934717D01*
X167474266Y-77934631D01*
X167476183Y-77934391D01*
X167476753Y-77934334D01*
X167555769Y-77928413D01*
X167556345Y-77928384D01*
X167558251Y-77928337D01*
X167558821Y-77928338D01*
G37*
M02*
