%TF.GenerationSoftware,KiCad,Pcbnew,9.0.6*%
%TF.CreationDate,2025-12-27T16:00:58+00:00*%
%TF.ProjectId,AZUltra,415a556c-7472-4612-9e6b-696361645f70,rev?*%
%TF.SameCoordinates,Original*%
%TF.FileFunction,Copper,L1,Top*%
%TF.FilePolarity,Positive*%
%FSLAX46Y46*%
G04 Gerber Fmt 4.6, Leading zero omitted, Abs format (unit mm)*
G04 Created by KiCad (PCBNEW 9.0.6) date 2025-12-27 16:00:58*
%MOMM*%
%LPD*%
G01*
G04 APERTURE LIST*
G04 Aperture macros list*
%AMRoundRect*
0 Rectangle with rounded corners*
0 $1 Rounding radius*
0 $2 $3 $4 $5 $6 $7 $8 $9 X,Y pos of 4 corners*
0 Add a 4 corners polygon primitive as box body*
4,1,4,$2,$3,$4,$5,$6,$7,$8,$9,$2,$3,0*
0 Add four circle primitives for the rounded corners*
1,1,$1+$1,$2,$3*
1,1,$1+$1,$4,$5*
1,1,$1+$1,$6,$7*
1,1,$1+$1,$8,$9*
0 Add four rect primitives between the rounded corners*
20,1,$1+$1,$2,$3,$4,$5,0*
20,1,$1+$1,$4,$5,$6,$7,0*
20,1,$1+$1,$6,$7,$8,$9,0*
20,1,$1+$1,$8,$9,$2,$3,0*%
%AMRotRect*
0 Rectangle, with rotation*
0 The origin of the aperture is its center*
0 $1 length*
0 $2 width*
0 $3 Rotation angle, in degrees counterclockwise*
0 Add horizontal line*
21,1,$1,$2,0,0,$3*%
%AMFreePoly0*
4,1,14,0.168787,0.091213,0.291213,-0.031213,0.300000,-0.052426,0.300001,-0.070000,0.291213,-0.091213,0.270000,-0.100000,-0.270000,-0.100000,-0.291213,-0.091213,-0.300001,-0.070000,-0.300001,0.070000,-0.291213,0.091213,-0.270000,0.100000,0.147574,0.100000,0.168787,0.091213,0.168787,0.091213,$1*%
%AMFreePoly1*
4,1,14,0.291213,0.091213,0.300001,0.070000,0.300000,0.052426,0.291213,0.031213,0.168787,-0.091213,0.147574,-0.100000,-0.270000,-0.100000,-0.291213,-0.091213,-0.300001,-0.070000,-0.300001,0.070000,-0.291213,0.091213,-0.270000,0.100000,0.270000,0.100000,0.291213,0.091213,0.291213,0.091213,$1*%
%AMFreePoly2*
4,1,14,0.091213,0.291213,0.100000,0.270000,0.100000,-0.270000,0.091213,-0.291213,0.070000,-0.300001,-0.070000,-0.300001,-0.091213,-0.291213,-0.100000,-0.270000,-0.100000,0.147574,-0.091213,0.168787,0.031213,0.291213,0.052426,0.300000,0.070000,0.300001,0.091213,0.291213,0.091213,0.291213,$1*%
%AMFreePoly3*
4,1,14,-0.031213,0.291213,0.091213,0.168787,0.100000,0.147574,0.100000,-0.270000,0.091213,-0.291213,0.070000,-0.300001,-0.070000,-0.300001,-0.091213,-0.291213,-0.100000,-0.270000,-0.100000,0.270000,-0.091213,0.291213,-0.070000,0.300001,-0.052426,0.300000,-0.031213,0.291213,-0.031213,0.291213,$1*%
%AMFreePoly4*
4,1,14,0.291213,0.091213,0.300001,0.070000,0.300001,-0.070000,0.291213,-0.091213,0.270000,-0.100000,-0.147574,-0.100000,-0.168787,-0.091213,-0.291213,0.031213,-0.300000,0.052426,-0.300001,0.070000,-0.291213,0.091213,-0.270000,0.100000,0.270000,0.100000,0.291213,0.091213,0.291213,0.091213,$1*%
%AMFreePoly5*
4,1,14,0.291213,0.091213,0.300001,0.070000,0.300001,-0.070000,0.291213,-0.091213,0.270000,-0.100000,-0.270000,-0.100000,-0.291213,-0.091213,-0.300001,-0.070000,-0.300000,-0.052426,-0.291213,-0.031213,-0.168787,0.091213,-0.147574,0.100000,0.270000,0.100000,0.291213,0.091213,0.291213,0.091213,$1*%
%AMFreePoly6*
4,1,14,0.091213,0.291213,0.100000,0.270000,0.100000,-0.147574,0.091213,-0.168787,-0.031213,-0.291213,-0.052426,-0.300000,-0.070000,-0.300001,-0.091213,-0.291213,-0.100000,-0.270000,-0.100000,0.270000,-0.091213,0.291213,-0.070000,0.300001,0.070000,0.300001,0.091213,0.291213,0.091213,0.291213,$1*%
%AMFreePoly7*
4,1,14,0.091213,0.291213,0.100000,0.270000,0.100000,-0.270000,0.091213,-0.291213,0.070000,-0.300001,0.052426,-0.300000,0.031213,-0.291213,-0.091213,-0.168787,-0.100000,-0.147574,-0.100000,0.270000,-0.091213,0.291213,-0.070000,0.300001,0.070000,0.300001,0.091213,0.291213,0.091213,0.291213,$1*%
G04 Aperture macros list end*
%TA.AperFunction,Conductor*%
%ADD10C,0.000000*%
%TD*%
%TA.AperFunction,SMDPad,CuDef*%
%ADD11RoundRect,0.218750X0.218750X0.381250X-0.218750X0.381250X-0.218750X-0.381250X0.218750X-0.381250X0*%
%TD*%
%TA.AperFunction,SMDPad,CuDef*%
%ADD12RoundRect,0.135000X0.185000X-0.135000X0.185000X0.135000X-0.185000X0.135000X-0.185000X-0.135000X0*%
%TD*%
%TA.AperFunction,SMDPad,CuDef*%
%ADD13RoundRect,0.218750X0.218750X0.256250X-0.218750X0.256250X-0.218750X-0.256250X0.218750X-0.256250X0*%
%TD*%
%TA.AperFunction,SMDPad,CuDef*%
%ADD14RoundRect,0.150000X-0.150000X0.587500X-0.150000X-0.587500X0.150000X-0.587500X0.150000X0.587500X0*%
%TD*%
%TA.AperFunction,SMDPad,CuDef*%
%ADD15RoundRect,0.114000X0.266000X0.521000X-0.266000X0.521000X-0.266000X-0.521000X0.266000X-0.521000X0*%
%TD*%
%TA.AperFunction,SMDPad,CuDef*%
%ADD16RoundRect,0.180000X-1.920000X-0.420000X1.920000X-0.420000X1.920000X0.420000X-1.920000X0.420000X0*%
%TD*%
%TA.AperFunction,SMDPad,CuDef*%
%ADD17RoundRect,0.100000X-0.100000X-0.250000X0.100000X-0.250000X0.100000X0.250000X-0.100000X0.250000X0*%
%TD*%
%TA.AperFunction,SMDPad,CuDef*%
%ADD18RoundRect,0.150000X-0.512500X-0.150000X0.512500X-0.150000X0.512500X0.150000X-0.512500X0.150000X0*%
%TD*%
%TA.AperFunction,SMDPad,CuDef*%
%ADD19RoundRect,0.225000X0.225000X0.250000X-0.225000X0.250000X-0.225000X-0.250000X0.225000X-0.250000X0*%
%TD*%
%TA.AperFunction,SMDPad,CuDef*%
%ADD20RoundRect,0.250000X0.250000X0.475000X-0.250000X0.475000X-0.250000X-0.475000X0.250000X-0.475000X0*%
%TD*%
%TA.AperFunction,SMDPad,CuDef*%
%ADD21RoundRect,0.225000X-0.225000X-0.250000X0.225000X-0.250000X0.225000X0.250000X-0.225000X0.250000X0*%
%TD*%
%TA.AperFunction,SMDPad,CuDef*%
%ADD22FreePoly0,225.000000*%
%TD*%
%TA.AperFunction,SMDPad,CuDef*%
%ADD23RoundRect,0.050000X0.141421X0.212132X-0.212132X-0.141421X-0.141421X-0.212132X0.212132X0.141421X0*%
%TD*%
%TA.AperFunction,SMDPad,CuDef*%
%ADD24FreePoly1,225.000000*%
%TD*%
%TA.AperFunction,SMDPad,CuDef*%
%ADD25FreePoly2,225.000000*%
%TD*%
%TA.AperFunction,SMDPad,CuDef*%
%ADD26RoundRect,0.050000X-0.141421X0.212132X-0.212132X0.141421X0.141421X-0.212132X0.212132X-0.141421X0*%
%TD*%
%TA.AperFunction,SMDPad,CuDef*%
%ADD27FreePoly3,225.000000*%
%TD*%
%TA.AperFunction,SMDPad,CuDef*%
%ADD28FreePoly4,225.000000*%
%TD*%
%TA.AperFunction,SMDPad,CuDef*%
%ADD29FreePoly5,225.000000*%
%TD*%
%TA.AperFunction,SMDPad,CuDef*%
%ADD30FreePoly6,225.000000*%
%TD*%
%TA.AperFunction,SMDPad,CuDef*%
%ADD31FreePoly7,225.000000*%
%TD*%
%TA.AperFunction,HeatsinkPad*%
%ADD32RotRect,1.100000X1.100000X225.000000*%
%TD*%
%TA.AperFunction,SMDPad,CuDef*%
%ADD33RoundRect,0.150000X-0.150000X-0.625000X0.150000X-0.625000X0.150000X0.625000X-0.150000X0.625000X0*%
%TD*%
%TA.AperFunction,SMDPad,CuDef*%
%ADD34RoundRect,0.250000X-0.350000X-0.650000X0.350000X-0.650000X0.350000X0.650000X-0.350000X0.650000X0*%
%TD*%
%TA.AperFunction,SMDPad,CuDef*%
%ADD35RoundRect,0.200000X0.275000X-0.200000X0.275000X0.200000X-0.275000X0.200000X-0.275000X-0.200000X0*%
%TD*%
%TA.AperFunction,SMDPad,CuDef*%
%ADD36RoundRect,0.100000X-0.250000X0.100000X-0.250000X-0.100000X0.250000X-0.100000X0.250000X0.100000X0*%
%TD*%
%TA.AperFunction,SMDPad,CuDef*%
%ADD37RoundRect,0.200000X-0.200000X-0.275000X0.200000X-0.275000X0.200000X0.275000X-0.200000X0.275000X0*%
%TD*%
%TA.AperFunction,ViaPad*%
%ADD38C,0.600000*%
%TD*%
%TA.AperFunction,Conductor*%
%ADD39C,0.400000*%
%TD*%
%TA.AperFunction,Conductor*%
%ADD40C,0.200000*%
%TD*%
%TA.AperFunction,Conductor*%
%ADD41C,0.800000*%
%TD*%
%TA.AperFunction,Conductor*%
%ADD42C,0.600000*%
%TD*%
G04 APERTURE END LIST*
D10*
%TA.AperFunction,Conductor*%
%TO.N,Net-(JP1-B)*%
G36*
X152332389Y-86927221D02*
G01*
X152395743Y-86944978D01*
X152456810Y-86969468D01*
X152514878Y-87000406D01*
X152569268Y-87037429D01*
X152619345Y-87080106D01*
X152664524Y-87127937D01*
X152704277Y-87180365D01*
X152738140Y-87236777D01*
X152765718Y-87296513D01*
X152786689Y-87358877D01*
X152800806Y-87423140D01*
X152807907Y-87488550D01*
X152807907Y-87554346D01*
X152800806Y-87619756D01*
X152786689Y-87684019D01*
X152765718Y-87746383D01*
X152738140Y-87806119D01*
X152704277Y-87862531D01*
X152664524Y-87914959D01*
X152619345Y-87962790D01*
X152569268Y-88005467D01*
X152514878Y-88042490D01*
X152456810Y-88073428D01*
X152395743Y-88097918D01*
X152332389Y-88115675D01*
X152300000Y-88121448D01*
X152300000Y-88121447D01*
X152299998Y-86921448D01*
X152300000Y-86921448D01*
X152332389Y-86927221D01*
G37*
%TD.AperFunction*%
%TD*%
D11*
%TO.P,L1,1,1*%
%TO.N,Net-(Q1-S)*%
X150820000Y-76140000D03*
%TO.P,L1,2,2*%
%TO.N,Net-(U1-SW)*%
X148695000Y-76140000D03*
%TD*%
D12*
%TO.P,R3,1*%
%TO.N,+5V*%
X153740000Y-87230000D03*
%TO.P,R3,2*%
%TO.N,Net-(JP1-B)*%
X153740000Y-86210000D03*
%TD*%
D13*
%TO.P,D1,1,K*%
%TO.N,GND*%
X146000000Y-76200000D03*
%TO.P,D1,2,A*%
%TO.N,Net-(D1-A)*%
X144425000Y-76200000D03*
%TD*%
D14*
%TO.P,Q1,1,G*%
%TO.N,GND*%
X154625000Y-78750000D03*
%TO.P,Q1,2,S*%
%TO.N,Net-(Q1-S)*%
X152725000Y-78750000D03*
%TO.P,Q1,3,D*%
%TO.N,+BATT1*%
X153675000Y-80625000D03*
%TD*%
D15*
%TO.P,SW1,1*%
%TO.N,Net-(U2-PC7)*%
X146460000Y-86990000D03*
%TO.P,SW1,2*%
%TO.N,Net-(U2-PC6)*%
X145190000Y-86990000D03*
%TO.P,SW1,3*%
%TO.N,Net-(U2-PC4)*%
X143920000Y-86990000D03*
%TO.P,SW1,4*%
%TO.N,GND*%
X146500000Y-80000000D03*
%TO.P,SW1,5*%
X145230000Y-80000000D03*
%TO.P,SW1,6*%
X143960000Y-80000000D03*
%TD*%
D16*
%TO.P,BZ1,1,+*%
%TO.N,Net-(BZ1-+)*%
X162500000Y-87000000D03*
%TO.P,BZ1,2,-*%
%TO.N,Net-(BZ1--)*%
X162500000Y-75000000D03*
%TD*%
D17*
%TO.P,D2,1,A*%
%TO.N,GND*%
X166525000Y-88550000D03*
%TO.P,D2,2,K*%
%TO.N,+BATT1*%
X167225000Y-88550000D03*
%TD*%
D18*
%TO.P,U1,1,SW*%
%TO.N,Net-(U1-SW)*%
X148500000Y-78050000D03*
%TO.P,U1,2,GND*%
%TO.N,GND*%
X148500000Y-79000000D03*
%TO.P,U1,3,NC*%
%TO.N,unconnected-(U1-NC-Pad3)*%
X148500000Y-79950000D03*
%TO.P,U1,4,VOUT*%
%TO.N,+5V*%
X150775000Y-79950000D03*
%TO.P,U1,5,NC*%
%TO.N,unconnected-(U1-NC-Pad5)*%
X150775000Y-78050000D03*
%TD*%
D19*
%TO.P,C5,1*%
%TO.N,+5V*%
X150600000Y-83500000D03*
%TO.P,C5,2*%
%TO.N,GND*%
X149050000Y-83500000D03*
%TD*%
D20*
%TO.P,C4,1*%
%TO.N,+5V*%
X150550000Y-81700000D03*
%TO.P,C4,2*%
%TO.N,GND*%
X148650000Y-81700000D03*
%TD*%
D21*
%TO.P,C3,1*%
%TO.N,Net-(Q1-S)*%
X152900000Y-75500000D03*
%TO.P,C3,2*%
%TO.N,GND*%
X154450000Y-75500000D03*
%TD*%
D22*
%TO.P,U2,1,TIM1_CH2*%
%TO.N,Net-(U2-PA1)*%
X154253554Y-83053553D03*
D23*
%TO.P,U2,2,TIM1_CH2N*%
%TO.N,Net-(BZ1--)*%
X153900000Y-82700000D03*
D24*
%TO.P,U2,3,PD0*%
%TO.N,Net-(U2-PD0)*%
X153546447Y-82346446D03*
D25*
%TO.P,U2,4,VDD*%
%TO.N,+5V*%
X152768629Y-82346446D03*
D26*
%TO.P,U2,5,PC0*%
%TO.N,unconnected-(U2-PC0-Pad5)*%
X152415076Y-82700000D03*
D27*
%TO.P,U2,6,PC3*%
%TO.N,unconnected-(U2-PC3-Pad6)*%
X152061522Y-83053553D03*
D28*
%TO.P,U2,7,PC4*%
%TO.N,Net-(U2-PC4)*%
X152061522Y-83831371D03*
D23*
%TO.P,U2,8,PC6*%
%TO.N,Net-(U2-PC6)*%
X152415076Y-84184924D03*
D29*
%TO.P,U2,9,PC7*%
%TO.N,Net-(U2-PC7)*%
X152768629Y-84538478D03*
D30*
%TO.P,U2,10,SWIO*%
%TO.N,/SWIO*%
X153546447Y-84538478D03*
D26*
%TO.P,U2,11,PD4*%
%TO.N,unconnected-(U2-PD4-Pad11)*%
X153900000Y-84184924D03*
D31*
%TO.P,U2,12,RST*%
%TO.N,Net-(JP1-B)*%
X154253554Y-83831371D03*
D32*
%TO.P,U2,13,VSS*%
%TO.N,GND*%
X153157538Y-83442462D03*
%TD*%
D33*
%TO.P,J1,1,Pin_1*%
%TO.N,/SWIO*%
X145040000Y-89600000D03*
%TO.P,J1,2,Pin_2*%
%TO.N,GND*%
X146040000Y-89600000D03*
D34*
%TO.P,J1,MP*%
%TO.N,N/C*%
X143740000Y-93475000D03*
X147340000Y-93475000D03*
%TD*%
D21*
%TO.P,C2,1*%
%TO.N,Net-(Q1-S)*%
X152900000Y-77000000D03*
%TO.P,C2,2*%
%TO.N,GND*%
X154450000Y-77000000D03*
%TD*%
D35*
%TO.P,R2,1*%
%TO.N,Net-(BZ1-+)*%
X155190000Y-87020000D03*
%TO.P,R2,2*%
%TO.N,Net-(U2-PA1)*%
X155190000Y-85370000D03*
%TD*%
D36*
%TO.P,D3,1,A*%
%TO.N,GND*%
X148300000Y-87600000D03*
%TO.P,D3,2,K*%
%TO.N,/SWIO*%
X148300000Y-88300000D03*
%TD*%
D37*
%TO.P,R1,1*%
%TO.N,Net-(D1-A)*%
X144375000Y-77900000D03*
%TO.P,R1,2*%
%TO.N,Net-(U2-PD0)*%
X146025000Y-77900000D03*
%TD*%
D38*
%TO.N,+BATT1*%
X167925000Y-84850000D03*
X167925000Y-83850000D03*
X167925000Y-82850000D03*
X154800000Y-81000000D03*
X167925000Y-85850000D03*
X167925000Y-81850000D03*
%TO.N,GND*%
X160500000Y-77950000D03*
X155525000Y-76950000D03*
X146500000Y-78975000D03*
X158500000Y-80000000D03*
X146790000Y-89320000D03*
X149630000Y-79360000D03*
X149575000Y-87400000D03*
X144470000Y-88220000D03*
X156800000Y-88150000D03*
X155400000Y-78450000D03*
X156800000Y-86050000D03*
X151150000Y-88075000D03*
X149700000Y-89050000D03*
X158850000Y-86100000D03*
X145225000Y-78975000D03*
X159200000Y-76900000D03*
X157200000Y-78750000D03*
X147700000Y-81750000D03*
X153700000Y-79350000D03*
X158850000Y-88150000D03*
X143925000Y-78975000D03*
X147000000Y-76000000D03*
X155575000Y-83025000D03*
X147950000Y-83400000D03*
X151650000Y-79000000D03*
X155517203Y-75474635D03*
X149740000Y-77140000D03*
X153157538Y-83442462D03*
%TO.N,+5V*%
X166050000Y-74850000D03*
X153730000Y-88060000D03*
X151450000Y-81850000D03*
%TO.N,Net-(U2-PD0)*%
X152500000Y-81000000D03*
X147000000Y-77960000D03*
%TD*%
D39*
%TO.N,+BATT1*%
X167225000Y-88550000D02*
X167225000Y-86550000D01*
X167225000Y-86550000D02*
X167925000Y-85850000D01*
D40*
%TO.N,Net-(BZ1--)*%
X161750000Y-75500000D02*
X162500000Y-75500000D01*
X154550000Y-82050000D02*
X155200000Y-82050000D01*
X155200000Y-82050000D02*
X161750000Y-75500000D01*
X153900000Y-82700000D02*
X154550000Y-82050000D01*
%TO.N,Net-(BZ1-+)*%
X155005000Y-87020000D02*
X155000000Y-87025000D01*
X162450000Y-87050000D02*
X162500000Y-87000000D01*
X162480000Y-87020000D02*
X162500000Y-87000000D01*
X155190000Y-87020000D02*
X162480000Y-87020000D01*
%TO.N,+5V*%
X152768629Y-82346446D02*
X151622183Y-81200000D01*
X153730000Y-88060000D02*
X153730000Y-87240000D01*
X153730000Y-87240000D02*
X153740000Y-87230000D01*
D41*
%TO.N,Net-(D1-A)*%
X144375000Y-77900000D02*
X144375000Y-76250000D01*
D40*
X144375000Y-76250000D02*
X144425000Y-76200000D01*
%TO.N,Net-(JP1-B)*%
X152560000Y-87527496D02*
X152500000Y-87467496D01*
X153740000Y-86210000D02*
X153740000Y-85750000D01*
X153669505Y-85279505D02*
X154464112Y-84484899D01*
X154464112Y-84041929D02*
X154253554Y-83831371D01*
X152500000Y-87467496D02*
X152500000Y-86449011D01*
X153740000Y-85750000D02*
X153469505Y-85479505D01*
X154464112Y-84484899D02*
X154464112Y-84041929D01*
X153469505Y-85479505D02*
X153669505Y-85279505D01*
X152500000Y-86449011D02*
X153469505Y-85479505D01*
D42*
%TO.N,Net-(U2-PD0)*%
X147000000Y-77960000D02*
X146085000Y-77960000D01*
D40*
X153546447Y-82346446D02*
X153546447Y-82046447D01*
X153546447Y-82046447D02*
X152500000Y-81000000D01*
X146085000Y-77960000D02*
X146025000Y-77900000D01*
%TO.N,Net-(U2-PA1)*%
X154253554Y-83053553D02*
X155190000Y-83989999D01*
X155190000Y-83989999D02*
X155190000Y-85370000D01*
%TO.N,Net-(U2-PC6)*%
X151450000Y-85150000D02*
X146395000Y-85150000D01*
X152415076Y-84184924D02*
X151450000Y-85150000D01*
X145190000Y-86355000D02*
X145190000Y-86990000D01*
X146395000Y-85150000D02*
X145190000Y-86355000D01*
%TO.N,Net-(U2-PC7)*%
X146460000Y-86540000D02*
X146460000Y-86990000D01*
X152768629Y-84538478D02*
X151207107Y-86100000D01*
X146900000Y-86100000D02*
X146460000Y-86540000D01*
X151207107Y-86100000D02*
X146900000Y-86100000D01*
%TO.N,Net-(U2-PC4)*%
X152061522Y-83831371D02*
X151616893Y-84276000D01*
X151616893Y-84276000D02*
X145999000Y-84276000D01*
X143920000Y-86355000D02*
X143920000Y-86990000D01*
X145999000Y-84276000D02*
X143920000Y-86355000D01*
%TO.N,/SWIO*%
X153546447Y-84538478D02*
X149774925Y-88310000D01*
X149774925Y-88310000D02*
X149764925Y-88300000D01*
X148300000Y-88300000D02*
X145565001Y-88300000D01*
X145565001Y-88300000D02*
X145040000Y-88825001D01*
X149764925Y-88300000D02*
X148300000Y-88300000D01*
X145040000Y-88825001D02*
X145040000Y-89600000D01*
%TD*%
%TA.AperFunction,Conductor*%
%TO.N,GND*%
G36*
X151078636Y-86419407D02*
G01*
X151114600Y-86468907D01*
X151114600Y-86530093D01*
X151090449Y-86569504D01*
X149689450Y-87970504D01*
X149634933Y-87998281D01*
X149619446Y-87999500D01*
X148815479Y-87999500D01*
X148757288Y-87980593D01*
X148745477Y-87970505D01*
X148722766Y-87947795D01*
X148722765Y-87947794D01*
X148619991Y-87902415D01*
X148619990Y-87902414D01*
X148619988Y-87902414D01*
X148594868Y-87899500D01*
X148005139Y-87899500D01*
X148005136Y-87899501D01*
X147980009Y-87902414D01*
X147877233Y-87947795D01*
X147854523Y-87970505D01*
X147800006Y-87998281D01*
X147784521Y-87999500D01*
X146869139Y-87999500D01*
X146810948Y-87980593D01*
X146774984Y-87931093D01*
X146774984Y-87869907D01*
X146810948Y-87820407D01*
X146827296Y-87810776D01*
X146909173Y-87772598D01*
X146987598Y-87694173D01*
X147034470Y-87593654D01*
X147040500Y-87547853D01*
X147040499Y-86499499D01*
X147059406Y-86441309D01*
X147108906Y-86405345D01*
X147139499Y-86400500D01*
X151020445Y-86400500D01*
X151078636Y-86419407D01*
G37*
%TD.AperFunction*%
%TA.AperFunction,Conductor*%
G36*
X153202483Y-82731289D02*
G01*
X153227538Y-82749492D01*
X153234967Y-82756921D01*
X153301631Y-82801467D01*
X153326380Y-82811719D01*
X153326384Y-82811719D01*
X153326387Y-82811721D01*
X153368762Y-82821392D01*
X153421287Y-82852772D01*
X153443832Y-82898595D01*
X153451901Y-82939158D01*
X153451903Y-82939164D01*
X153486841Y-82991451D01*
X153493291Y-83001104D01*
X153598896Y-83106709D01*
X153660838Y-83148098D01*
X153703798Y-83156643D01*
X153757181Y-83186538D01*
X153782084Y-83237154D01*
X153788280Y-83273619D01*
X153788281Y-83273622D01*
X153798531Y-83298365D01*
X153798530Y-83298365D01*
X153798533Y-83298369D01*
X153843079Y-83365033D01*
X153850506Y-83372460D01*
X153878282Y-83426975D01*
X153868711Y-83487407D01*
X153850507Y-83512462D01*
X153843079Y-83519891D01*
X153843078Y-83519892D01*
X153798532Y-83586556D01*
X153788282Y-83611300D01*
X153788279Y-83611307D01*
X153778607Y-83653688D01*
X153747225Y-83706213D01*
X153701405Y-83728756D01*
X153660841Y-83736825D01*
X153660835Y-83736827D01*
X153598899Y-83778212D01*
X153493288Y-83883823D01*
X153451903Y-83945759D01*
X153451901Y-83945765D01*
X153443356Y-83988722D01*
X153413459Y-84042106D01*
X153362845Y-84067008D01*
X153326380Y-84073204D01*
X153326377Y-84073205D01*
X153301634Y-84083455D01*
X153301631Y-84083456D01*
X153301631Y-84083457D01*
X153234967Y-84128003D01*
X153227539Y-84135430D01*
X153173025Y-84163206D01*
X153112593Y-84153635D01*
X153087537Y-84135431D01*
X153080109Y-84128003D01*
X153013445Y-84083457D01*
X153013443Y-84083456D01*
X152988699Y-84073206D01*
X152988692Y-84073203D01*
X152946311Y-84063531D01*
X152893787Y-84032150D01*
X152871243Y-83986330D01*
X152863174Y-83945762D01*
X152821785Y-83883820D01*
X152716180Y-83778215D01*
X152654238Y-83736826D01*
X152611275Y-83728280D01*
X152557893Y-83698384D01*
X152532991Y-83647767D01*
X152531903Y-83641369D01*
X152526795Y-83611304D01*
X152526793Y-83611300D01*
X152516544Y-83586558D01*
X152516545Y-83586558D01*
X152516543Y-83586555D01*
X152471997Y-83519891D01*
X152464569Y-83512463D01*
X152436794Y-83457949D01*
X152446365Y-83397517D01*
X152464568Y-83372461D01*
X152471997Y-83365033D01*
X152516543Y-83298369D01*
X152526795Y-83273620D01*
X152536468Y-83231234D01*
X152567848Y-83178712D01*
X152613669Y-83156167D01*
X152654238Y-83148098D01*
X152716180Y-83106709D01*
X152821785Y-83001104D01*
X152863174Y-82939162D01*
X152871719Y-82896199D01*
X152901614Y-82842819D01*
X152952233Y-82817915D01*
X152988692Y-82811720D01*
X152988693Y-82811719D01*
X152988696Y-82811719D01*
X153013445Y-82801467D01*
X153080109Y-82756921D01*
X153087536Y-82749493D01*
X153142051Y-82721718D01*
X153202483Y-82731289D01*
G37*
%TD.AperFunction*%
%TA.AperFunction,Conductor*%
G36*
X168490898Y-73454111D02*
G01*
X168551232Y-73454109D01*
X168562310Y-73454730D01*
X168656857Y-73465382D01*
X168678467Y-73470314D01*
X168762990Y-73499889D01*
X168782962Y-73509507D01*
X168858778Y-73557144D01*
X168876111Y-73570966D01*
X168939428Y-73634282D01*
X168953250Y-73651615D01*
X169000890Y-73727433D01*
X169010510Y-73747408D01*
X169040083Y-73831927D01*
X169045016Y-73853539D01*
X169055657Y-73947984D01*
X169056279Y-73959068D01*
X169056279Y-74027469D01*
X169056280Y-74027482D01*
X169056280Y-93948047D01*
X169055657Y-93959133D01*
X169045005Y-94053663D01*
X169040072Y-94075276D01*
X169010496Y-94159794D01*
X169000877Y-94179767D01*
X168953239Y-94255580D01*
X168939418Y-94272912D01*
X168907760Y-94304570D01*
X168876099Y-94336230D01*
X168858774Y-94350045D01*
X168806992Y-94382582D01*
X168782955Y-94397685D01*
X168762981Y-94407303D01*
X168678466Y-94436874D01*
X168656853Y-94441807D01*
X168562058Y-94452486D01*
X168550974Y-94453108D01*
X168497565Y-94453107D01*
X168490898Y-94453107D01*
X168490897Y-94453107D01*
X168484015Y-94453107D01*
X168483987Y-94453109D01*
X148192001Y-94453109D01*
X148133810Y-94434202D01*
X148097846Y-94384702D01*
X148097846Y-94323516D01*
X148098556Y-94321412D01*
X148115363Y-94273380D01*
X148137646Y-94209699D01*
X148140499Y-94179273D01*
X148140500Y-94179273D01*
X148140500Y-92770727D01*
X148140499Y-92770725D01*
X148137646Y-92740305D01*
X148137646Y-92740301D01*
X148092793Y-92612118D01*
X148022719Y-92517171D01*
X148012154Y-92502855D01*
X148012152Y-92502853D01*
X148012150Y-92502850D01*
X148012146Y-92502847D01*
X148012144Y-92502845D01*
X147902883Y-92422207D01*
X147774703Y-92377355D01*
X147774694Y-92377353D01*
X147744274Y-92374500D01*
X147744266Y-92374500D01*
X146935734Y-92374500D01*
X146935725Y-92374500D01*
X146905305Y-92377353D01*
X146905296Y-92377355D01*
X146777116Y-92422207D01*
X146667855Y-92502845D01*
X146667845Y-92502855D01*
X146587207Y-92612116D01*
X146542355Y-92740296D01*
X146542353Y-92740305D01*
X146539500Y-92770725D01*
X146539500Y-94179274D01*
X146542353Y-94209694D01*
X146542353Y-94209697D01*
X146542354Y-94209699D01*
X146561714Y-94265026D01*
X146581444Y-94321412D01*
X146582816Y-94382582D01*
X146547972Y-94432876D01*
X146490220Y-94453084D01*
X146487999Y-94453109D01*
X144592001Y-94453109D01*
X144533810Y-94434202D01*
X144497846Y-94384702D01*
X144497846Y-94323516D01*
X144498556Y-94321412D01*
X144515363Y-94273380D01*
X144537646Y-94209699D01*
X144540499Y-94179273D01*
X144540500Y-94179273D01*
X144540500Y-92770727D01*
X144540499Y-92770725D01*
X144537646Y-92740305D01*
X144537646Y-92740301D01*
X144492793Y-92612118D01*
X144422719Y-92517171D01*
X144412154Y-92502855D01*
X144412152Y-92502853D01*
X144412150Y-92502850D01*
X144412146Y-92502847D01*
X144412144Y-92502845D01*
X144302883Y-92422207D01*
X144174703Y-92377355D01*
X144174694Y-92377353D01*
X144144274Y-92374500D01*
X144144266Y-92374500D01*
X143335734Y-92374500D01*
X143335725Y-92374500D01*
X143305305Y-92377353D01*
X143305301Y-92377354D01*
X143188977Y-92418057D01*
X143127807Y-92419429D01*
X143077513Y-92384585D01*
X143057305Y-92326833D01*
X143057280Y-92324612D01*
X143057280Y-86432148D01*
X143339500Y-86432148D01*
X143339500Y-87547848D01*
X143339501Y-87547858D01*
X143345529Y-87593651D01*
X143345529Y-87593652D01*
X143345530Y-87593654D01*
X143392402Y-87694173D01*
X143470827Y-87772598D01*
X143571346Y-87819470D01*
X143617147Y-87825500D01*
X144222852Y-87825499D01*
X144268654Y-87819470D01*
X144369173Y-87772598D01*
X144447598Y-87694173D01*
X144465275Y-87656262D01*
X144507003Y-87611515D01*
X144567065Y-87599840D01*
X144622518Y-87625698D01*
X144644723Y-87656261D01*
X144662402Y-87694173D01*
X144740827Y-87772598D01*
X144841346Y-87819470D01*
X144887147Y-87825500D01*
X144949262Y-87825499D01*
X145003043Y-87841380D01*
X145261846Y-88008841D01*
X145300429Y-88056326D01*
X145303732Y-88117422D01*
X145278067Y-88161961D01*
X145043483Y-88396545D01*
X145043482Y-88396544D01*
X145039367Y-88400658D01*
X145016859Y-88418426D01*
X144989321Y-88450706D01*
X144986543Y-88453485D01*
X144855490Y-88584540D01*
X144855488Y-88584542D01*
X144830544Y-88609485D01*
X144795345Y-88630707D01*
X144795513Y-88631051D01*
X144791616Y-88632955D01*
X144789777Y-88634065D01*
X144788609Y-88634425D01*
X144683518Y-88685801D01*
X144600801Y-88768518D01*
X144549427Y-88873604D01*
X144549427Y-88873607D01*
X144539500Y-88941740D01*
X144539500Y-90258260D01*
X144546118Y-90303682D01*
X144549427Y-90326395D01*
X144600801Y-90431481D01*
X144600802Y-90431483D01*
X144683517Y-90514198D01*
X144737285Y-90540483D01*
X144788604Y-90565572D01*
X144788605Y-90565572D01*
X144788607Y-90565573D01*
X144856740Y-90575500D01*
X144856743Y-90575500D01*
X145223257Y-90575500D01*
X145223260Y-90575500D01*
X145291393Y-90565573D01*
X145396483Y-90514198D01*
X145479198Y-90431483D01*
X145530573Y-90326393D01*
X145540500Y-90258260D01*
X145540500Y-88941740D01*
X145530573Y-88873607D01*
X145528805Y-88869991D01*
X145524117Y-88860400D01*
X145519939Y-88830872D01*
X145515277Y-88801433D01*
X145515666Y-88800668D01*
X145515546Y-88799818D01*
X145543055Y-88746916D01*
X145592387Y-88697585D01*
X145660476Y-88629496D01*
X145714992Y-88601719D01*
X145730479Y-88600500D01*
X147784521Y-88600500D01*
X147842712Y-88619407D01*
X147854523Y-88629495D01*
X147877233Y-88652204D01*
X147877235Y-88652206D01*
X147980009Y-88697585D01*
X148005135Y-88700500D01*
X148594864Y-88700499D01*
X148619991Y-88697585D01*
X148722765Y-88652206D01*
X148734121Y-88640849D01*
X148745477Y-88629495D01*
X148799994Y-88601719D01*
X148815479Y-88600500D01*
X149685011Y-88600500D01*
X149710634Y-88603873D01*
X149735363Y-88610500D01*
X149814488Y-88610500D01*
X149814488Y-88610499D01*
X149890913Y-88590021D01*
X149959436Y-88550460D01*
X150015385Y-88494511D01*
X152030496Y-86479398D01*
X152051151Y-86468874D01*
X152069907Y-86455248D01*
X152077896Y-86455248D01*
X152085013Y-86451622D01*
X152107908Y-86455248D01*
X152131093Y-86455248D01*
X152137555Y-86459943D01*
X152145445Y-86461193D01*
X152161836Y-86477584D01*
X152180593Y-86491212D01*
X152183061Y-86498809D01*
X152188710Y-86504458D01*
X152199500Y-86549403D01*
X152199500Y-86691494D01*
X152180593Y-86749685D01*
X152177901Y-86753219D01*
X152114849Y-86832283D01*
X152114848Y-86832284D01*
X152094498Y-86921448D01*
X152094499Y-88121444D01*
X152094500Y-88121447D01*
X152110785Y-88201622D01*
X152155926Y-88264166D01*
X152164309Y-88275780D01*
X152244709Y-88319370D01*
X152336060Y-88323759D01*
X152368449Y-88317986D01*
X152387850Y-88313550D01*
X152451204Y-88295793D01*
X152472234Y-88288652D01*
X152533301Y-88264162D01*
X152553439Y-88254792D01*
X152611507Y-88223854D01*
X152630513Y-88212368D01*
X152684903Y-88175345D01*
X152702562Y-88161873D01*
X152752639Y-88119196D01*
X152768738Y-88103900D01*
X152813917Y-88056069D01*
X152828274Y-88039121D01*
X152851235Y-88008839D01*
X152867999Y-87986731D01*
X152868012Y-87986712D01*
X152868027Y-87986693D01*
X152880470Y-87968296D01*
X152914333Y-87911884D01*
X152924717Y-87892255D01*
X152952295Y-87832519D01*
X152960500Y-87811882D01*
X152981471Y-87749518D01*
X152987403Y-87728111D01*
X153001520Y-87663848D01*
X153005106Y-87641935D01*
X153012207Y-87576525D01*
X153013406Y-87554357D01*
X153013407Y-87554357D01*
X153013407Y-87488538D01*
X153013406Y-87488537D01*
X153013349Y-87487488D01*
X153012207Y-87466371D01*
X153005106Y-87400961D01*
X153001520Y-87379048D01*
X152988890Y-87321555D01*
X152987406Y-87314798D01*
X152987405Y-87314795D01*
X152987403Y-87314785D01*
X152981471Y-87293378D01*
X152960500Y-87231014D01*
X152952295Y-87210377D01*
X152924717Y-87150641D01*
X152914333Y-87131012D01*
X152880470Y-87074600D01*
X152868027Y-87056203D01*
X152868024Y-87056199D01*
X152867999Y-87056164D01*
X152828279Y-87003781D01*
X152823958Y-86998680D01*
X152800774Y-86942057D01*
X152800500Y-86934692D01*
X152800500Y-86614489D01*
X152819407Y-86556298D01*
X152829496Y-86544486D01*
X153050860Y-86323121D01*
X153105377Y-86295343D01*
X153165809Y-86304914D01*
X153209074Y-86348179D01*
X153218177Y-86381220D01*
X153219077Y-86381102D01*
X153219500Y-86384314D01*
X153219500Y-86384316D01*
X153221631Y-86400500D01*
X153225932Y-86433174D01*
X153225932Y-86433175D01*
X153275933Y-86540401D01*
X153275934Y-86540402D01*
X153275935Y-86540404D01*
X153359596Y-86624065D01*
X153359597Y-86624065D01*
X153359598Y-86624066D01*
X153372915Y-86630276D01*
X153417663Y-86672005D01*
X153429337Y-86732066D01*
X153403478Y-86787518D01*
X153372915Y-86809724D01*
X153359598Y-86815933D01*
X153275933Y-86899598D01*
X153225932Y-87006824D01*
X153225932Y-87006825D01*
X153219500Y-87055685D01*
X153219500Y-87404314D01*
X153225932Y-87453174D01*
X153225932Y-87453175D01*
X153275933Y-87560401D01*
X153275934Y-87560402D01*
X153275935Y-87560404D01*
X153328856Y-87613325D01*
X153356632Y-87667840D01*
X153347061Y-87728272D01*
X153333204Y-87747346D01*
X153333451Y-87747536D01*
X153329500Y-87752684D01*
X153263609Y-87866809D01*
X153254069Y-87902414D01*
X153229500Y-87994108D01*
X153229500Y-88125892D01*
X153252671Y-88212368D01*
X153263609Y-88253190D01*
X153329496Y-88367309D01*
X153329498Y-88367311D01*
X153329500Y-88367314D01*
X153422686Y-88460500D01*
X153422688Y-88460501D01*
X153422690Y-88460503D01*
X153536810Y-88526390D01*
X153536808Y-88526390D01*
X153536812Y-88526391D01*
X153536814Y-88526392D01*
X153664108Y-88560500D01*
X153664110Y-88560500D01*
X153795890Y-88560500D01*
X153795892Y-88560500D01*
X153923186Y-88526392D01*
X153923188Y-88526390D01*
X153923190Y-88526390D01*
X154037309Y-88460503D01*
X154037309Y-88460502D01*
X154037314Y-88460500D01*
X154130500Y-88367314D01*
X154161541Y-88313550D01*
X154196390Y-88253190D01*
X154196390Y-88253188D01*
X154196392Y-88253186D01*
X154230500Y-88125892D01*
X154230500Y-87994108D01*
X154196392Y-87866814D01*
X154196390Y-87866811D01*
X154196390Y-87866809D01*
X154127256Y-87747066D01*
X154128881Y-87746127D01*
X154111385Y-87696713D01*
X154128764Y-87638048D01*
X154140343Y-87624125D01*
X154204065Y-87560404D01*
X154254068Y-87453173D01*
X154260500Y-87404316D01*
X154260500Y-87055684D01*
X154254068Y-87006827D01*
X154204065Y-86899596D01*
X154120404Y-86815935D01*
X154096172Y-86804635D01*
X154086800Y-86797082D01*
X154081183Y-86788477D01*
X154514500Y-86788477D01*
X154514500Y-87251520D01*
X154514501Y-87251523D01*
X154529352Y-87345299D01*
X154529354Y-87345304D01*
X154586950Y-87458342D01*
X154676658Y-87548050D01*
X154789696Y-87605646D01*
X154883481Y-87620500D01*
X155496518Y-87620499D01*
X155496520Y-87620499D01*
X155496521Y-87620498D01*
X155543411Y-87613072D01*
X155590299Y-87605647D01*
X155590299Y-87605646D01*
X155590304Y-87605646D01*
X155703342Y-87548050D01*
X155793050Y-87458342D01*
X155835742Y-87374553D01*
X155879006Y-87331290D01*
X155923951Y-87320500D01*
X159752748Y-87320500D01*
X159767164Y-87321555D01*
X159776283Y-87322897D01*
X159782375Y-87324996D01*
X159892435Y-87339993D01*
X159892925Y-87340065D01*
X159893195Y-87340199D01*
X159906539Y-87343061D01*
X159965847Y-87360572D01*
X159974801Y-87363690D01*
X160046272Y-87392492D01*
X160054980Y-87396503D01*
X160069976Y-87404314D01*
X160121225Y-87431006D01*
X160130446Y-87436462D01*
X160153609Y-87451919D01*
X160167107Y-87460927D01*
X160205015Y-87508955D01*
X160210119Y-87528998D01*
X160210275Y-87530068D01*
X160210276Y-87530072D01*
X160266049Y-87644157D01*
X160355843Y-87733951D01*
X160469928Y-87789724D01*
X160543890Y-87800500D01*
X160543893Y-87800500D01*
X164456106Y-87800500D01*
X164456110Y-87800500D01*
X164530072Y-87789724D01*
X164644157Y-87733951D01*
X164733951Y-87644157D01*
X164789724Y-87530072D01*
X164800500Y-87456110D01*
X164800500Y-86543890D01*
X164793708Y-86497270D01*
X166824500Y-86497270D01*
X166824500Y-88844861D01*
X166824501Y-88844864D01*
X166827414Y-88869990D01*
X166852756Y-88927385D01*
X166872794Y-88972765D01*
X166952235Y-89052206D01*
X167055009Y-89097585D01*
X167080135Y-89100500D01*
X167369864Y-89100499D01*
X167394991Y-89097585D01*
X167497765Y-89052206D01*
X167577206Y-88972765D01*
X167622585Y-88869991D01*
X167625500Y-88844865D01*
X167625500Y-88550460D01*
X167625500Y-86756899D01*
X167627968Y-86749301D01*
X167626719Y-86741412D01*
X167637242Y-86720757D01*
X167644407Y-86698708D01*
X167654491Y-86686901D01*
X167766933Y-86574458D01*
X167784859Y-86560267D01*
X167794604Y-86554242D01*
X167873694Y-86480531D01*
X167881575Y-86473917D01*
X167931849Y-86436012D01*
X167941093Y-86429827D01*
X167958573Y-86419501D01*
X168015494Y-86385876D01*
X168017474Y-86384691D01*
X168187749Y-86281506D01*
X168191547Y-86279147D01*
X168191951Y-86278890D01*
X168195886Y-86275054D01*
X168215482Y-86260217D01*
X168232314Y-86250500D01*
X168325500Y-86157314D01*
X168329316Y-86150705D01*
X168391390Y-86043190D01*
X168391390Y-86043188D01*
X168391392Y-86043186D01*
X168425500Y-85915892D01*
X168425500Y-85784108D01*
X168425500Y-85777618D01*
X168425723Y-85777618D01*
X168425835Y-85758434D01*
X168430500Y-85726000D01*
X168430500Y-81974000D01*
X168426066Y-81932768D01*
X168425500Y-81922191D01*
X168425500Y-81784108D01*
X168411539Y-81732004D01*
X168391392Y-81656814D01*
X168391390Y-81656811D01*
X168391390Y-81656809D01*
X168325503Y-81542690D01*
X168325501Y-81542688D01*
X168325500Y-81542686D01*
X168232314Y-81449500D01*
X168232311Y-81449498D01*
X168232309Y-81449496D01*
X168118189Y-81383609D01*
X168118191Y-81383609D01*
X168068799Y-81370375D01*
X167990892Y-81349500D01*
X167859108Y-81349500D01*
X167781200Y-81370375D01*
X167731809Y-81383609D01*
X167617690Y-81449496D01*
X167524496Y-81542690D01*
X167458609Y-81656809D01*
X167424500Y-81784108D01*
X167424500Y-81922380D01*
X167424277Y-81922380D01*
X167424163Y-81941566D01*
X167419500Y-81973995D01*
X167419500Y-85681697D01*
X167405166Y-85733006D01*
X167390887Y-85756568D01*
X167390521Y-85757167D01*
X167332542Y-85851327D01*
X167322378Y-85865030D01*
X167216801Y-85984324D01*
X167216797Y-85984330D01*
X167211608Y-85992920D01*
X167196876Y-86011729D01*
X166904520Y-86304086D01*
X166904516Y-86304091D01*
X166851794Y-86395408D01*
X166851792Y-86395412D01*
X166837042Y-86450457D01*
X166837043Y-86450458D01*
X166824500Y-86497270D01*
X164793708Y-86497270D01*
X164789724Y-86469928D01*
X164733951Y-86355843D01*
X164644157Y-86266049D01*
X164640988Y-86264500D01*
X164612351Y-86250500D01*
X164530072Y-86210276D01*
X164456110Y-86199500D01*
X160543890Y-86199500D01*
X160481768Y-86208551D01*
X160469928Y-86210276D01*
X160355844Y-86266048D01*
X160266048Y-86355844D01*
X160210275Y-86469930D01*
X160208140Y-86484583D01*
X160206558Y-86487784D01*
X160206915Y-86491339D01*
X160193143Y-86514938D01*
X160181039Y-86539439D01*
X160176076Y-86544185D01*
X160133513Y-86582152D01*
X160116745Y-86594221D01*
X160015676Y-86651998D01*
X159998491Y-86659754D01*
X159877723Y-86700929D01*
X159858266Y-86705434D01*
X159784294Y-86714842D01*
X159784291Y-86714842D01*
X159782667Y-86715330D01*
X159780484Y-86715650D01*
X159780306Y-86715688D01*
X159780303Y-86715676D01*
X159754238Y-86719500D01*
X155923951Y-86719500D01*
X155865760Y-86700593D01*
X155835742Y-86665447D01*
X155793050Y-86581658D01*
X155703342Y-86491950D01*
X155590304Y-86434354D01*
X155590305Y-86434354D01*
X155496522Y-86419500D01*
X154883479Y-86419500D01*
X154883476Y-86419501D01*
X154789700Y-86434352D01*
X154789695Y-86434354D01*
X154676659Y-86491949D01*
X154586949Y-86581659D01*
X154529354Y-86694695D01*
X154514500Y-86788477D01*
X154081183Y-86788477D01*
X154076336Y-86781051D01*
X154062337Y-86767997D01*
X154060013Y-86756042D01*
X154053357Y-86745845D01*
X154054314Y-86726725D01*
X154050662Y-86707936D01*
X154055807Y-86696900D01*
X154056417Y-86684736D01*
X154068429Y-86669830D01*
X154076519Y-86652483D01*
X154090736Y-86642153D01*
X154094812Y-86637097D01*
X154099406Y-86635854D01*
X154107084Y-86630275D01*
X154120404Y-86624065D01*
X154204065Y-86540404D01*
X154254068Y-86433173D01*
X154260500Y-86384316D01*
X154260500Y-86035684D01*
X154254068Y-85986827D01*
X154252903Y-85984329D01*
X154204066Y-85879598D01*
X154204065Y-85879597D01*
X154204065Y-85879596D01*
X154120404Y-85795935D01*
X154120402Y-85795934D01*
X154120401Y-85795933D01*
X154096488Y-85784782D01*
X154051741Y-85743053D01*
X154042982Y-85716488D01*
X154042179Y-85716704D01*
X154031823Y-85678052D01*
X154031823Y-85678051D01*
X154020022Y-85634012D01*
X154020020Y-85634008D01*
X153980463Y-85565493D01*
X153980461Y-85565491D01*
X153980460Y-85565489D01*
X153964476Y-85549505D01*
X153936701Y-85494991D01*
X153946272Y-85434559D01*
X153964475Y-85409504D01*
X154351558Y-85022422D01*
X154406072Y-84994647D01*
X154466504Y-85004218D01*
X154509769Y-85047483D01*
X154519340Y-85107913D01*
X154514500Y-85138474D01*
X154514500Y-85601520D01*
X154514501Y-85601523D01*
X154529352Y-85695299D01*
X154529354Y-85695304D01*
X154586950Y-85808342D01*
X154676658Y-85898050D01*
X154789696Y-85955646D01*
X154883481Y-85970500D01*
X155496518Y-85970499D01*
X155496520Y-85970499D01*
X155496521Y-85970498D01*
X155543411Y-85963072D01*
X155590299Y-85955647D01*
X155590299Y-85955646D01*
X155590304Y-85955646D01*
X155703342Y-85898050D01*
X155793050Y-85808342D01*
X155850646Y-85695304D01*
X155865500Y-85601519D01*
X155865499Y-85138482D01*
X155860658Y-85107913D01*
X155850647Y-85044700D01*
X155850646Y-85044698D01*
X155850646Y-85044696D01*
X155793050Y-84931658D01*
X155703342Y-84841950D01*
X155590304Y-84784354D01*
X155590306Y-84784354D01*
X155574010Y-84781773D01*
X155519494Y-84753993D01*
X155491718Y-84699476D01*
X155490500Y-84683992D01*
X155490500Y-83950436D01*
X155483410Y-83923979D01*
X155483409Y-83923975D01*
X155470023Y-83874016D01*
X155470023Y-83874014D01*
X155470022Y-83874013D01*
X155470022Y-83874011D01*
X155430460Y-83805488D01*
X154735409Y-83110437D01*
X154707632Y-83055920D01*
X154713952Y-83002542D01*
X154718825Y-82990780D01*
X154730607Y-82939164D01*
X154734148Y-82923652D01*
X154734148Y-82923650D01*
X154718827Y-82833487D01*
X154718826Y-82833483D01*
X154709811Y-82811721D01*
X154708576Y-82808740D01*
X154708577Y-82808740D01*
X154703717Y-82801467D01*
X154664029Y-82742073D01*
X154565034Y-82643078D01*
X154555546Y-82636738D01*
X154540044Y-82617072D01*
X154522341Y-82599369D01*
X154521398Y-82593419D01*
X154517669Y-82588688D01*
X154516686Y-82563668D01*
X154512770Y-82538937D01*
X154515505Y-82533568D01*
X154515269Y-82527550D01*
X154540545Y-82484424D01*
X154645475Y-82379496D01*
X154699992Y-82351719D01*
X154715478Y-82350500D01*
X155239563Y-82350500D01*
X155239563Y-82350499D01*
X155315989Y-82330021D01*
X155384511Y-82290460D01*
X155440460Y-82234511D01*
X161408879Y-76266090D01*
X161417350Y-76258542D01*
X161424473Y-76252891D01*
X161434460Y-76247598D01*
X161555454Y-76148992D01*
X161555927Y-76148618D01*
X161556296Y-76148480D01*
X161568092Y-76140362D01*
X161745746Y-76038213D01*
X161757578Y-76032422D01*
X162005815Y-75930826D01*
X162014358Y-75927780D01*
X162148417Y-75886804D01*
X162154298Y-75885202D01*
X162296875Y-75851067D01*
X162302979Y-75849807D01*
X162441884Y-75825686D01*
X162448427Y-75824774D01*
X162585778Y-75810300D01*
X162592595Y-75809821D01*
X162676570Y-75806849D01*
X162691090Y-75806335D01*
X162691091Y-75806336D01*
X162702472Y-75805934D01*
X162733291Y-75802504D01*
X162734846Y-75802210D01*
X162753172Y-75800500D01*
X164456106Y-75800500D01*
X164456110Y-75800500D01*
X164530072Y-75789724D01*
X164644157Y-75733951D01*
X164733951Y-75644157D01*
X164789724Y-75530072D01*
X164800500Y-75456110D01*
X164800500Y-74784108D01*
X165549500Y-74784108D01*
X165549500Y-74915892D01*
X165571174Y-74996780D01*
X165583609Y-75043190D01*
X165649496Y-75157309D01*
X165649498Y-75157311D01*
X165649500Y-75157314D01*
X165742686Y-75250500D01*
X165742688Y-75250501D01*
X165742690Y-75250503D01*
X165856810Y-75316390D01*
X165856808Y-75316390D01*
X165856812Y-75316391D01*
X165856814Y-75316392D01*
X165984108Y-75350500D01*
X165984110Y-75350500D01*
X166115890Y-75350500D01*
X166115892Y-75350500D01*
X166243186Y-75316392D01*
X166243188Y-75316390D01*
X166243190Y-75316390D01*
X166357309Y-75250503D01*
X166357309Y-75250502D01*
X166357314Y-75250500D01*
X166450500Y-75157314D01*
X166484348Y-75098688D01*
X166516390Y-75043190D01*
X166516390Y-75043188D01*
X166516392Y-75043186D01*
X166550500Y-74915892D01*
X166550500Y-74784108D01*
X166516392Y-74656814D01*
X166516390Y-74656811D01*
X166516390Y-74656809D01*
X166450503Y-74542690D01*
X166450501Y-74542688D01*
X166450500Y-74542686D01*
X166357314Y-74449500D01*
X166357311Y-74449498D01*
X166357309Y-74449496D01*
X166243189Y-74383609D01*
X166243191Y-74383609D01*
X166193799Y-74370375D01*
X166115892Y-74349500D01*
X165984108Y-74349500D01*
X165906200Y-74370375D01*
X165856809Y-74383609D01*
X165742690Y-74449496D01*
X165649496Y-74542690D01*
X165583609Y-74656809D01*
X165583608Y-74656814D01*
X165549500Y-74784108D01*
X164800500Y-74784108D01*
X164800500Y-74543890D01*
X164789724Y-74469928D01*
X164733951Y-74355843D01*
X164644157Y-74266049D01*
X164530072Y-74210276D01*
X164456110Y-74199500D01*
X160543890Y-74199500D01*
X160469928Y-74210276D01*
X160355844Y-74266048D01*
X160266048Y-74355844D01*
X160252475Y-74383608D01*
X160210276Y-74469928D01*
X160199500Y-74543890D01*
X160199500Y-75456110D01*
X160210276Y-75530072D01*
X160266049Y-75644157D01*
X160355843Y-75733951D01*
X160469928Y-75789724D01*
X160543890Y-75800500D01*
X160785520Y-75800500D01*
X160843711Y-75819407D01*
X160879675Y-75868907D01*
X160879675Y-75930093D01*
X160855524Y-75969504D01*
X155104525Y-81720504D01*
X155050008Y-81748281D01*
X155034521Y-81749500D01*
X154510435Y-81749500D01*
X154434012Y-81769978D01*
X154409539Y-81784108D01*
X154409538Y-81784107D01*
X154365488Y-81809540D01*
X154115576Y-82059451D01*
X154061060Y-82087228D01*
X154000628Y-82077656D01*
X153963259Y-82044450D01*
X153956922Y-82034966D01*
X153857927Y-81935971D01*
X153849464Y-81930316D01*
X153846937Y-81928627D01*
X153831938Y-81916318D01*
X153808895Y-81893275D01*
X153793161Y-81872768D01*
X153786909Y-81861939D01*
X153786908Y-81861938D01*
X153786907Y-81861936D01*
X153656972Y-81732001D01*
X153629197Y-81677487D01*
X153638768Y-81617055D01*
X153682033Y-81573790D01*
X153726978Y-81563000D01*
X153858257Y-81563000D01*
X153858260Y-81563000D01*
X153926393Y-81553073D01*
X153938295Y-81547254D01*
X153977968Y-81537267D01*
X154799465Y-81505672D01*
X154824024Y-81501743D01*
X154839663Y-81500500D01*
X154865890Y-81500500D01*
X154865892Y-81500500D01*
X154993186Y-81466392D01*
X154993188Y-81466390D01*
X154993190Y-81466390D01*
X155107309Y-81400503D01*
X155107309Y-81400502D01*
X155107314Y-81400500D01*
X155200500Y-81307314D01*
X155200503Y-81307309D01*
X155266390Y-81193190D01*
X155266390Y-81193188D01*
X155266392Y-81193186D01*
X155300500Y-81065892D01*
X155300500Y-80934108D01*
X155266392Y-80806814D01*
X155266390Y-80806811D01*
X155266390Y-80806809D01*
X155200503Y-80692690D01*
X155200501Y-80692688D01*
X155200500Y-80692686D01*
X155107314Y-80599500D01*
X155107311Y-80599498D01*
X155049830Y-80566310D01*
X155038798Y-80558911D01*
X154143018Y-79866718D01*
X154119218Y-79837513D01*
X154118965Y-79837694D01*
X154116131Y-79833725D01*
X154114608Y-79831856D01*
X154114198Y-79831018D01*
X154114198Y-79831017D01*
X154031483Y-79748302D01*
X154031481Y-79748301D01*
X153926395Y-79696927D01*
X153899139Y-79692956D01*
X153858260Y-79687000D01*
X153491740Y-79687000D01*
X153452806Y-79692672D01*
X153423604Y-79696927D01*
X153416704Y-79699060D01*
X153393457Y-79698722D01*
X153370444Y-79701994D01*
X153363445Y-79698286D01*
X153355525Y-79698172D01*
X153316376Y-79673355D01*
X153221563Y-79575484D01*
X153194654Y-79520533D01*
X153203728Y-79463121D01*
X153215573Y-79438893D01*
X153225500Y-79370760D01*
X153225500Y-79281644D01*
X153226495Y-79267643D01*
X153268617Y-78972791D01*
X153478187Y-77505792D01*
X153487983Y-77474850D01*
X153523346Y-77405446D01*
X153534719Y-77383126D01*
X153550500Y-77283488D01*
X153550500Y-76716512D01*
X153534719Y-76616874D01*
X153534717Y-76616870D01*
X153534717Y-76616869D01*
X153516290Y-76580703D01*
X153505500Y-76535759D01*
X153505500Y-75964238D01*
X153516291Y-75919292D01*
X153534719Y-75883126D01*
X153547806Y-75800500D01*
X153550500Y-75783490D01*
X153550500Y-75216510D01*
X153541123Y-75157309D01*
X153534719Y-75116874D01*
X153534716Y-75116869D01*
X153534716Y-75116867D01*
X153473529Y-74996782D01*
X153473528Y-74996780D01*
X153378220Y-74901472D01*
X153378217Y-74901470D01*
X153258132Y-74840283D01*
X153258127Y-74840281D01*
X153258126Y-74840281D01*
X153224913Y-74835020D01*
X153158490Y-74824500D01*
X153158488Y-74824500D01*
X152641512Y-74824500D01*
X152641510Y-74824500D01*
X152541874Y-74840281D01*
X152541867Y-74840283D01*
X152421782Y-74901470D01*
X152326470Y-74996782D01*
X152300949Y-75046870D01*
X152257684Y-75090134D01*
X152233662Y-75098688D01*
X151117653Y-75339986D01*
X151081252Y-75341004D01*
X151071753Y-75339500D01*
X151071746Y-75339500D01*
X150568254Y-75339500D01*
X150568251Y-75339500D01*
X150470080Y-75355049D01*
X150470076Y-75355050D01*
X150351750Y-75415341D01*
X150257841Y-75509250D01*
X150197550Y-75627576D01*
X150197549Y-75627580D01*
X150182000Y-75725751D01*
X150182000Y-76554248D01*
X150197549Y-76652419D01*
X150197550Y-76652423D01*
X150230663Y-76717409D01*
X150257842Y-76770751D01*
X150351749Y-76864658D01*
X150351751Y-76864659D01*
X150351752Y-76864660D01*
X150361989Y-76869876D01*
X150405254Y-76913140D01*
X150415971Y-76954257D01*
X150435032Y-77446671D01*
X150418390Y-77505549D01*
X150370318Y-77543401D01*
X150336106Y-77549500D01*
X150229240Y-77549500D01*
X150195173Y-77554463D01*
X150161104Y-77559427D01*
X150056018Y-77610801D01*
X149973301Y-77693518D01*
X149921927Y-77798604D01*
X149917015Y-77832318D01*
X149912000Y-77866740D01*
X149912000Y-78233260D01*
X149916961Y-78267311D01*
X149921927Y-78301395D01*
X149956506Y-78372126D01*
X149973302Y-78406483D01*
X150056017Y-78489198D01*
X150084352Y-78503050D01*
X150161104Y-78540572D01*
X150161105Y-78540572D01*
X150161107Y-78540573D01*
X150229240Y-78550500D01*
X150229243Y-78550500D01*
X151320757Y-78550500D01*
X151320760Y-78550500D01*
X151388893Y-78540573D01*
X151493983Y-78489198D01*
X151576698Y-78406483D01*
X151628073Y-78301393D01*
X151638000Y-78233260D01*
X151638000Y-77866740D01*
X151629818Y-77810585D01*
X151634382Y-77783913D01*
X151636931Y-77756986D01*
X151639486Y-77754088D01*
X151640138Y-77750279D01*
X151659507Y-77731383D01*
X151677399Y-77711095D01*
X151681169Y-77710252D01*
X151683936Y-77707554D01*
X151737108Y-77697754D01*
X151848024Y-77708251D01*
X151904173Y-77732558D01*
X151917657Y-77747095D01*
X152045909Y-77916682D01*
X152064736Y-77960958D01*
X152223289Y-78965121D01*
X152224500Y-78980561D01*
X152224500Y-79370759D01*
X152230140Y-79409472D01*
X152219819Y-79469780D01*
X152194503Y-79500660D01*
X151797296Y-79822534D01*
X151740182Y-79844481D01*
X151681076Y-79828665D01*
X151642555Y-79781128D01*
X151637003Y-79759900D01*
X151628073Y-79698607D01*
X151627916Y-79698286D01*
X151576698Y-79593518D01*
X151576698Y-79593517D01*
X151493983Y-79510802D01*
X151473237Y-79500660D01*
X151388895Y-79459427D01*
X151361639Y-79455456D01*
X151320760Y-79449500D01*
X150229240Y-79449500D01*
X150195173Y-79454463D01*
X150161104Y-79459427D01*
X150056018Y-79510801D01*
X149973301Y-79593518D01*
X149921927Y-79698604D01*
X149918092Y-79724925D01*
X149914687Y-79748302D01*
X149912000Y-79766743D01*
X149912000Y-79937118D01*
X149911868Y-79942232D01*
X149844788Y-81239093D01*
X149844581Y-81244490D01*
X149844580Y-81244521D01*
X149844565Y-81245115D01*
X149844500Y-81250303D01*
X149844500Y-82224473D01*
X149844720Y-82233989D01*
X149844721Y-82234020D01*
X149844768Y-82235032D01*
X149845417Y-82244409D01*
X149949081Y-83367424D01*
X149949500Y-83376524D01*
X149949500Y-83783489D01*
X149961779Y-83861012D01*
X149952208Y-83921444D01*
X149908944Y-83964709D01*
X149863998Y-83975500D01*
X145959435Y-83975500D01*
X145883012Y-83995978D01*
X145848538Y-84015882D01*
X145848537Y-84015881D01*
X145814490Y-84035539D01*
X143989596Y-85860431D01*
X143987635Y-85862338D01*
X143982320Y-85867366D01*
X143961347Y-85882036D01*
X143909071Y-85936588D01*
X143907372Y-85938282D01*
X143907334Y-85938319D01*
X143745695Y-86099586D01*
X143735812Y-86108217D01*
X143706600Y-86130497D01*
X143701721Y-86134219D01*
X143643985Y-86154473D01*
X143641688Y-86154500D01*
X143617152Y-86154500D01*
X143617139Y-86154501D01*
X143571348Y-86160529D01*
X143470827Y-86207402D01*
X143392402Y-86285827D01*
X143345530Y-86386345D01*
X143343029Y-86405345D01*
X143339806Y-86429827D01*
X143339500Y-86432148D01*
X143057280Y-86432148D01*
X143057280Y-79766740D01*
X147637000Y-79766740D01*
X147637000Y-80133260D01*
X147643618Y-80178682D01*
X147646927Y-80201395D01*
X147698301Y-80306481D01*
X147698302Y-80306483D01*
X147781017Y-80389198D01*
X147834785Y-80415483D01*
X147886104Y-80440572D01*
X147886105Y-80440572D01*
X147886107Y-80440573D01*
X147954240Y-80450500D01*
X147954243Y-80450500D01*
X149045757Y-80450500D01*
X149045760Y-80450500D01*
X149113893Y-80440573D01*
X149218983Y-80389198D01*
X149301698Y-80306483D01*
X149353073Y-80201393D01*
X149363000Y-80133260D01*
X149363000Y-79766740D01*
X149353073Y-79698607D01*
X149352916Y-79698286D01*
X149301698Y-79593518D01*
X149301698Y-79593517D01*
X149218983Y-79510802D01*
X149198237Y-79500660D01*
X149113895Y-79459427D01*
X149086639Y-79455456D01*
X149045760Y-79449500D01*
X147954240Y-79449500D01*
X147920173Y-79454463D01*
X147886104Y-79459427D01*
X147781018Y-79510801D01*
X147698301Y-79593518D01*
X147646927Y-79698604D01*
X147643092Y-79724925D01*
X147637000Y-79766740D01*
X143057280Y-79766740D01*
X143057280Y-76170943D01*
X143774500Y-76170943D01*
X143774500Y-76175928D01*
X143774500Y-78206520D01*
X143774501Y-78206523D01*
X143789352Y-78300299D01*
X143789354Y-78300304D01*
X143846950Y-78413342D01*
X143936658Y-78503050D01*
X144049696Y-78560646D01*
X144143481Y-78575500D01*
X144606518Y-78575499D01*
X144606520Y-78575499D01*
X144606521Y-78575498D01*
X144653411Y-78568072D01*
X144700299Y-78560647D01*
X144700299Y-78560646D01*
X144700304Y-78560646D01*
X144813342Y-78503050D01*
X144903050Y-78413342D01*
X144960646Y-78300304D01*
X144975219Y-78208293D01*
X144975500Y-78206521D01*
X144975500Y-77593477D01*
X145424500Y-77593477D01*
X145424500Y-78206520D01*
X145424501Y-78206523D01*
X145439352Y-78300299D01*
X145439354Y-78300304D01*
X145496950Y-78413342D01*
X145586658Y-78503050D01*
X145699696Y-78560646D01*
X145793481Y-78575500D01*
X146256518Y-78575499D01*
X146256520Y-78575499D01*
X146256521Y-78575498D01*
X146303411Y-78568072D01*
X146350299Y-78560647D01*
X146350299Y-78560646D01*
X146350304Y-78560646D01*
X146463342Y-78503050D01*
X146476897Y-78489494D01*
X146531412Y-78461719D01*
X146546899Y-78460500D01*
X147065890Y-78460500D01*
X147065892Y-78460500D01*
X147193186Y-78426392D01*
X147193188Y-78426390D01*
X147193190Y-78426390D01*
X147307309Y-78360503D01*
X147307309Y-78360502D01*
X147307314Y-78360500D01*
X147400500Y-78267314D01*
X147424908Y-78225037D01*
X147470376Y-78184097D01*
X147531226Y-78177701D01*
X147584215Y-78208293D01*
X147596580Y-78225385D01*
X147605304Y-78240638D01*
X147611115Y-78274845D01*
X147614483Y-78282977D01*
X147659033Y-78349653D01*
X147679184Y-78369804D01*
X147685757Y-78381295D01*
X147686187Y-78383362D01*
X147688761Y-78386966D01*
X147698302Y-78406483D01*
X147781017Y-78489198D01*
X147809352Y-78503050D01*
X147886104Y-78540572D01*
X147886105Y-78540572D01*
X147886107Y-78540573D01*
X147954240Y-78550500D01*
X147954243Y-78550500D01*
X149045757Y-78550500D01*
X149045760Y-78550500D01*
X149113893Y-78540573D01*
X149218983Y-78489198D01*
X149301698Y-78406483D01*
X149353073Y-78301393D01*
X149363000Y-78233260D01*
X149363000Y-77866740D01*
X149353073Y-77798607D01*
X149316653Y-77724109D01*
X149306595Y-77680136D01*
X149307245Y-77549500D01*
X149311542Y-76685790D01*
X149316388Y-76655690D01*
X149317449Y-76652423D01*
X149317451Y-76652420D01*
X149323670Y-76613150D01*
X149333000Y-76554249D01*
X149333000Y-75725751D01*
X149320076Y-75644157D01*
X149317451Y-75627580D01*
X149257158Y-75509249D01*
X149163251Y-75415342D01*
X149159131Y-75413243D01*
X149044923Y-75355050D01*
X149044920Y-75355049D01*
X149016198Y-75350500D01*
X148946749Y-75339500D01*
X148946746Y-75339500D01*
X148443254Y-75339500D01*
X148443251Y-75339500D01*
X148345080Y-75355049D01*
X148345076Y-75355050D01*
X148226750Y-75415341D01*
X148132841Y-75509250D01*
X148072550Y-75627576D01*
X148072549Y-75627580D01*
X148057000Y-75725751D01*
X148057000Y-75837916D01*
X148055109Y-75857174D01*
X147688422Y-77706211D01*
X147680254Y-77730434D01*
X147651943Y-77788345D01*
X147609399Y-77832318D01*
X147549134Y-77842888D01*
X147494165Y-77816015D01*
X147467375Y-77770482D01*
X147466392Y-77766814D01*
X147459045Y-77754088D01*
X147400503Y-77652690D01*
X147400501Y-77652688D01*
X147400500Y-77652686D01*
X147307314Y-77559500D01*
X147307311Y-77559498D01*
X147307309Y-77559496D01*
X147193189Y-77493609D01*
X147193191Y-77493609D01*
X147143799Y-77480375D01*
X147065892Y-77459500D01*
X147065890Y-77459500D01*
X146650832Y-77459500D01*
X146592641Y-77440593D01*
X146562623Y-77405446D01*
X146553050Y-77386658D01*
X146463342Y-77296950D01*
X146350304Y-77239354D01*
X146350305Y-77239354D01*
X146256522Y-77224500D01*
X145793479Y-77224500D01*
X145793476Y-77224501D01*
X145699700Y-77239352D01*
X145699695Y-77239354D01*
X145586659Y-77296949D01*
X145496949Y-77386659D01*
X145439354Y-77499695D01*
X145424500Y-77593477D01*
X144975500Y-77593477D01*
X144975500Y-76752397D01*
X144986291Y-76707451D01*
X144987156Y-76705752D01*
X144987158Y-76705751D01*
X145047451Y-76587420D01*
X145063000Y-76489246D01*
X145063000Y-75910754D01*
X145059065Y-75885912D01*
X145054514Y-75857174D01*
X145047451Y-75812580D01*
X144987158Y-75694249D01*
X144893251Y-75600342D01*
X144889131Y-75598243D01*
X144774923Y-75540050D01*
X144774920Y-75540049D01*
X144750376Y-75536161D01*
X144676749Y-75524500D01*
X144676746Y-75524500D01*
X144173254Y-75524500D01*
X144173251Y-75524500D01*
X144075080Y-75540049D01*
X144075076Y-75540050D01*
X143956750Y-75600341D01*
X143862841Y-75694250D01*
X143802550Y-75812576D01*
X143802549Y-75812580D01*
X143787000Y-75910751D01*
X143787000Y-76111257D01*
X143784236Y-76132247D01*
X143784375Y-76133903D01*
X143784020Y-76135412D01*
X143774500Y-76170943D01*
X143057280Y-76170943D01*
X143057280Y-74019500D01*
X143057281Y-74019497D01*
X143057280Y-73959163D01*
X143057902Y-73948083D01*
X143057913Y-73947984D01*
X143068554Y-73853529D01*
X143073485Y-73831926D01*
X143103063Y-73747394D01*
X143112677Y-73727430D01*
X143160322Y-73651602D01*
X143174138Y-73634276D01*
X143237461Y-73570950D01*
X143254787Y-73557132D01*
X143330622Y-73509481D01*
X143350577Y-73499871D01*
X143435116Y-73470287D01*
X143456718Y-73465357D01*
X143551005Y-73454732D01*
X143562091Y-73454109D01*
X168490891Y-73454109D01*
X168490898Y-73454111D01*
G37*
%TD.AperFunction*%
%TD*%
%TA.AperFunction,Conductor*%
%TO.N,/SWIO*%
G36*
X153531568Y-84560144D02*
G01*
X153533725Y-84562464D01*
X153692851Y-84789787D01*
X153694755Y-84798381D01*
X153690025Y-84805803D01*
X153689246Y-84806303D01*
X153030008Y-85192753D01*
X153021289Y-85193960D01*
X153014271Y-85188648D01*
X153013064Y-85179929D01*
X153015275Y-85175571D01*
X153515389Y-84561794D01*
X153523137Y-84557618D01*
X153531568Y-84560144D01*
G37*
%TD.AperFunction*%
%TD*%
%TA.AperFunction,Conductor*%
%TO.N,Net-(U2-PD0)*%
G36*
X153646690Y-82021757D02*
G01*
X153647460Y-82022460D01*
X153790080Y-82165080D01*
X153793448Y-82173212D01*
X153790080Y-82181344D01*
X153788327Y-82182781D01*
X153666082Y-82264278D01*
X153657448Y-82265986D01*
X153650134Y-82261088D01*
X153648250Y-82255750D01*
X153640909Y-82175000D01*
X153627875Y-82031631D01*
X153630493Y-82023230D01*
X153638287Y-82019139D01*
X153646690Y-82021757D01*
G37*
%TD.AperFunction*%
%TD*%
%TA.AperFunction,Conductor*%
%TO.N,+BATT1*%
G36*
X168168039Y-81869685D02*
G01*
X168213794Y-81922489D01*
X168225000Y-81974000D01*
X168225000Y-85726000D01*
X168205315Y-85793039D01*
X168152511Y-85838794D01*
X168101000Y-85850000D01*
X167749000Y-85850000D01*
X167681961Y-85830315D01*
X167636206Y-85777511D01*
X167625000Y-85726000D01*
X167625000Y-81974000D01*
X167644685Y-81906961D01*
X167697489Y-81861206D01*
X167749000Y-81850000D01*
X168101000Y-81850000D01*
X168168039Y-81869685D01*
G37*
%TD.AperFunction*%
%TD*%
%TA.AperFunction,Conductor*%
%TO.N,+5V*%
G36*
X150136640Y-79775228D02*
G01*
X151392545Y-79799853D01*
X151400609Y-79803380D01*
X151402908Y-79806866D01*
X152293802Y-81910366D01*
X152293872Y-81919168D01*
X152287698Y-81925440D01*
X152284163Y-81926312D01*
X151882703Y-81959594D01*
X150928302Y-83868395D01*
X150921653Y-83874162D01*
X150917620Y-83874745D01*
X150210123Y-83850349D01*
X150202112Y-83846703D01*
X150199069Y-83839915D01*
X150050049Y-82225530D01*
X150050000Y-82224473D01*
X150050000Y-81250303D01*
X150050015Y-81249709D01*
X150125000Y-79800000D01*
X150125000Y-79786727D01*
X150128368Y-79778595D01*
X150136500Y-79775227D01*
X150136640Y-79775228D01*
G37*
%TD.AperFunction*%
%TD*%
%TA.AperFunction,Conductor*%
%TO.N,+BATT1*%
G36*
X153853106Y-79902400D02*
G01*
X154943912Y-80745296D01*
X154948287Y-80752934D01*
X154947975Y-80757422D01*
X154802220Y-81291858D01*
X154796831Y-81298817D01*
X154791567Y-81300324D01*
X153511942Y-81349540D01*
X153503687Y-81346486D01*
X153500008Y-81338490D01*
X153500000Y-81338048D01*
X153500000Y-79911500D01*
X153503368Y-79903368D01*
X153511500Y-79900000D01*
X153846074Y-79900000D01*
X153853106Y-79902400D01*
G37*
%TD.AperFunction*%
%TD*%
%TA.AperFunction,Conductor*%
%TO.N,Net-(U1-SW)*%
G36*
X149099265Y-75889233D02*
G01*
X149107136Y-75893172D01*
X149109946Y-75900761D01*
X149100041Y-77891754D01*
X149096632Y-77899869D01*
X149092178Y-77902607D01*
X147906743Y-78297752D01*
X147897963Y-78297128D01*
X147894974Y-78294974D01*
X147804343Y-78204343D01*
X147800975Y-78196211D01*
X147801195Y-78193974D01*
X148268025Y-75839957D01*
X148272910Y-75832636D01*
X148280123Y-75830723D01*
X149099265Y-75889233D01*
G37*
%TD.AperFunction*%
%TD*%
%TA.AperFunction,Conductor*%
%TO.N,Net-(Q1-S)*%
G36*
X153202531Y-75102898D02*
G01*
X153204433Y-75104433D01*
X153296632Y-75196632D01*
X153300000Y-75204764D01*
X153300000Y-77299186D01*
X153299884Y-77300812D01*
X153001411Y-79390126D01*
X152996927Y-79397700D01*
X152990027Y-79400000D01*
X152509826Y-79400000D01*
X152501694Y-79396632D01*
X152498467Y-79390294D01*
X152498440Y-79390126D01*
X152255826Y-77853565D01*
X152255825Y-77853564D01*
X152255825Y-77853563D01*
X151875001Y-77350001D01*
X151874995Y-77349995D01*
X150935464Y-76733585D01*
X150930512Y-76726308D01*
X150930283Y-76723477D01*
X150979614Y-75588862D01*
X150983332Y-75580887D01*
X150988670Y-75578125D01*
X153193871Y-75101325D01*
X153202531Y-75102898D01*
G37*
%TD.AperFunction*%
%TD*%
%TA.AperFunction,Conductor*%
%TO.N,+BATT1*%
G36*
X167925707Y-85849293D02*
G01*
X167926176Y-85850000D01*
X167926175Y-85850000D01*
X168084932Y-86089283D01*
X168086651Y-86098071D01*
X168081651Y-86105500D01*
X168081247Y-86105757D01*
X167911085Y-86208874D01*
X167910972Y-86208942D01*
X167821816Y-86261610D01*
X167745197Y-86319378D01*
X167654497Y-86403908D01*
X167646108Y-86407042D01*
X167638247Y-86403622D01*
X167371174Y-86136549D01*
X167367747Y-86128276D01*
X167370685Y-86120524D01*
X167493719Y-85981507D01*
X167566074Y-85863998D01*
X167625000Y-85766760D01*
X167675559Y-85683329D01*
X167925707Y-85849293D01*
G37*
%TD.AperFunction*%
%TD*%
%TA.AperFunction,Conductor*%
%TO.N,Net-(BZ1--)*%
G36*
X162498680Y-75003593D02*
G01*
X162504530Y-75010211D01*
X162705846Y-75585002D01*
X162705347Y-75593942D01*
X162698671Y-75599911D01*
X162695218Y-75600562D01*
X162683837Y-75600964D01*
X162574744Y-75604826D01*
X162552206Y-75607201D01*
X162416772Y-75621472D01*
X162258367Y-75648980D01*
X162258362Y-75648981D01*
X162097325Y-75687536D01*
X162097321Y-75687537D01*
X161960810Y-75729263D01*
X161940923Y-75735342D01*
X161940921Y-75735342D01*
X161940917Y-75735344D01*
X161660932Y-75849933D01*
X161444244Y-75974526D01*
X161304638Y-76088298D01*
X161296060Y-76090868D01*
X161288974Y-76087501D01*
X161162207Y-75960734D01*
X161158780Y-75952461D01*
X161161060Y-75945523D01*
X161178923Y-75921278D01*
X161195624Y-75880565D01*
X161202460Y-75791486D01*
X161174212Y-75707495D01*
X161110497Y-75636408D01*
X161110496Y-75636407D01*
X161063707Y-75607198D01*
X161005649Y-75583409D01*
X161005648Y-75583408D01*
X161005644Y-75583407D01*
X161005641Y-75583406D01*
X161005629Y-75583402D01*
X160934389Y-75566016D01*
X160934385Y-75566015D01*
X160934383Y-75566015D01*
X160902297Y-75562457D01*
X160894453Y-75558140D01*
X160891958Y-75549540D01*
X160896276Y-75541695D01*
X160899845Y-75539744D01*
X162489747Y-75002993D01*
X162498680Y-75003593D01*
G37*
%TD.AperFunction*%
%TD*%
%TA.AperFunction,Conductor*%
%TO.N,Net-(BZ1-+)*%
G36*
X160841318Y-86556550D02*
G01*
X162460755Y-86989247D01*
X162467863Y-86994693D01*
X162469038Y-87003570D01*
X162463592Y-87010678D01*
X162461042Y-87011773D01*
X160522810Y-87582852D01*
X160513905Y-87581903D01*
X160508280Y-87574936D01*
X160508154Y-87574472D01*
X160503140Y-87554460D01*
X160477744Y-87493133D01*
X160461868Y-87468132D01*
X160441245Y-87435654D01*
X160385268Y-87372206D01*
X160385264Y-87372202D01*
X160318598Y-87314968D01*
X160318593Y-87314964D01*
X160318590Y-87314962D01*
X160230799Y-87256373D01*
X160230796Y-87256371D01*
X160230791Y-87256368D01*
X160136797Y-87207415D01*
X160038055Y-87167622D01*
X160038042Y-87167618D01*
X159942549Y-87139423D01*
X159810120Y-87121378D01*
X159802386Y-87116865D01*
X159800000Y-87109785D01*
X159800000Y-86930306D01*
X159803427Y-86922033D01*
X159810221Y-86918700D01*
X159914817Y-86905398D01*
X160092378Y-86844861D01*
X160246464Y-86756775D01*
X160246467Y-86756773D01*
X160357041Y-86658139D01*
X160357041Y-86658137D01*
X160357045Y-86658135D01*
X160424278Y-86556554D01*
X160449649Y-86463933D01*
X160455139Y-86456860D01*
X160463953Y-86455722D01*
X160841318Y-86556550D01*
G37*
%TD.AperFunction*%
%TD*%
%TA.AperFunction,Conductor*%
%TO.N,Net-(U2-PC6)*%
G36*
X145396262Y-86023865D02*
G01*
X145396440Y-86024040D01*
X145522381Y-86149981D01*
X145525808Y-86158254D01*
X145523608Y-86165083D01*
X145491794Y-86209336D01*
X145459830Y-86296795D01*
X145459830Y-86296798D01*
X145461263Y-86370161D01*
X145461264Y-86370162D01*
X145494625Y-86427554D01*
X145526445Y-86450969D01*
X145526446Y-86450969D01*
X145526447Y-86450970D01*
X145556254Y-86463309D01*
X145562587Y-86469639D01*
X145562589Y-86478594D01*
X145561230Y-86481016D01*
X145202779Y-86972225D01*
X145195134Y-86976888D01*
X145186431Y-86974779D01*
X145182205Y-86968954D01*
X144986203Y-86367417D01*
X144986898Y-86358490D01*
X144993702Y-86352669D01*
X144994923Y-86352343D01*
X145016961Y-86347757D01*
X145016965Y-86347755D01*
X145056882Y-86327717D01*
X145056885Y-86327715D01*
X145146513Y-86259357D01*
X145325866Y-86080418D01*
X145379721Y-86024217D01*
X145387918Y-86020616D01*
X145396262Y-86023865D01*
G37*
%TD.AperFunction*%
%TD*%
%TA.AperFunction,Conductor*%
%TO.N,Net-(U2-PC6)*%
G36*
X145396262Y-86023865D02*
G01*
X145396440Y-86024040D01*
X145522381Y-86149981D01*
X145525808Y-86158254D01*
X145523608Y-86165083D01*
X145491794Y-86209336D01*
X145459830Y-86296795D01*
X145459830Y-86296798D01*
X145461263Y-86370161D01*
X145461264Y-86370162D01*
X145494625Y-86427554D01*
X145526445Y-86450969D01*
X145526446Y-86450969D01*
X145526447Y-86450970D01*
X145556254Y-86463309D01*
X145562587Y-86469639D01*
X145562589Y-86478594D01*
X145561230Y-86481016D01*
X145202779Y-86972225D01*
X145195134Y-86976888D01*
X145186431Y-86974779D01*
X145182205Y-86968954D01*
X144986203Y-86367417D01*
X144986898Y-86358490D01*
X144993702Y-86352669D01*
X144994923Y-86352343D01*
X145016961Y-86347757D01*
X145016965Y-86347755D01*
X145056882Y-86327717D01*
X145056885Y-86327715D01*
X145146513Y-86259357D01*
X145325866Y-86080418D01*
X145379721Y-86024217D01*
X145387918Y-86020616D01*
X145396262Y-86023865D01*
G37*
%TD.AperFunction*%
%TD*%
%TA.AperFunction,Conductor*%
%TO.N,Net-(U2-PC7)*%
G36*
X146916522Y-86017945D02*
G01*
X146919376Y-86025603D01*
X146919376Y-86195633D01*
X146916516Y-86203298D01*
X146876818Y-86249080D01*
X146841709Y-86309965D01*
X146814591Y-86380733D01*
X146793189Y-86471781D01*
X146781599Y-86572244D01*
X146779801Y-86690199D01*
X146788928Y-86814849D01*
X146809149Y-86946657D01*
X146809150Y-86946660D01*
X146835767Y-87062162D01*
X146834286Y-87070993D01*
X146826993Y-87076190D01*
X146821661Y-87076172D01*
X146466639Y-86991815D01*
X146459382Y-86986569D01*
X146457786Y-86982245D01*
X146363669Y-86380741D01*
X146361410Y-86366305D01*
X146363516Y-86357601D01*
X146370902Y-86352980D01*
X146420702Y-86344052D01*
X146520087Y-86299879D01*
X146520088Y-86299878D01*
X146520091Y-86299877D01*
X146556485Y-86277373D01*
X146629283Y-86232361D01*
X146792719Y-86109643D01*
X146900019Y-86016756D01*
X146908516Y-86013933D01*
X146916522Y-86017945D01*
G37*
%TD.AperFunction*%
%TD*%
%TA.AperFunction,Conductor*%
%TO.N,Net-(U2-PC4)*%
G36*
X144126262Y-86023865D02*
G01*
X144126440Y-86024040D01*
X144252381Y-86149981D01*
X144255808Y-86158254D01*
X144253608Y-86165083D01*
X144221794Y-86209336D01*
X144189830Y-86296795D01*
X144189830Y-86296798D01*
X144191263Y-86370161D01*
X144191264Y-86370162D01*
X144224625Y-86427554D01*
X144256445Y-86450969D01*
X144256446Y-86450969D01*
X144256447Y-86450970D01*
X144286254Y-86463309D01*
X144292587Y-86469639D01*
X144292589Y-86478594D01*
X144291230Y-86481016D01*
X143932779Y-86972225D01*
X143925134Y-86976888D01*
X143916431Y-86974779D01*
X143912205Y-86968954D01*
X143716203Y-86367417D01*
X143716898Y-86358490D01*
X143723702Y-86352669D01*
X143724923Y-86352343D01*
X143746961Y-86347757D01*
X143746965Y-86347755D01*
X143786882Y-86327717D01*
X143786885Y-86327715D01*
X143876513Y-86259357D01*
X144055866Y-86080418D01*
X144109721Y-86024217D01*
X144117918Y-86020616D01*
X144126262Y-86023865D01*
G37*
%TD.AperFunction*%
%TD*%
%TA.AperFunction,Conductor*%
%TO.N,Net-(U2-PC4)*%
G36*
X144126262Y-86023865D02*
G01*
X144126440Y-86024040D01*
X144252381Y-86149981D01*
X144255808Y-86158254D01*
X144253608Y-86165083D01*
X144221794Y-86209336D01*
X144189830Y-86296795D01*
X144189830Y-86296798D01*
X144191263Y-86370161D01*
X144191264Y-86370162D01*
X144224625Y-86427554D01*
X144256445Y-86450969D01*
X144256446Y-86450969D01*
X144256447Y-86450970D01*
X144286254Y-86463309D01*
X144292587Y-86469639D01*
X144292589Y-86478594D01*
X144291230Y-86481016D01*
X143932779Y-86972225D01*
X143925134Y-86976888D01*
X143916431Y-86974779D01*
X143912205Y-86968954D01*
X143716203Y-86367417D01*
X143716898Y-86358490D01*
X143723702Y-86352669D01*
X143724923Y-86352343D01*
X143746961Y-86347757D01*
X143746965Y-86347755D01*
X143786882Y-86327717D01*
X143786885Y-86327715D01*
X143876513Y-86259357D01*
X144055866Y-86080418D01*
X144109721Y-86024217D01*
X144117918Y-86020616D01*
X144126262Y-86023865D01*
G37*
%TD.AperFunction*%
%TD*%
%TA.AperFunction,Conductor*%
%TO.N,/SWIO*%
G36*
X145189697Y-88550485D02*
G01*
X145190377Y-88551113D01*
X145315161Y-88675897D01*
X145318588Y-88684170D01*
X145315752Y-88691807D01*
X145306594Y-88702436D01*
X145264321Y-88783873D01*
X145264320Y-88783874D01*
X145254721Y-88860364D01*
X145254722Y-88860365D01*
X145254722Y-88860367D01*
X145277652Y-88923769D01*
X145303210Y-88951303D01*
X145331316Y-88969406D01*
X145336415Y-88976767D01*
X145335525Y-88984310D01*
X145054945Y-89568136D01*
X145048273Y-89574108D01*
X145039332Y-89573613D01*
X145033360Y-89566941D01*
X145032887Y-89565150D01*
X144901218Y-88834299D01*
X144903124Y-88825553D01*
X144908284Y-88821407D01*
X144941862Y-88807607D01*
X144992573Y-88762871D01*
X145101344Y-88636032D01*
X145173203Y-88551793D01*
X145181179Y-88547723D01*
X145189697Y-88550485D01*
G37*
%TD.AperFunction*%
%TD*%
M02*
