%TF.GenerationSoftware,KiCad,Pcbnew,9.0.6*%
%TF.CreationDate,2025-12-27T16:00:58+00:00*%
%TF.ProjectId,AZUltra,415a556c-7472-4612-9e6b-696361645f70,rev?*%
%TF.SameCoordinates,Original*%
%TF.FileFunction,Soldermask,Top*%
%TF.FilePolarity,Negative*%
%FSLAX46Y46*%
G04 Gerber Fmt 4.6, Leading zero omitted, Abs format (unit mm)*
G04 Created by KiCad (PCBNEW 9.0.6) date 2025-12-27 16:00:58*
%MOMM*%
%LPD*%
G01*
G04 APERTURE LIST*
G04 Aperture macros list*
%AMRoundRect*
0 Rectangle with rounded corners*
0 $1 Rounding radius*
0 $2 $3 $4 $5 $6 $7 $8 $9 X,Y pos of 4 corners*
0 Add a 4 corners polygon primitive as box body*
4,1,4,$2,$3,$4,$5,$6,$7,$8,$9,$2,$3,0*
0 Add four circle primitives for the rounded corners*
1,1,$1+$1,$2,$3*
1,1,$1+$1,$4,$5*
1,1,$1+$1,$6,$7*
1,1,$1+$1,$8,$9*
0 Add four rect primitives between the rounded corners*
20,1,$1+$1,$2,$3,$4,$5,0*
20,1,$1+$1,$4,$5,$6,$7,0*
20,1,$1+$1,$6,$7,$8,$9,0*
20,1,$1+$1,$8,$9,$2,$3,0*%
%AMRotRect*
0 Rectangle, with rotation*
0 The origin of the aperture is its center*
0 $1 length*
0 $2 width*
0 $3 Rotation angle, in degrees counterclockwise*
0 Add horizontal line*
21,1,$1,$2,0,0,$3*%
%AMFreePoly0*
4,1,14,0.168787,0.091213,0.291213,-0.031213,0.300000,-0.052426,0.300001,-0.070000,0.291213,-0.091213,0.270000,-0.100000,-0.270000,-0.100000,-0.291213,-0.091213,-0.300001,-0.070000,-0.300001,0.070000,-0.291213,0.091213,-0.270000,0.100000,0.147574,0.100000,0.168787,0.091213,0.168787,0.091213,$1*%
%AMFreePoly1*
4,1,14,0.291213,0.091213,0.300001,0.070000,0.300000,0.052426,0.291213,0.031213,0.168787,-0.091213,0.147574,-0.100000,-0.270000,-0.100000,-0.291213,-0.091213,-0.300001,-0.070000,-0.300001,0.070000,-0.291213,0.091213,-0.270000,0.100000,0.270000,0.100000,0.291213,0.091213,0.291213,0.091213,$1*%
%AMFreePoly2*
4,1,14,0.091213,0.291213,0.100000,0.270000,0.100000,-0.270000,0.091213,-0.291213,0.070000,-0.300001,-0.070000,-0.300001,-0.091213,-0.291213,-0.100000,-0.270000,-0.100000,0.147574,-0.091213,0.168787,0.031213,0.291213,0.052426,0.300000,0.070000,0.300001,0.091213,0.291213,0.091213,0.291213,$1*%
%AMFreePoly3*
4,1,14,-0.031213,0.291213,0.091213,0.168787,0.100000,0.147574,0.100000,-0.270000,0.091213,-0.291213,0.070000,-0.300001,-0.070000,-0.300001,-0.091213,-0.291213,-0.100000,-0.270000,-0.100000,0.270000,-0.091213,0.291213,-0.070000,0.300001,-0.052426,0.300000,-0.031213,0.291213,-0.031213,0.291213,$1*%
%AMFreePoly4*
4,1,14,0.291213,0.091213,0.300001,0.070000,0.300001,-0.070000,0.291213,-0.091213,0.270000,-0.100000,-0.147574,-0.100000,-0.168787,-0.091213,-0.291213,0.031213,-0.300000,0.052426,-0.300001,0.070000,-0.291213,0.091213,-0.270000,0.100000,0.270000,0.100000,0.291213,0.091213,0.291213,0.091213,$1*%
%AMFreePoly5*
4,1,14,0.291213,0.091213,0.300001,0.070000,0.300001,-0.070000,0.291213,-0.091213,0.270000,-0.100000,-0.270000,-0.100000,-0.291213,-0.091213,-0.300001,-0.070000,-0.300000,-0.052426,-0.291213,-0.031213,-0.168787,0.091213,-0.147574,0.100000,0.270000,0.100000,0.291213,0.091213,0.291213,0.091213,$1*%
%AMFreePoly6*
4,1,14,0.091213,0.291213,0.100000,0.270000,0.100000,-0.147574,0.091213,-0.168787,-0.031213,-0.291213,-0.052426,-0.300000,-0.070000,-0.300001,-0.091213,-0.291213,-0.100000,-0.270000,-0.100000,0.270000,-0.091213,0.291213,-0.070000,0.300001,0.070000,0.300001,0.091213,0.291213,0.091213,0.291213,$1*%
%AMFreePoly7*
4,1,14,0.091213,0.291213,0.100000,0.270000,0.100000,-0.270000,0.091213,-0.291213,0.070000,-0.300001,0.052426,-0.300000,0.031213,-0.291213,-0.091213,-0.168787,-0.100000,-0.147574,-0.100000,0.270000,-0.091213,0.291213,-0.070000,0.300001,0.070000,0.300001,0.091213,0.291213,0.091213,0.291213,$1*%
G04 Aperture macros list end*
%ADD10C,0.300000*%
%ADD11C,0.187500*%
%ADD12RoundRect,0.218750X0.218750X0.381250X-0.218750X0.381250X-0.218750X-0.381250X0.218750X-0.381250X0*%
%ADD13RoundRect,0.135000X0.185000X-0.135000X0.185000X0.135000X-0.185000X0.135000X-0.185000X-0.135000X0*%
%ADD14RoundRect,0.218750X0.218750X0.256250X-0.218750X0.256250X-0.218750X-0.256250X0.218750X-0.256250X0*%
%ADD15RoundRect,0.150000X-0.150000X0.587500X-0.150000X-0.587500X0.150000X-0.587500X0.150000X0.587500X0*%
%ADD16RoundRect,0.114000X0.266000X0.521000X-0.266000X0.521000X-0.266000X-0.521000X0.266000X-0.521000X0*%
%ADD17RoundRect,0.180000X-1.920000X-0.420000X1.920000X-0.420000X1.920000X0.420000X-1.920000X0.420000X0*%
%ADD18RoundRect,0.100000X-0.100000X-0.250000X0.100000X-0.250000X0.100000X0.250000X-0.100000X0.250000X0*%
%ADD19RoundRect,0.150000X-0.512500X-0.150000X0.512500X-0.150000X0.512500X0.150000X-0.512500X0.150000X0*%
%ADD20RoundRect,0.225000X0.225000X0.250000X-0.225000X0.250000X-0.225000X-0.250000X0.225000X-0.250000X0*%
%ADD21RoundRect,0.250000X0.250000X0.475000X-0.250000X0.475000X-0.250000X-0.475000X0.250000X-0.475000X0*%
%ADD22RoundRect,0.225000X-0.225000X-0.250000X0.225000X-0.250000X0.225000X0.250000X-0.225000X0.250000X0*%
%ADD23FreePoly0,225.000000*%
%ADD24RoundRect,0.050000X0.141421X0.212132X-0.212132X-0.141421X-0.141421X-0.212132X0.212132X0.141421X0*%
%ADD25FreePoly1,225.000000*%
%ADD26FreePoly2,225.000000*%
%ADD27RoundRect,0.050000X-0.141421X0.212132X-0.212132X0.141421X0.141421X-0.212132X0.212132X-0.141421X0*%
%ADD28FreePoly3,225.000000*%
%ADD29FreePoly4,225.000000*%
%ADD30FreePoly5,225.000000*%
%ADD31FreePoly6,225.000000*%
%ADD32FreePoly7,225.000000*%
%ADD33RotRect,1.100000X1.100000X225.000000*%
%ADD34RoundRect,0.150000X-0.150000X-0.625000X0.150000X-0.625000X0.150000X0.625000X-0.150000X0.625000X0*%
%ADD35RoundRect,0.250000X-0.350000X-0.650000X0.350000X-0.650000X0.350000X0.650000X-0.350000X0.650000X0*%
%ADD36RoundRect,0.200000X0.275000X-0.200000X0.275000X0.200000X-0.275000X0.200000X-0.275000X-0.200000X0*%
%ADD37RoundRect,0.100000X-0.250000X0.100000X-0.250000X-0.100000X0.250000X-0.100000X0.250000X0.100000X0*%
%ADD38RoundRect,0.200000X-0.200000X-0.275000X0.200000X-0.275000X0.200000X0.275000X-0.200000X0.275000X0*%
G04 APERTURE END LIST*
D10*
G36*
X162026264Y-92545000D02*
G01*
X161702856Y-92545000D01*
X161602015Y-92234323D01*
X161028746Y-92234323D01*
X160925889Y-92545000D01*
X160604588Y-92545000D01*
X160808311Y-91971914D01*
X161116948Y-91971914D01*
X161515919Y-91971914D01*
X161316434Y-91375290D01*
X161116948Y-91971914D01*
X160808311Y-91971914D01*
X161148456Y-91015062D01*
X161497051Y-91015062D01*
X162026264Y-92545000D01*
G37*
G36*
X163303960Y-91015062D02*
G01*
X162153118Y-91015062D01*
X162153118Y-91277562D01*
X162936405Y-91277562D01*
X162153118Y-92282591D01*
X162153118Y-92545000D01*
X163303960Y-92545000D01*
X163303960Y-92282591D01*
X162522780Y-92282591D01*
X163303960Y-91277562D01*
X163303960Y-91015062D01*
G37*
G36*
X164180944Y-91277562D02*
G01*
X164628183Y-91277562D01*
X164628183Y-91015062D01*
X163401779Y-91015062D01*
X163401779Y-91277562D01*
X163865963Y-91277562D01*
X163865963Y-92545000D01*
X164180944Y-92545000D01*
X164180944Y-91277562D01*
G37*
G36*
X165174982Y-91827750D02*
G01*
X164603820Y-91827750D01*
X164603820Y-92111224D01*
X165174982Y-92111224D01*
X165174982Y-91827750D01*
G37*
G36*
X166804296Y-91724344D02*
G01*
X166191093Y-91724344D01*
X166191093Y-91986844D01*
X166539689Y-91986844D01*
X166530962Y-92044552D01*
X166516418Y-92093217D01*
X166476643Y-92162425D01*
X166464126Y-92177811D01*
X166396259Y-92242005D01*
X166312124Y-92290116D01*
X166265546Y-92306732D01*
X166217237Y-92317722D01*
X166151251Y-92323166D01*
X166101058Y-92320272D01*
X166053070Y-92311741D01*
X165964168Y-92278517D01*
X165885494Y-92224516D01*
X165818632Y-92150289D01*
X165765935Y-92056442D01*
X165730331Y-91944190D01*
X165719882Y-91881619D01*
X165714877Y-91815637D01*
X165714453Y-91789465D01*
X165717360Y-91714526D01*
X165725984Y-91644564D01*
X165739509Y-91582268D01*
X165758041Y-91524920D01*
X165780367Y-91474798D01*
X165807058Y-91429533D01*
X165836767Y-91390693D01*
X165870315Y-91356635D01*
X165906643Y-91328151D01*
X165946437Y-91304478D01*
X166035475Y-91272207D01*
X166138517Y-91260452D01*
X166142825Y-91260435D01*
X166198906Y-91263354D01*
X166251662Y-91272066D01*
X166298974Y-91285812D01*
X166342850Y-91304768D01*
X166413751Y-91352850D01*
X166446787Y-91385567D01*
X166473134Y-91423639D01*
X166508182Y-91506082D01*
X166804296Y-91506082D01*
X166794173Y-91445771D01*
X166778683Y-91388622D01*
X166758188Y-91335194D01*
X166732753Y-91285127D01*
X166667824Y-91195680D01*
X166584581Y-91120699D01*
X166483272Y-91061158D01*
X166364036Y-91018667D01*
X166227257Y-90995373D01*
X166140718Y-90991615D01*
X166069530Y-90994517D01*
X166001032Y-91003109D01*
X165935679Y-91017141D01*
X165873302Y-91036471D01*
X165814177Y-91060872D01*
X165758326Y-91090212D01*
X165656956Y-91163124D01*
X165570223Y-91254243D01*
X165499420Y-91362750D01*
X165446127Y-91487820D01*
X165412152Y-91628484D01*
X165402998Y-91704449D01*
X165399426Y-91783533D01*
X165399380Y-91793678D01*
X165402276Y-91871040D01*
X165410823Y-91945769D01*
X165424879Y-92017917D01*
X165444207Y-92086935D01*
X165468616Y-92152636D01*
X165497878Y-92214725D01*
X165531668Y-92272787D01*
X165569857Y-92326786D01*
X165611921Y-92376150D01*
X165657907Y-92421043D01*
X165707085Y-92460849D01*
X165759701Y-92495823D01*
X165814882Y-92525420D01*
X165873030Y-92549860D01*
X165933239Y-92568741D01*
X165995972Y-92582162D01*
X166115531Y-92591894D01*
X166184123Y-92588924D01*
X166247777Y-92579860D01*
X166301742Y-92566127D01*
X166352294Y-92546985D01*
X166397908Y-92523358D01*
X166440955Y-92494429D01*
X166521347Y-92419066D01*
X166577516Y-92346247D01*
X166615343Y-92547839D01*
X166804296Y-92547839D01*
X166804296Y-91724344D01*
G37*
G36*
X168011374Y-91852021D02*
G01*
X168011374Y-92545000D01*
X168326356Y-92545000D01*
X168326356Y-91015062D01*
X168009268Y-91015062D01*
X168009268Y-91589521D01*
X167404492Y-91589521D01*
X167404492Y-91015062D01*
X167089510Y-91015062D01*
X167089510Y-92545000D01*
X167404492Y-92545000D01*
X167404492Y-91852021D01*
X168011374Y-91852021D01*
G37*
D11*
G36*
X150511672Y-91422557D02*
G01*
X150553510Y-91434714D01*
X150592769Y-91452190D01*
X150631976Y-91476689D01*
X150669062Y-91507467D01*
X150709514Y-91550700D01*
X150748316Y-91602619D01*
X150748316Y-91442976D01*
X150910066Y-91442976D01*
X150910066Y-92363191D01*
X150903907Y-92534608D01*
X150883092Y-92673633D01*
X150848223Y-92776113D01*
X150823751Y-92820942D01*
X150794569Y-92861538D01*
X150744715Y-92909826D01*
X150705035Y-92936314D01*
X150660197Y-92958652D01*
X150608665Y-92977224D01*
X150552588Y-92990839D01*
X150491602Y-92999334D01*
X150427015Y-93002222D01*
X150409868Y-93002000D01*
X150296987Y-92988146D01*
X150202210Y-92955034D01*
X150125766Y-92905381D01*
X150067630Y-92840945D01*
X150045504Y-92803379D01*
X150028268Y-92762447D01*
X150016008Y-92717751D01*
X150009176Y-92669930D01*
X150187687Y-92669930D01*
X150194511Y-92705670D01*
X150220975Y-92768027D01*
X150240411Y-92792683D01*
X150264104Y-92813168D01*
X150294538Y-92830665D01*
X150330106Y-92843443D01*
X150377185Y-92852361D01*
X150431228Y-92855310D01*
X150519247Y-92847900D01*
X150591719Y-92824060D01*
X150621128Y-92805952D01*
X150646753Y-92783362D01*
X150670001Y-92754217D01*
X150689274Y-92719580D01*
X150706645Y-92672964D01*
X150719261Y-92618556D01*
X150728553Y-92541210D01*
X150731555Y-92451210D01*
X150731555Y-92394607D01*
X150656207Y-92489126D01*
X150585414Y-92546130D01*
X150547635Y-92565783D01*
X150507803Y-92579807D01*
X150461736Y-92588918D01*
X150412360Y-92591894D01*
X150362635Y-92588476D01*
X150317256Y-92579156D01*
X150273331Y-92564056D01*
X150230164Y-92542777D01*
X150189019Y-92515739D01*
X150149192Y-92482182D01*
X150112033Y-92442875D01*
X150068804Y-92385063D01*
X150040768Y-92336632D01*
X150017724Y-92284999D01*
X149998917Y-92227343D01*
X149985349Y-92165390D01*
X149976408Y-92092426D01*
X149973456Y-92013313D01*
X149973835Y-92002872D01*
X150156180Y-92002872D01*
X150156412Y-92024678D01*
X150169492Y-92156156D01*
X150199292Y-92257733D01*
X150242144Y-92333146D01*
X150296260Y-92386089D01*
X150327723Y-92404960D01*
X150362078Y-92418685D01*
X150400465Y-92427327D01*
X150441761Y-92430236D01*
X150517559Y-92420262D01*
X150552971Y-92407316D01*
X150585448Y-92389219D01*
X150615854Y-92365216D01*
X150642935Y-92335967D01*
X150667907Y-92299380D01*
X150688924Y-92257206D01*
X150706876Y-92206170D01*
X150720050Y-92149134D01*
X150728651Y-92082271D01*
X150731555Y-92009100D01*
X150731185Y-91980849D01*
X150717523Y-91848297D01*
X150687542Y-91746974D01*
X150644684Y-91672122D01*
X150590352Y-91619543D01*
X150558479Y-91600702D01*
X150523617Y-91587014D01*
X150484233Y-91578332D01*
X150441761Y-91575416D01*
X150368806Y-91585096D01*
X150333876Y-91597995D01*
X150301830Y-91616102D01*
X150271641Y-91640319D01*
X150244747Y-91669872D01*
X150219820Y-91707059D01*
X150198842Y-91749946D01*
X150180874Y-91802002D01*
X150167693Y-91860160D01*
X150159084Y-91928339D01*
X150156180Y-92002872D01*
X149973835Y-92002872D01*
X149976034Y-91942369D01*
X149997376Y-91804960D01*
X150037683Y-91686608D01*
X150093583Y-91589124D01*
X150162014Y-91513116D01*
X150240735Y-91458470D01*
X150328509Y-91425106D01*
X150375664Y-91416562D01*
X150424908Y-91413667D01*
X150511672Y-91422557D01*
G37*
G36*
X151381485Y-91442976D02*
G01*
X151207187Y-91442976D01*
X151207187Y-92545000D01*
X151381485Y-92545000D01*
X151381485Y-91442976D01*
G37*
G36*
X151381485Y-91015062D02*
G01*
X151205081Y-91015062D01*
X151205081Y-91235614D01*
X151381485Y-91235614D01*
X151381485Y-91015062D01*
G37*
G36*
X152065853Y-91442976D02*
G01*
X151885236Y-91442976D01*
X151885236Y-91140634D01*
X151710938Y-91140634D01*
X151710938Y-91442976D01*
X151561828Y-91442976D01*
X151561828Y-91585858D01*
X151710938Y-91585858D01*
X151710938Y-92417596D01*
X151713847Y-92454232D01*
X151722488Y-92486714D01*
X151735605Y-92513219D01*
X151753494Y-92535986D01*
X151802524Y-92569789D01*
X151873002Y-92588835D01*
X151923063Y-92591894D01*
X151987942Y-92588699D01*
X152061262Y-92578056D01*
X152065853Y-92577240D01*
X152065853Y-92430236D01*
X151981864Y-92438662D01*
X151940295Y-92435376D01*
X151911886Y-92424099D01*
X151899826Y-92411905D01*
X151891706Y-92395144D01*
X151885236Y-92339927D01*
X151885236Y-91585858D01*
X152065853Y-91585858D01*
X152065853Y-91442976D01*
G37*
G36*
X152249494Y-91015062D02*
G01*
X152249494Y-92545000D01*
X152423791Y-92545000D01*
X152423791Y-91938483D01*
X152426681Y-91879063D01*
X152435184Y-91823829D01*
X152448624Y-91774365D01*
X152466922Y-91729459D01*
X152488995Y-91690685D01*
X152515182Y-91656696D01*
X152544203Y-91628643D01*
X152576686Y-91605539D01*
X152611612Y-91587963D01*
X152649496Y-91575565D01*
X152722012Y-91566990D01*
X152763636Y-91569889D01*
X152803097Y-91578458D01*
X152839101Y-91592222D01*
X152871677Y-91611096D01*
X152877442Y-91615259D01*
X152902121Y-91637481D01*
X152921239Y-91663007D01*
X152943439Y-91722456D01*
X152948791Y-91783145D01*
X152948791Y-92545000D01*
X153123089Y-92545000D01*
X153123089Y-91713902D01*
X153120190Y-91667852D01*
X153111621Y-91625041D01*
X153098020Y-91586655D01*
X153079406Y-91551667D01*
X153028505Y-91493098D01*
X152959241Y-91449363D01*
X152870798Y-91421950D01*
X152776600Y-91413667D01*
X152713851Y-91416706D01*
X152657280Y-91426255D01*
X152613205Y-91439958D01*
X152571995Y-91459221D01*
X152497561Y-91513855D01*
X152423791Y-91596391D01*
X152423791Y-91015062D01*
X152249494Y-91015062D01*
G37*
G36*
X154281258Y-92545000D02*
G01*
X154281258Y-91442976D01*
X154106960Y-91442976D01*
X154106960Y-92067627D01*
X154104069Y-92126891D01*
X154095555Y-92182007D01*
X154082105Y-92231330D01*
X154063780Y-92276133D01*
X154041680Y-92314806D01*
X154015441Y-92348731D01*
X153986347Y-92376749D01*
X153953752Y-92399852D01*
X153918660Y-92417463D01*
X153880555Y-92429923D01*
X153806633Y-92438662D01*
X153763623Y-92435776D01*
X153724410Y-92427298D01*
X153690375Y-92414039D01*
X153660410Y-92396049D01*
X153635376Y-92374203D01*
X153614688Y-92348322D01*
X153587394Y-92285734D01*
X153579854Y-92222324D01*
X153579854Y-91442976D01*
X153405556Y-91442976D01*
X153405556Y-92291567D01*
X153408451Y-92336537D01*
X153416995Y-92378512D01*
X153430658Y-92416595D01*
X153449350Y-92451434D01*
X153500764Y-92510453D01*
X153570813Y-92554978D01*
X153659845Y-92583123D01*
X153756258Y-92591894D01*
X153816548Y-92589442D01*
X153871643Y-92580676D01*
X153916564Y-92567379D01*
X153958578Y-92548582D01*
X154033891Y-92495315D01*
X154107940Y-92413301D01*
X154123722Y-92391768D01*
X154123722Y-92545000D01*
X154281258Y-92545000D01*
G37*
G36*
X154723277Y-91594284D02*
G01*
X154728454Y-91586593D01*
X154792948Y-91510776D01*
X154866002Y-91458264D01*
X154907990Y-91439259D01*
X154953212Y-91425575D01*
X155006179Y-91416621D01*
X155063446Y-91413667D01*
X155105074Y-91415210D01*
X155208185Y-91434146D01*
X155254843Y-91451338D01*
X155298281Y-91473511D01*
X155338806Y-91500844D01*
X155375827Y-91532986D01*
X155410030Y-91570779D01*
X155440322Y-91613327D01*
X155467414Y-91662175D01*
X155490069Y-91715780D01*
X155508732Y-91776192D01*
X155522345Y-91841349D01*
X155530953Y-91913461D01*
X155533858Y-91990232D01*
X155529977Y-92078593D01*
X155506832Y-92213168D01*
X155465473Y-92327238D01*
X155408645Y-92420712D01*
X155338402Y-92493974D01*
X155255898Y-92547320D01*
X155210112Y-92566476D01*
X155161478Y-92580402D01*
X155109564Y-92588992D01*
X155055020Y-92591894D01*
X155039438Y-92591681D01*
X154939292Y-92578383D01*
X154853420Y-92544946D01*
X154813729Y-92519778D01*
X154776855Y-92489123D01*
X154740193Y-92449997D01*
X154706424Y-92404407D01*
X154706424Y-92545000D01*
X154548979Y-92545000D01*
X154548979Y-92002872D01*
X154723277Y-92002872D01*
X154723956Y-92036095D01*
X154739696Y-92157328D01*
X154773148Y-92255284D01*
X154820575Y-92330354D01*
X154879500Y-92383853D01*
X154949095Y-92416682D01*
X154988216Y-92425233D01*
X155029832Y-92428129D01*
X155043002Y-92427858D01*
X155084794Y-92423213D01*
X155124241Y-92412998D01*
X155161877Y-92397084D01*
X155196688Y-92375870D01*
X155229479Y-92348657D01*
X155258834Y-92316334D01*
X155285383Y-92277771D01*
X155307780Y-92234335D01*
X155326225Y-92184924D01*
X155339771Y-92131023D01*
X155348248Y-92072028D01*
X155351133Y-92009100D01*
X155349857Y-91964218D01*
X155332226Y-91845572D01*
X155296958Y-91749297D01*
X155247525Y-91675052D01*
X155186196Y-91621796D01*
X155151359Y-91602813D01*
X155113744Y-91588976D01*
X155073058Y-91580420D01*
X155029832Y-91577523D01*
X155023305Y-91577592D01*
X154982432Y-91581306D01*
X154944027Y-91590542D01*
X154907656Y-91605384D01*
X154874118Y-91625512D01*
X154842430Y-91651793D01*
X154814115Y-91683314D01*
X154788208Y-91721756D01*
X154766371Y-91765430D01*
X154748102Y-91816367D01*
X154734692Y-91872406D01*
X154726169Y-91935259D01*
X154723277Y-92002872D01*
X154548979Y-92002872D01*
X154548979Y-91015062D01*
X154723277Y-91015062D01*
X154723277Y-91594284D01*
G37*
G36*
X155959207Y-92326646D02*
G01*
X155740762Y-92326646D01*
X155740762Y-92545000D01*
X155959207Y-92545000D01*
X155959207Y-92326646D01*
G37*
G36*
X157130382Y-91814286D02*
G01*
X157121991Y-91744701D01*
X157108368Y-91685367D01*
X157091827Y-91639892D01*
X157070773Y-91599001D01*
X157056926Y-91577523D01*
X156994656Y-91512110D01*
X156913770Y-91460876D01*
X156816236Y-91426991D01*
X156762100Y-91417587D01*
X156705448Y-91413749D01*
X156695690Y-91413667D01*
X156639393Y-91416569D01*
X156585898Y-91425164D01*
X156535998Y-91439055D01*
X156489088Y-91458159D01*
X156405008Y-91511145D01*
X156333793Y-91583615D01*
X156276346Y-91675799D01*
X156234471Y-91788159D01*
X156210729Y-91920838D01*
X156206411Y-92013313D01*
X156209312Y-92087634D01*
X156217897Y-92157725D01*
X156231573Y-92221804D01*
X156250321Y-92281462D01*
X156273249Y-92335035D01*
X156300662Y-92384063D01*
X156331504Y-92427247D01*
X156366310Y-92465791D01*
X156404115Y-92498889D01*
X156445458Y-92527218D01*
X156489760Y-92550419D01*
X156537275Y-92568638D01*
X156641733Y-92589547D01*
X156693584Y-92591894D01*
X156753797Y-92588986D01*
X156810273Y-92580353D01*
X156861213Y-92566685D01*
X156908395Y-92547913D01*
X156950677Y-92524801D01*
X156989143Y-92497066D01*
X157053568Y-92428971D01*
X157101921Y-92343434D01*
X157133224Y-92239334D01*
X157143021Y-92166270D01*
X156966617Y-92166270D01*
X156954130Y-92223233D01*
X156936874Y-92273282D01*
X156917017Y-92312861D01*
X156893232Y-92346701D01*
X156867398Y-92373196D01*
X156838141Y-92394652D01*
X156770758Y-92422127D01*
X156697797Y-92430236D01*
X156653575Y-92427332D01*
X156612362Y-92418726D01*
X156575240Y-92405027D01*
X156541177Y-92386226D01*
X156482694Y-92333984D01*
X156436629Y-92261015D01*
X156404543Y-92165047D01*
X156389681Y-92043832D01*
X156389135Y-92013313D01*
X156392037Y-91939788D01*
X156400630Y-91872257D01*
X156413877Y-91813993D01*
X156431938Y-91761558D01*
X156453198Y-91717735D01*
X156478469Y-91679439D01*
X156505937Y-91648480D01*
X156536778Y-91622769D01*
X156569639Y-91603077D01*
X156605452Y-91588547D01*
X156685171Y-91575523D01*
X156693584Y-91575416D01*
X156738730Y-91578324D01*
X156780029Y-91586957D01*
X156815646Y-91600362D01*
X156847563Y-91618707D01*
X156898897Y-91668416D01*
X156935292Y-91736765D01*
X156954069Y-91814286D01*
X157130382Y-91814286D01*
G37*
G36*
X157845438Y-91417087D02*
G01*
X157952569Y-91439235D01*
X158043963Y-91480536D01*
X158084440Y-91508346D01*
X158121256Y-91540797D01*
X158155085Y-91578739D01*
X158184947Y-91621383D01*
X158211718Y-91670621D01*
X158234053Y-91724762D01*
X158252627Y-91786702D01*
X158266153Y-91853826D01*
X158274829Y-91929777D01*
X158277743Y-92011207D01*
X158273929Y-92097854D01*
X158251294Y-92227792D01*
X158210809Y-92336620D01*
X158154622Y-92425588D01*
X158083811Y-92495806D01*
X158042855Y-92524105D01*
X157998365Y-92547654D01*
X157949642Y-92566589D01*
X157897475Y-92580360D01*
X157840460Y-92588987D01*
X157780037Y-92591894D01*
X157716927Y-92588779D01*
X157610200Y-92566899D01*
X157518288Y-92525460D01*
X157477395Y-92497471D01*
X157440133Y-92464816D01*
X157405910Y-92426745D01*
X157375662Y-92384018D01*
X157348650Y-92335032D01*
X157326094Y-92281297D01*
X157307460Y-92220454D01*
X157293880Y-92154730D01*
X157285240Y-92081295D01*
X157282331Y-92002872D01*
X157465055Y-92002872D01*
X157465982Y-92042728D01*
X157482240Y-92163878D01*
X157515644Y-92260163D01*
X157562962Y-92333551D01*
X157622544Y-92386105D01*
X157657025Y-92404980D01*
X157694480Y-92418725D01*
X157735820Y-92427332D01*
X157780037Y-92430236D01*
X157791020Y-92430060D01*
X157872979Y-92416286D01*
X157910042Y-92401322D01*
X157944139Y-92381206D01*
X157975993Y-92355299D01*
X158004410Y-92324300D01*
X158030250Y-92286700D01*
X158052010Y-92243963D01*
X158070220Y-92193993D01*
X158083585Y-92138876D01*
X158092124Y-92076495D01*
X158095019Y-92009100D01*
X158093943Y-91964872D01*
X158077414Y-91841930D01*
X158044125Y-91745165D01*
X157997211Y-91671873D01*
X157938078Y-91619508D01*
X157903688Y-91600665D01*
X157866265Y-91586951D01*
X157824654Y-91578324D01*
X157780037Y-91575416D01*
X157767570Y-91575639D01*
X157685592Y-91589632D01*
X157648749Y-91604605D01*
X157614918Y-91624692D01*
X157583347Y-91650568D01*
X157555220Y-91681548D01*
X157529573Y-91719320D01*
X157507995Y-91762332D01*
X157489838Y-91813056D01*
X157476520Y-91869158D01*
X157467954Y-91933321D01*
X157465055Y-92002872D01*
X157282331Y-92002872D01*
X157286387Y-91911160D01*
X157309235Y-91779168D01*
X157349633Y-91669332D01*
X157405425Y-91580001D01*
X157475601Y-91509735D01*
X157516208Y-91481445D01*
X157560327Y-91457921D01*
X157608758Y-91438984D01*
X157660640Y-91425220D01*
X157717559Y-91416576D01*
X157777930Y-91413667D01*
X157845438Y-91417087D01*
G37*
G36*
X158520184Y-91442976D02*
G01*
X158520184Y-92545000D01*
X158696589Y-92545000D01*
X158696589Y-91853121D01*
X158707764Y-91769543D01*
X158740387Y-91693569D01*
X158764012Y-91660253D01*
X158791764Y-91631181D01*
X158822817Y-91607110D01*
X158856987Y-91588219D01*
X158892531Y-91575365D01*
X158930143Y-91568282D01*
X158954876Y-91566990D01*
X158996006Y-91569895D01*
X159032828Y-91578508D01*
X159063324Y-91591634D01*
X159089801Y-91609516D01*
X159129357Y-91657430D01*
X159152790Y-91723532D01*
X159158574Y-91787358D01*
X159158574Y-92545000D01*
X159334979Y-92545000D01*
X159334979Y-91854494D01*
X159346154Y-91770289D01*
X159378727Y-91693996D01*
X159402291Y-91660604D01*
X159429969Y-91631475D01*
X159460941Y-91607357D01*
X159495024Y-91588417D01*
X159530515Y-91575497D01*
X159568076Y-91568339D01*
X159593357Y-91566990D01*
X159633411Y-91569888D01*
X159669532Y-91578450D01*
X159700061Y-91591663D01*
X159726715Y-91609647D01*
X159767087Y-91658032D01*
X159791119Y-91724223D01*
X159797056Y-91787358D01*
X159797056Y-92545000D01*
X159973368Y-92545000D01*
X159973368Y-91720222D01*
X159970454Y-91667576D01*
X159961779Y-91619582D01*
X159948482Y-91578854D01*
X159930281Y-91542399D01*
X159908304Y-91511541D01*
X159881969Y-91484763D01*
X159817040Y-91443972D01*
X159733143Y-91419706D01*
X159654173Y-91413667D01*
X159592235Y-91416715D01*
X159536660Y-91426329D01*
X159493654Y-91440062D01*
X159453266Y-91459391D01*
X159378307Y-91515165D01*
X159316111Y-91581736D01*
X159288152Y-91537397D01*
X159257149Y-91500270D01*
X159226560Y-91473051D01*
X159192835Y-91451184D01*
X159117031Y-91423319D01*
X159019997Y-91413667D01*
X158964179Y-91415848D01*
X158912841Y-91424254D01*
X158869981Y-91437383D01*
X158829854Y-91456002D01*
X158757525Y-91509211D01*
X158687190Y-91590978D01*
X158681934Y-91598406D01*
X158681934Y-91442976D01*
X158520184Y-91442976D01*
G37*
G36*
X160602416Y-91015062D02*
G01*
X160104710Y-92586032D01*
X160220206Y-92586032D01*
X160717912Y-91015062D01*
X160602416Y-91015062D01*
G37*
D12*
%TO.C,L1*%
X150820000Y-76140000D03*
X148695000Y-76140000D03*
%TD*%
D13*
%TO.C,R3*%
X153740000Y-87230000D03*
X153740000Y-86210000D03*
%TD*%
D14*
%TO.C,D1*%
X146000000Y-76200000D03*
X144425000Y-76200000D03*
%TD*%
D15*
%TO.C,Q1*%
X154625000Y-78750000D03*
X152725000Y-78750000D03*
X153675000Y-80625000D03*
%TD*%
D16*
%TO.C,SW1*%
X146460000Y-86990000D03*
X145190000Y-86990000D03*
X143920000Y-86990000D03*
X146500000Y-80000000D03*
X145230000Y-80000000D03*
X143960000Y-80000000D03*
%TD*%
D17*
%TO.C,BZ1*%
X162500000Y-87000000D03*
X162500000Y-75000000D03*
%TD*%
D18*
%TO.C,D2*%
X166525000Y-88550000D03*
X167225000Y-88550000D03*
%TD*%
D19*
%TO.C,U1*%
X148500000Y-78050000D03*
X148500000Y-79000000D03*
X148500000Y-79950000D03*
X150775000Y-79950000D03*
X150775000Y-78050000D03*
%TD*%
D20*
%TO.C,C5*%
X150600000Y-83500000D03*
X149050000Y-83500000D03*
%TD*%
D21*
%TO.C,C4*%
X150550000Y-81700000D03*
X148650000Y-81700000D03*
%TD*%
D22*
%TO.C,C3*%
X152900000Y-75500000D03*
X154450000Y-75500000D03*
%TD*%
D23*
%TO.C,U2*%
X154253554Y-83053553D03*
D24*
X153900000Y-82700000D03*
D25*
X153546447Y-82346446D03*
D26*
X152768629Y-82346446D03*
D27*
X152415076Y-82700000D03*
D28*
X152061522Y-83053553D03*
D29*
X152061522Y-83831371D03*
D24*
X152415076Y-84184924D03*
D30*
X152768629Y-84538478D03*
D31*
X153546447Y-84538478D03*
D27*
X153900000Y-84184924D03*
D32*
X154253554Y-83831371D03*
D33*
X153157538Y-83442462D03*
%TD*%
D34*
%TO.C,J1*%
X145040000Y-89600000D03*
X146040000Y-89600000D03*
D35*
X143740000Y-93475000D03*
X147340000Y-93475000D03*
%TD*%
D22*
%TO.C,C2*%
X152900000Y-77000000D03*
X154450000Y-77000000D03*
%TD*%
D36*
%TO.C,R2*%
X155190000Y-87020000D03*
X155190000Y-85370000D03*
%TD*%
D37*
%TO.C,D3*%
X148300000Y-87600000D03*
X148300000Y-88300000D03*
%TD*%
D38*
%TO.C,R1*%
X144375000Y-77900000D03*
X146025000Y-77900000D03*
%TD*%
G36*
X152339798Y-86937518D02*
G01*
X152404740Y-86956961D01*
X152405997Y-86957419D01*
X152468898Y-86984552D01*
X152470093Y-86985152D01*
X152529407Y-87019396D01*
X152530524Y-87020131D01*
X152585456Y-87061027D01*
X152586481Y-87061886D01*
X152636311Y-87108898D01*
X152637228Y-87109871D01*
X152681250Y-87162334D01*
X152682049Y-87163407D01*
X152719686Y-87220631D01*
X152720355Y-87221789D01*
X152751098Y-87283005D01*
X152751627Y-87284233D01*
X152775050Y-87348586D01*
X152775434Y-87349867D01*
X152791230Y-87416521D01*
X152791462Y-87417838D01*
X152799415Y-87485864D01*
X152799493Y-87487199D01*
X152799493Y-87555696D01*
X152799415Y-87557031D01*
X152791462Y-87625057D01*
X152791230Y-87626374D01*
X152775434Y-87693028D01*
X152775050Y-87694309D01*
X152751627Y-87758662D01*
X152751098Y-87759890D01*
X152720355Y-87821106D01*
X152719686Y-87822264D01*
X152682049Y-87879488D01*
X152681250Y-87880561D01*
X152637228Y-87933024D01*
X152636311Y-87933997D01*
X152586481Y-87981009D01*
X152585456Y-87981868D01*
X152530524Y-88022764D01*
X152529407Y-88023499D01*
X152470093Y-88057743D01*
X152468898Y-88058343D01*
X152405997Y-88085476D01*
X152404740Y-88085934D01*
X152339798Y-88105377D01*
X152331042Y-88104482D01*
X152325483Y-88097658D01*
X152325000Y-88094360D01*
X152325000Y-86948535D01*
X152328368Y-86940403D01*
X152336500Y-86937035D01*
X152339798Y-86937518D01*
G37*
G36*
X152068958Y-86938413D02*
G01*
X152074517Y-86945237D01*
X152075000Y-86948535D01*
X152075000Y-88094360D01*
X152071632Y-88102492D01*
X152063500Y-88105860D01*
X152060202Y-88105377D01*
X151995259Y-88085934D01*
X151994002Y-88085476D01*
X151931101Y-88058343D01*
X151929906Y-88057743D01*
X151870592Y-88023499D01*
X151869475Y-88022764D01*
X151814543Y-87981868D01*
X151813518Y-87981009D01*
X151763688Y-87933997D01*
X151762771Y-87933024D01*
X151718749Y-87880561D01*
X151717950Y-87879488D01*
X151680313Y-87822264D01*
X151679644Y-87821106D01*
X151648901Y-87759890D01*
X151648372Y-87758662D01*
X151624949Y-87694309D01*
X151624565Y-87693028D01*
X151608769Y-87626374D01*
X151608537Y-87625057D01*
X151600575Y-87556950D01*
X151600498Y-87555782D01*
X151600002Y-87521615D01*
X151600002Y-87521281D01*
X151600498Y-87487113D01*
X151600575Y-87485945D01*
X151608537Y-87417838D01*
X151608769Y-87416521D01*
X151624565Y-87349867D01*
X151624949Y-87348586D01*
X151648372Y-87284233D01*
X151648901Y-87283005D01*
X151679644Y-87221789D01*
X151680313Y-87220631D01*
X151717950Y-87163407D01*
X151718749Y-87162334D01*
X151762771Y-87109871D01*
X151763688Y-87108898D01*
X151813518Y-87061886D01*
X151814543Y-87061027D01*
X151869475Y-87020131D01*
X151870592Y-87019396D01*
X151929906Y-86985152D01*
X151931101Y-86984552D01*
X151994002Y-86957419D01*
X151995259Y-86956961D01*
X152060202Y-86937518D01*
X152068958Y-86938413D01*
G37*
M02*
