%TF.GenerationSoftware,KiCad,Pcbnew,9.0.6*%
%TF.CreationDate,2025-12-27T16:00:58+00:00*%
%TF.ProjectId,AZUltra,415a556c-7472-4612-9e6b-696361645f70,rev?*%
%TF.SameCoordinates,Original*%
%TF.FileFunction,Legend,Top*%
%TF.FilePolarity,Positive*%
%FSLAX46Y46*%
G04 Gerber Fmt 4.6, Leading zero omitted, Abs format (unit mm)*
G04 Created by KiCad (PCBNEW 9.0.6) date 2025-12-27 16:00:58*
%MOMM*%
%LPD*%
G01*
G04 APERTURE LIST*
%ADD10C,0.200000*%
%ADD11C,0.120000*%
%ADD12C,0.100000*%
G04 APERTURE END LIST*
D10*
G36*
X148054663Y-91631435D02*
G01*
X148077895Y-91636190D01*
X148095630Y-91643054D01*
X148110855Y-91652467D01*
X148122873Y-91663635D01*
X148132741Y-91677105D01*
X148146286Y-91711737D01*
X148151302Y-91760923D01*
X148151302Y-91917727D01*
X147906033Y-91917727D01*
X147906033Y-91760923D01*
X147907603Y-91731854D01*
X147912339Y-91706559D01*
X147919132Y-91687433D01*
X147928418Y-91671122D01*
X147939242Y-91658513D01*
X147952242Y-91648240D01*
X147984844Y-91634578D01*
X148028106Y-91629862D01*
X148054663Y-91631435D01*
G37*
G36*
X148035959Y-90868070D02*
G01*
X148058567Y-90872763D01*
X148075792Y-90879548D01*
X148090016Y-90888801D01*
X148098008Y-90896743D01*
X148107558Y-90911022D01*
X148114038Y-90928034D01*
X148119150Y-90972138D01*
X148119306Y-90985208D01*
X148119306Y-91187929D01*
X147906033Y-91187929D01*
X147906033Y-90985208D01*
X147907907Y-90944909D01*
X147914769Y-90917445D01*
X147927380Y-90896743D01*
X147950770Y-90878427D01*
X147984664Y-90868253D01*
X148010422Y-90866506D01*
X148035959Y-90868070D01*
G37*
G36*
X148707010Y-92185717D02*
G01*
X147653528Y-92185717D01*
X147653528Y-91725068D01*
X147766033Y-91725068D01*
X147766033Y-91760923D01*
X147766033Y-92085717D01*
X148582000Y-92085717D01*
X148582000Y-91917727D01*
X148291253Y-91917727D01*
X148291253Y-91708264D01*
X148289706Y-91677563D01*
X148285129Y-91648529D01*
X148277773Y-91621700D01*
X148267674Y-91596648D01*
X148255070Y-91573685D01*
X148239960Y-91552625D01*
X148202584Y-91516547D01*
X148155727Y-91488809D01*
X148099359Y-91470249D01*
X148033505Y-91462117D01*
X148019166Y-91461872D01*
X147983693Y-91463429D01*
X147950744Y-91468072D01*
X147921885Y-91475285D01*
X147895362Y-91485201D01*
X147872158Y-91497214D01*
X147851162Y-91511651D01*
X147832783Y-91528096D01*
X147816574Y-91546805D01*
X147790703Y-91591079D01*
X147773583Y-91645717D01*
X147766201Y-91712445D01*
X147766033Y-91725068D01*
X147653528Y-91725068D01*
X147653528Y-90918041D01*
X147766033Y-90918041D01*
X147766033Y-90985208D01*
X147766033Y-91355920D01*
X148582000Y-91355920D01*
X148582000Y-91187929D01*
X148259306Y-91187929D01*
X148259306Y-90995320D01*
X148260890Y-90968270D01*
X148265728Y-90945536D01*
X148272357Y-90929746D01*
X148281420Y-90916781D01*
X148304697Y-90900028D01*
X148338300Y-90891883D01*
X148355342Y-90891126D01*
X148388803Y-90891126D01*
X148442390Y-90892249D01*
X148505177Y-90890246D01*
X148547093Y-90882479D01*
X148582000Y-90867629D01*
X148582000Y-90687280D01*
X148551811Y-90687280D01*
X148541136Y-90702770D01*
X148528480Y-90713599D01*
X148502308Y-90722133D01*
X148484840Y-90723135D01*
X148378730Y-90726015D01*
X148306031Y-90732064D01*
X148279601Y-90737269D01*
X148258391Y-90744455D01*
X148241358Y-90754018D01*
X148227459Y-90766356D01*
X148206545Y-90797693D01*
X148188769Y-90836269D01*
X148176124Y-90808192D01*
X148161346Y-90783311D01*
X148145594Y-90762962D01*
X148127937Y-90745400D01*
X148109103Y-90731117D01*
X148088462Y-90719421D01*
X148041666Y-90703790D01*
X147986877Y-90698516D01*
X147957513Y-90700059D01*
X147929232Y-90704611D01*
X147902278Y-90712069D01*
X147876985Y-90722309D01*
X147854041Y-90734957D01*
X147833247Y-90750061D01*
X147822062Y-90760114D01*
X147806681Y-90777202D01*
X147793830Y-90796213D01*
X147775595Y-90840087D01*
X147766741Y-90894885D01*
X147766033Y-90918041D01*
X147653528Y-90918041D01*
X147653528Y-90207490D01*
X147753528Y-90207490D01*
X147755076Y-90245457D01*
X147759658Y-90281989D01*
X147767142Y-90316844D01*
X147777451Y-90350112D01*
X147790465Y-90381645D01*
X147806113Y-90411433D01*
X147844999Y-90465497D01*
X147893596Y-90511754D01*
X147951467Y-90549515D01*
X148018171Y-90577938D01*
X148093191Y-90596058D01*
X148133706Y-90600940D01*
X148175884Y-90602846D01*
X148181295Y-90602870D01*
X148222555Y-90601326D01*
X148262410Y-90596767D01*
X148300889Y-90589271D01*
X148337698Y-90578963D01*
X148372739Y-90565945D01*
X148405853Y-90550338D01*
X148436820Y-90532317D01*
X148465619Y-90511949D01*
X148491946Y-90489515D01*
X148515889Y-90464989D01*
X148537119Y-90438761D01*
X148555772Y-90410699D01*
X148571557Y-90381269D01*
X148584592Y-90350257D01*
X148594661Y-90318145D01*
X148601819Y-90284688D01*
X148607010Y-90220923D01*
X148605426Y-90184340D01*
X148600592Y-90150392D01*
X148593268Y-90121610D01*
X148583059Y-90094649D01*
X148570457Y-90070322D01*
X148555029Y-90047363D01*
X148514835Y-90004488D01*
X148475998Y-89974531D01*
X148583514Y-89954357D01*
X148583514Y-89853582D01*
X148144316Y-89853582D01*
X148144316Y-90180623D01*
X148284316Y-90180623D01*
X148284316Y-89994705D01*
X148315094Y-89999360D01*
X148341049Y-90007116D01*
X148377960Y-90028330D01*
X148386166Y-90035005D01*
X148420403Y-90071201D01*
X148446062Y-90116073D01*
X148454923Y-90140915D01*
X148460785Y-90166680D01*
X148463688Y-90201872D01*
X148462145Y-90228642D01*
X148457595Y-90254236D01*
X148439876Y-90301650D01*
X148411075Y-90343609D01*
X148371487Y-90379269D01*
X148321436Y-90407374D01*
X148261568Y-90426363D01*
X148228196Y-90431936D01*
X148193006Y-90434605D01*
X148179048Y-90434831D01*
X148139080Y-90433281D01*
X148101767Y-90428681D01*
X148068543Y-90421468D01*
X148037957Y-90411584D01*
X148011226Y-90399677D01*
X147987084Y-90385442D01*
X147966369Y-90369597D01*
X147948205Y-90351705D01*
X147933014Y-90332330D01*
X147920388Y-90311107D01*
X147903177Y-90263620D01*
X147896907Y-90208664D01*
X147896898Y-90206366D01*
X147898455Y-90176456D01*
X147903102Y-90148320D01*
X147910433Y-90123087D01*
X147920543Y-90099686D01*
X147946187Y-90061872D01*
X147963635Y-90044253D01*
X147983941Y-90030201D01*
X148027910Y-90011509D01*
X148027910Y-89853582D01*
X147995744Y-89858980D01*
X147965265Y-89867242D01*
X147936770Y-89878172D01*
X147910067Y-89891738D01*
X147862363Y-89926367D01*
X147822373Y-89970763D01*
X147790617Y-90024795D01*
X147767956Y-90088387D01*
X147755532Y-90161336D01*
X147753528Y-90207490D01*
X147653528Y-90207490D01*
X147653528Y-89753582D01*
X148707010Y-89753582D01*
X148707010Y-92185717D01*
G37*
G36*
X147496738Y-74349276D02*
G01*
X147494994Y-74380740D01*
X147489818Y-74409023D01*
X147481992Y-74432397D01*
X147471335Y-74452841D01*
X147458742Y-74469373D01*
X147443746Y-74483148D01*
X147407653Y-74501865D01*
X147361904Y-74509242D01*
X147356879Y-74509304D01*
X147333952Y-74507577D01*
X147313766Y-74502527D01*
X147297399Y-74494872D01*
X147283845Y-74484584D01*
X147273688Y-74472445D01*
X147266416Y-74458192D01*
X147261093Y-74427366D01*
X147262905Y-74405997D01*
X147268559Y-74387818D01*
X147276516Y-74374772D01*
X147287606Y-74363556D01*
X147320817Y-74345514D01*
X147361935Y-74334163D01*
X147422385Y-74322788D01*
X147469474Y-74312573D01*
X147496738Y-74301410D01*
X147496738Y-74349276D01*
G37*
G36*
X149163321Y-73856704D02*
G01*
X149182096Y-73861886D01*
X149214373Y-73881674D01*
X149240213Y-73914301D01*
X149246494Y-73926565D01*
X149259127Y-73969615D01*
X149270265Y-74061001D01*
X149274191Y-74184027D01*
X149267672Y-74329512D01*
X149260670Y-74382386D01*
X149251585Y-74418756D01*
X149251550Y-74418848D01*
X149241066Y-74441378D01*
X149228210Y-74460441D01*
X149214112Y-74475058D01*
X149198118Y-74486450D01*
X149180956Y-74494310D01*
X149162191Y-74499003D01*
X149143179Y-74500456D01*
X149122085Y-74498707D01*
X149102726Y-74493498D01*
X149085828Y-74485295D01*
X149070636Y-74474006D01*
X149045317Y-74441920D01*
X149039865Y-74431378D01*
X149026942Y-74387729D01*
X149015804Y-74297067D01*
X149012113Y-74181499D01*
X149018622Y-74030619D01*
X149025568Y-73976669D01*
X149034563Y-73939803D01*
X149034809Y-73939149D01*
X149044468Y-73916811D01*
X149056592Y-73897712D01*
X149070303Y-73882617D01*
X149085956Y-73870688D01*
X149102883Y-73862231D01*
X149121367Y-73856961D01*
X149143179Y-73854959D01*
X149163321Y-73856704D01*
G37*
G36*
X150213174Y-73856704D02*
G01*
X150231949Y-73861886D01*
X150264227Y-73881674D01*
X150290066Y-73914301D01*
X150296348Y-73926565D01*
X150308981Y-73969615D01*
X150320119Y-74061001D01*
X150324045Y-74184027D01*
X150317525Y-74329512D01*
X150310524Y-74382386D01*
X150301439Y-74418756D01*
X150301403Y-74418848D01*
X150290919Y-74441378D01*
X150278063Y-74460441D01*
X150263965Y-74475058D01*
X150247971Y-74486450D01*
X150230810Y-74494310D01*
X150212044Y-74499003D01*
X150193033Y-74500456D01*
X150171938Y-74498707D01*
X150152579Y-74493498D01*
X150135681Y-74485295D01*
X150120489Y-74474006D01*
X150095170Y-74441920D01*
X150089718Y-74431378D01*
X150076796Y-74387729D01*
X150065657Y-74297067D01*
X150061966Y-74181499D01*
X150068475Y-74030619D01*
X150075422Y-73976669D01*
X150084417Y-73939803D01*
X150084662Y-73939149D01*
X150094321Y-73916811D01*
X150106445Y-73897712D01*
X150120157Y-73882617D01*
X150135810Y-73870688D01*
X150152737Y-73862231D01*
X150171221Y-73856961D01*
X150193033Y-73854959D01*
X150213174Y-73856704D01*
G37*
G36*
X152672230Y-74177739D02*
G01*
X152693680Y-74182847D01*
X152712777Y-74190970D01*
X152729898Y-74202048D01*
X152757769Y-74232567D01*
X152776684Y-74274479D01*
X152784915Y-74328189D01*
X152785078Y-74337625D01*
X152783358Y-74365166D01*
X152778352Y-74390917D01*
X152770241Y-74414726D01*
X152759276Y-74436186D01*
X152745865Y-74454823D01*
X152730120Y-74470639D01*
X152712773Y-74483074D01*
X152693640Y-74492346D01*
X152673580Y-74498090D01*
X152652228Y-74500416D01*
X152648956Y-74500456D01*
X152626715Y-74498727D01*
X152605989Y-74493661D01*
X152569736Y-74474263D01*
X152541038Y-74443176D01*
X152521412Y-74400939D01*
X152513029Y-74348420D01*
X152512888Y-74340153D01*
X152514614Y-74311345D01*
X152519659Y-74284619D01*
X152527703Y-74260525D01*
X152538601Y-74238951D01*
X152551772Y-74220598D01*
X152567292Y-74205091D01*
X152584400Y-74192993D01*
X152603389Y-74183981D01*
X152623610Y-74178350D01*
X152645325Y-74176050D01*
X152648956Y-74176004D01*
X152672230Y-74177739D01*
G37*
G36*
X143781310Y-74279648D02*
G01*
X143541928Y-74279648D01*
X143661619Y-73921674D01*
X143781310Y-74279648D01*
G37*
G36*
X155849716Y-74751636D02*
G01*
X143134511Y-74751636D01*
X143134511Y-74623500D01*
X143234511Y-74623500D01*
X143427292Y-74623500D01*
X143489006Y-74437093D01*
X143832968Y-74437093D01*
X143893473Y-74623500D01*
X144087517Y-74623500D01*
X143824469Y-73863037D01*
X144163630Y-73863037D01*
X144633602Y-73863037D01*
X144163630Y-74466054D01*
X144163630Y-74623500D01*
X144854135Y-74623500D01*
X144854135Y-74466054D01*
X144385427Y-74466054D01*
X144493580Y-74326909D01*
X144970748Y-74326909D01*
X144972527Y-74370030D01*
X144977940Y-74409560D01*
X144986042Y-74442340D01*
X144997286Y-74472555D01*
X145010910Y-74498961D01*
X145027503Y-74523365D01*
X145060215Y-74558433D01*
X145113207Y-74597055D01*
X145177475Y-74626491D01*
X145252462Y-74645241D01*
X145334878Y-74651636D01*
X145378600Y-74649890D01*
X145420595Y-74644699D01*
X145459912Y-74636324D01*
X145497116Y-74624768D01*
X145500142Y-74623500D01*
X145868597Y-74623500D01*
X146045002Y-74623500D01*
X146045002Y-73955251D01*
X146151724Y-73955251D01*
X146151724Y-74072469D01*
X146238717Y-74072469D01*
X146238717Y-74491608D01*
X146240478Y-74522624D01*
X146245773Y-74550279D01*
X146253613Y-74572388D01*
X146264364Y-74591766D01*
X146277192Y-74607553D01*
X146292634Y-74620919D01*
X146331533Y-74640454D01*
X146384354Y-74650598D01*
X146411329Y-74651636D01*
X146454822Y-74649714D01*
X146493304Y-74643291D01*
X146513380Y-74637788D01*
X146513380Y-74514305D01*
X146473043Y-74518096D01*
X146448586Y-74516054D01*
X146431801Y-74508794D01*
X146419896Y-74490346D01*
X146415176Y-74453299D01*
X146415066Y-74443633D01*
X146415066Y-74072469D01*
X146513380Y-74072469D01*
X146513380Y-73955251D01*
X146415066Y-73955251D01*
X146415066Y-73944700D01*
X146632906Y-73944700D01*
X146632906Y-74623500D01*
X146809311Y-74623500D01*
X146809311Y-74447480D01*
X147084689Y-74447480D01*
X147086423Y-74477614D01*
X147091533Y-74505864D01*
X147099725Y-74531694D01*
X147110915Y-74555406D01*
X147124785Y-74576615D01*
X147141319Y-74595478D01*
X147160297Y-74611791D01*
X147181658Y-74625503D01*
X147231270Y-74644646D01*
X147289673Y-74651631D01*
X147291373Y-74651636D01*
X147321888Y-74649871D01*
X147351600Y-74644551D01*
X147407576Y-74623702D01*
X147461572Y-74588267D01*
X147498002Y-74554641D01*
X147500295Y-74588227D01*
X147509312Y-74611330D01*
X147518171Y-74623500D01*
X147709688Y-74623500D01*
X147709688Y-74601243D01*
X147688947Y-74578697D01*
X147676235Y-74557311D01*
X147669424Y-74522982D01*
X147669351Y-74518096D01*
X147669351Y-74139844D01*
X147667595Y-74108356D01*
X147662337Y-74079408D01*
X147654245Y-74054596D01*
X147643103Y-74032027D01*
X147629436Y-74012336D01*
X147612938Y-73994754D01*
X147571153Y-73965765D01*
X147515390Y-73944700D01*
X148116902Y-73944700D01*
X148355075Y-74623500D01*
X148540272Y-74623500D01*
X148692454Y-74182763D01*
X148835708Y-74182763D01*
X148837479Y-74259548D01*
X148842843Y-74328164D01*
X148850604Y-74381967D01*
X148861263Y-74429650D01*
X148873254Y-74467091D01*
X148887627Y-74499820D01*
X148898741Y-74519360D01*
X148917211Y-74545939D01*
X148937971Y-74569681D01*
X148960713Y-74590380D01*
X148985461Y-74608172D01*
X149040532Y-74634824D01*
X149102771Y-74649223D01*
X149143179Y-74651636D01*
X149178041Y-74649885D01*
X149211247Y-74644656D01*
X149241870Y-74636280D01*
X149270797Y-74624695D01*
X149273001Y-74623500D01*
X149579739Y-74623500D01*
X149768728Y-74623500D01*
X149768728Y-74439566D01*
X149579739Y-74439566D01*
X149579739Y-74623500D01*
X149273001Y-74623500D01*
X149297583Y-74610173D01*
X149322594Y-74592604D01*
X149367139Y-74548354D01*
X149374978Y-74538265D01*
X149404998Y-74485072D01*
X149428558Y-74413415D01*
X149444473Y-74317765D01*
X149450596Y-74187764D01*
X149450484Y-74182763D01*
X149885562Y-74182763D01*
X149887333Y-74259548D01*
X149892696Y-74328164D01*
X149900457Y-74381967D01*
X149911117Y-74429650D01*
X149923108Y-74467091D01*
X149937481Y-74499820D01*
X149948595Y-74519360D01*
X149967064Y-74545939D01*
X149987825Y-74569681D01*
X150010566Y-74590380D01*
X150035315Y-74608172D01*
X150090385Y-74634824D01*
X150152624Y-74649223D01*
X150193033Y-74651636D01*
X150227895Y-74649885D01*
X150261100Y-74644656D01*
X150291724Y-74636280D01*
X150320650Y-74624695D01*
X150347436Y-74610173D01*
X150372448Y-74592604D01*
X150416992Y-74548354D01*
X150424832Y-74538265D01*
X150454851Y-74485072D01*
X150478412Y-74413415D01*
X150494326Y-74317765D01*
X150500449Y-74187764D01*
X150498678Y-74108804D01*
X150493317Y-74038707D01*
X150485597Y-73984233D01*
X150475006Y-73936098D01*
X150463065Y-73898243D01*
X150459608Y-73890240D01*
X150634648Y-73890240D01*
X150634648Y-74007403D01*
X150848807Y-74007403D01*
X150848807Y-74623500D01*
X151025211Y-74623500D01*
X151636581Y-74623500D01*
X152243940Y-74623500D01*
X152243940Y-74466054D01*
X151864643Y-74466054D01*
X151881408Y-74437581D01*
X151904950Y-74409765D01*
X151969084Y-74355266D01*
X152047367Y-74297564D01*
X152108832Y-74250334D01*
X152157297Y-74207195D01*
X152164119Y-74199854D01*
X152339012Y-74199854D01*
X152340812Y-74275392D01*
X152346277Y-74340153D01*
X152346377Y-74341333D01*
X152354115Y-74389972D01*
X152364813Y-74433307D01*
X152377145Y-74468441D01*
X152392121Y-74500256D01*
X152403309Y-74519360D01*
X152441052Y-74567073D01*
X152489093Y-74605544D01*
X152546081Y-74633282D01*
X152577421Y-74642653D01*
X152610190Y-74648764D01*
X152654012Y-74651636D01*
X152688721Y-74649898D01*
X152721808Y-74644768D01*
X152752995Y-74636423D01*
X152782353Y-74624968D01*
X152809745Y-74610541D01*
X152835088Y-74593253D01*
X152879356Y-74550380D01*
X152914272Y-74496928D01*
X152938688Y-74433457D01*
X152951242Y-74360672D01*
X152952635Y-74325096D01*
X152950901Y-74287928D01*
X152945792Y-74252653D01*
X152937522Y-74219658D01*
X152926208Y-74188852D01*
X152912164Y-74160703D01*
X152895417Y-74135006D01*
X152876384Y-74112217D01*
X152854983Y-74092114D01*
X152831668Y-74075055D01*
X152806299Y-74060901D01*
X152779264Y-74049885D01*
X152750457Y-74042001D01*
X152693084Y-74036144D01*
X152658651Y-74037971D01*
X152627327Y-74043725D01*
X152602301Y-74052107D01*
X152578440Y-74063942D01*
X152532253Y-74098905D01*
X152515416Y-74115554D01*
X152516680Y-74096649D01*
X152521438Y-74013951D01*
X152531613Y-73964523D01*
X152535584Y-73953108D01*
X152546963Y-73927166D01*
X152560634Y-73905194D01*
X152575138Y-73888586D01*
X152591562Y-73875298D01*
X152628414Y-73859115D01*
X152664123Y-73854959D01*
X152689502Y-73856765D01*
X152711252Y-73862372D01*
X152727126Y-73870270D01*
X152741031Y-73881248D01*
X152764080Y-73913164D01*
X152773703Y-73934258D01*
X152937523Y-73934258D01*
X152928926Y-73890240D01*
X153084306Y-73890240D01*
X153084306Y-74007403D01*
X153298465Y-74007403D01*
X153298465Y-74623500D01*
X153474869Y-74623500D01*
X153736288Y-74623500D01*
X154343647Y-74623500D01*
X154436191Y-74623500D01*
X155043549Y-74623500D01*
X155043549Y-74466054D01*
X154664252Y-74466054D01*
X154681017Y-74437581D01*
X154704559Y-74409765D01*
X154728209Y-74389668D01*
X155132356Y-74389668D01*
X155134607Y-74422083D01*
X155140222Y-74452863D01*
X155149013Y-74481730D01*
X155160876Y-74508747D01*
X155193306Y-74556765D01*
X155236803Y-74596206D01*
X155290829Y-74626072D01*
X155354811Y-74645053D01*
X155427188Y-74651636D01*
X155464786Y-74649898D01*
X155500634Y-74644768D01*
X155534376Y-74636439D01*
X155566143Y-74625008D01*
X155595636Y-74610695D01*
X155622932Y-74593559D01*
X155647816Y-74573804D01*
X155670280Y-74551486D01*
X155690188Y-74526746D01*
X155707440Y-74499683D01*
X155721949Y-74470342D01*
X155733549Y-74438905D01*
X155742155Y-74405313D01*
X155747576Y-74369844D01*
X155749716Y-74327953D01*
X155747981Y-74289241D01*
X155742866Y-74252509D01*
X155734598Y-74218205D01*
X155723279Y-74186133D01*
X155709231Y-74156773D01*
X155692465Y-74129868D01*
X155673375Y-74105852D01*
X155651887Y-74084493D01*
X155628401Y-74066113D01*
X155602810Y-74050590D01*
X155575427Y-74038124D01*
X155546204Y-74028727D01*
X155515293Y-74022529D01*
X155482780Y-74019643D01*
X155471261Y-74019438D01*
X155437871Y-74021264D01*
X155406951Y-74027010D01*
X155355395Y-74047860D01*
X155316289Y-74073568D01*
X155345250Y-73887657D01*
X155714436Y-73887657D01*
X155714436Y-73730157D01*
X155236935Y-73730157D01*
X155157525Y-74227277D01*
X155316289Y-74227277D01*
X155325891Y-74209309D01*
X155338080Y-74193973D01*
X155369058Y-74171763D01*
X155409261Y-74160450D01*
X155429661Y-74159243D01*
X155454317Y-74160984D01*
X155476942Y-74166136D01*
X155496716Y-74174222D01*
X155514428Y-74185278D01*
X155543060Y-74215549D01*
X155562913Y-74257395D01*
X155572690Y-74312098D01*
X155573312Y-74331745D01*
X155571575Y-74363024D01*
X155566448Y-74391523D01*
X155558532Y-74415931D01*
X155547769Y-74437534D01*
X155534948Y-74455401D01*
X155519731Y-74470468D01*
X155502720Y-74482323D01*
X155483620Y-74491302D01*
X155439374Y-74500198D01*
X155429661Y-74500456D01*
X155402951Y-74498709D01*
X155379360Y-74493514D01*
X155360497Y-74485769D01*
X155344354Y-74475230D01*
X155331536Y-74462629D01*
X155321270Y-74447582D01*
X155308449Y-74409790D01*
X155306233Y-74389668D01*
X155132356Y-74389668D01*
X154728209Y-74389668D01*
X154768693Y-74355266D01*
X154846977Y-74297564D01*
X154908441Y-74250334D01*
X154956906Y-74207195D01*
X154984536Y-74177462D01*
X155006478Y-74148119D01*
X155021425Y-74122087D01*
X155032655Y-74095291D01*
X155045122Y-74038367D01*
X155047286Y-73995808D01*
X155045546Y-73960546D01*
X155040397Y-73927191D01*
X155032123Y-73896372D01*
X155020767Y-73867589D01*
X155006614Y-73841235D01*
X154989651Y-73817057D01*
X154947807Y-73775697D01*
X154895531Y-73743907D01*
X154832849Y-73722551D01*
X154759800Y-73712949D01*
X154741134Y-73712571D01*
X154701743Y-73714318D01*
X154664893Y-73719510D01*
X154631949Y-73727677D01*
X154601485Y-73738896D01*
X154574425Y-73752598D01*
X154549808Y-73769040D01*
X154528076Y-73787789D01*
X154508812Y-73809069D01*
X154477907Y-73859004D01*
X154457272Y-73919580D01*
X154447941Y-73991895D01*
X154447566Y-74010865D01*
X154447566Y-74042299D01*
X154617651Y-74042299D01*
X154617651Y-74013393D01*
X154619392Y-73981568D01*
X154624544Y-73953009D01*
X154632332Y-73929434D01*
X154642910Y-73908936D01*
X154655306Y-73892590D01*
X154670015Y-73879150D01*
X154686411Y-73868985D01*
X154704847Y-73861722D01*
X154744926Y-73856223D01*
X154768314Y-73857960D01*
X154789618Y-73863086D01*
X154808050Y-73871107D01*
X154824331Y-73882037D01*
X154849789Y-73911791D01*
X154865821Y-73952622D01*
X154870882Y-73999545D01*
X154868749Y-74037846D01*
X154860853Y-74071537D01*
X154851469Y-74092428D01*
X154838008Y-74113267D01*
X154795013Y-74159038D01*
X154709912Y-74226974D01*
X154641611Y-74276186D01*
X154590063Y-74313585D01*
X154547414Y-74349961D01*
X154519870Y-74378427D01*
X154496918Y-74407675D01*
X154479773Y-74435395D01*
X154465850Y-74464721D01*
X154446611Y-74530010D01*
X154436624Y-74614873D01*
X154436191Y-74623500D01*
X154343647Y-74623500D01*
X154343647Y-74466054D01*
X153964350Y-74466054D01*
X153981115Y-74437581D01*
X154004657Y-74409765D01*
X154068790Y-74355266D01*
X154147074Y-74297564D01*
X154208539Y-74250334D01*
X154257003Y-74207195D01*
X154284633Y-74177462D01*
X154306575Y-74148119D01*
X154321522Y-74122087D01*
X154332753Y-74095291D01*
X154345220Y-74038367D01*
X154347384Y-73995808D01*
X154345644Y-73960546D01*
X154340495Y-73927191D01*
X154332221Y-73896372D01*
X154320865Y-73867589D01*
X154306712Y-73841235D01*
X154289748Y-73817057D01*
X154247905Y-73775697D01*
X154195629Y-73743907D01*
X154132946Y-73722551D01*
X154059898Y-73712949D01*
X154041232Y-73712571D01*
X154001840Y-73714318D01*
X153964991Y-73719510D01*
X153932047Y-73727677D01*
X153901583Y-73738896D01*
X153874523Y-73752598D01*
X153849906Y-73769040D01*
X153828174Y-73787789D01*
X153808910Y-73809069D01*
X153778005Y-73859004D01*
X153757370Y-73919580D01*
X153748038Y-73991895D01*
X153747664Y-74010865D01*
X153747664Y-74042299D01*
X153917749Y-74042299D01*
X153917749Y-74013393D01*
X153919489Y-73981568D01*
X153924641Y-73953009D01*
X153932430Y-73929434D01*
X153943008Y-73908936D01*
X153955404Y-73892590D01*
X153970113Y-73879150D01*
X153986508Y-73868985D01*
X154004944Y-73861722D01*
X154045024Y-73856223D01*
X154068412Y-73857960D01*
X154089715Y-73863086D01*
X154108147Y-73871107D01*
X154124428Y-73882037D01*
X154149886Y-73911791D01*
X154165919Y-73952622D01*
X154170980Y-73999545D01*
X154168847Y-74037846D01*
X154160951Y-74071537D01*
X154151566Y-74092428D01*
X154138106Y-74113267D01*
X154095110Y-74159038D01*
X154010010Y-74226974D01*
X153941709Y-74276186D01*
X153890161Y-74313585D01*
X153847511Y-74349961D01*
X153819968Y-74378427D01*
X153797016Y-74407675D01*
X153779871Y-74435395D01*
X153765948Y-74464721D01*
X153746709Y-74530010D01*
X153736721Y-74614873D01*
X153736288Y-74623500D01*
X153474869Y-74623500D01*
X153474869Y-73730212D01*
X153357706Y-73730212D01*
X153348855Y-73757038D01*
X153337012Y-73781438D01*
X153322804Y-73802610D01*
X153305846Y-73821517D01*
X153263874Y-73852409D01*
X153209234Y-73874734D01*
X153138964Y-73887713D01*
X153084306Y-73890240D01*
X152928926Y-73890240D01*
X152928874Y-73889974D01*
X152917601Y-73855660D01*
X152894658Y-73814677D01*
X152857046Y-73774568D01*
X152808354Y-73743090D01*
X152749454Y-73721886D01*
X152681861Y-73712791D01*
X152669124Y-73712571D01*
X152633562Y-73714318D01*
X152599567Y-73719513D01*
X152567854Y-73727895D01*
X152537894Y-73739464D01*
X152510185Y-73753930D01*
X152484416Y-73771368D01*
X152460838Y-73791585D01*
X152439404Y-73814615D01*
X152413365Y-73851222D01*
X152393984Y-73886456D01*
X152377773Y-73923720D01*
X152354990Y-74003670D01*
X152342111Y-74102933D01*
X152339012Y-74199854D01*
X152164119Y-74199854D01*
X152184926Y-74177462D01*
X152206868Y-74148119D01*
X152221815Y-74122087D01*
X152233046Y-74095291D01*
X152245513Y-74038367D01*
X152247677Y-73995808D01*
X152245937Y-73960546D01*
X152240788Y-73927191D01*
X152232514Y-73896372D01*
X152221158Y-73867589D01*
X152207005Y-73841235D01*
X152190041Y-73817057D01*
X152148198Y-73775697D01*
X152095922Y-73743907D01*
X152033239Y-73722551D01*
X151960191Y-73712949D01*
X151941525Y-73712571D01*
X151902134Y-73714318D01*
X151865284Y-73719510D01*
X151832340Y-73727677D01*
X151801876Y-73738896D01*
X151774816Y-73752598D01*
X151750199Y-73769040D01*
X151728467Y-73787789D01*
X151709203Y-73809069D01*
X151678298Y-73859004D01*
X151657663Y-73919580D01*
X151648332Y-73991895D01*
X151647957Y-74010865D01*
X151647957Y-74042299D01*
X151818042Y-74042299D01*
X151818042Y-74013393D01*
X151819783Y-73981568D01*
X151824934Y-73953009D01*
X151832723Y-73929434D01*
X151843301Y-73908936D01*
X151855697Y-73892590D01*
X151870406Y-73879150D01*
X151886801Y-73868985D01*
X151905238Y-73861722D01*
X151945317Y-73856223D01*
X151968705Y-73857960D01*
X151990008Y-73863086D01*
X152008441Y-73871107D01*
X152024721Y-73882037D01*
X152050179Y-73911791D01*
X152066212Y-73952622D01*
X152071273Y-73999545D01*
X152069140Y-74037846D01*
X152061244Y-74071537D01*
X152051859Y-74092428D01*
X152038399Y-74113267D01*
X151995403Y-74159038D01*
X151910303Y-74226974D01*
X151842002Y-74276186D01*
X151790454Y-74313585D01*
X151747805Y-74349961D01*
X151720261Y-74378427D01*
X151697309Y-74407675D01*
X151680164Y-74435395D01*
X151666241Y-74464721D01*
X151647002Y-74530010D01*
X151637014Y-74614873D01*
X151636581Y-74623500D01*
X151025211Y-74623500D01*
X151025211Y-73730212D01*
X150908048Y-73730212D01*
X150899197Y-73757038D01*
X150887354Y-73781438D01*
X150873146Y-73802610D01*
X150856188Y-73821517D01*
X150814216Y-73852409D01*
X150759576Y-73874734D01*
X150689306Y-73887713D01*
X150634648Y-73890240D01*
X150459608Y-73890240D01*
X150448754Y-73865109D01*
X150437471Y-73844902D01*
X150418996Y-73818315D01*
X150398228Y-73794562D01*
X150375481Y-73773853D01*
X150350724Y-73756052D01*
X150295646Y-73729387D01*
X150233415Y-73714984D01*
X150193033Y-73712571D01*
X150159022Y-73714319D01*
X150126369Y-73719517D01*
X150095674Y-73727946D01*
X150066576Y-73739594D01*
X150039496Y-73754223D01*
X150014249Y-73771879D01*
X149991057Y-73792411D01*
X149969948Y-73815823D01*
X149961179Y-73827262D01*
X149931054Y-73879491D01*
X149907809Y-73949263D01*
X149892058Y-74043313D01*
X149885597Y-74171331D01*
X149885566Y-74181499D01*
X149885562Y-74182763D01*
X149450484Y-74182763D01*
X149448825Y-74108804D01*
X149443464Y-74038707D01*
X149435743Y-73984233D01*
X149425152Y-73936098D01*
X149413211Y-73898243D01*
X149398901Y-73865109D01*
X149387618Y-73844902D01*
X149369143Y-73818315D01*
X149348375Y-73794562D01*
X149325627Y-73773853D01*
X149300871Y-73756052D01*
X149245793Y-73729387D01*
X149183561Y-73714984D01*
X149143179Y-73712571D01*
X149109169Y-73714319D01*
X149076516Y-73719517D01*
X149045821Y-73727946D01*
X149016722Y-73739594D01*
X148989643Y-73754223D01*
X148964395Y-73771879D01*
X148941204Y-73792411D01*
X148920095Y-73815823D01*
X148911326Y-73827262D01*
X148881201Y-73879491D01*
X148857956Y-73949263D01*
X148842204Y-74043313D01*
X148835744Y-74171331D01*
X148835712Y-74181499D01*
X148835708Y-74182763D01*
X148692454Y-74182763D01*
X148774654Y-73944700D01*
X148588138Y-73944700D01*
X148450806Y-74441215D01*
X148303418Y-73944700D01*
X148116902Y-73944700D01*
X147515390Y-73944700D01*
X147515382Y-73944697D01*
X147442104Y-73932638D01*
X147390896Y-73930631D01*
X147345074Y-73932391D01*
X147303210Y-73937672D01*
X147268190Y-73945642D01*
X147236493Y-73956599D01*
X147209873Y-73969536D01*
X147186133Y-73985085D01*
X147166046Y-74002471D01*
X147148594Y-74022270D01*
X147121683Y-74068839D01*
X147104759Y-74126853D01*
X147099856Y-74166332D01*
X147269941Y-74166332D01*
X147275398Y-74137673D01*
X147284359Y-74114986D01*
X147293734Y-74101698D01*
X147305779Y-74091212D01*
X147337519Y-74078166D01*
X147394688Y-74073019D01*
X147424853Y-74074777D01*
X147449747Y-74080053D01*
X147466648Y-74087239D01*
X147479798Y-74096927D01*
X147488371Y-74107697D01*
X147493952Y-74120463D01*
X147496738Y-74141108D01*
X147495026Y-74155934D01*
X147490069Y-74169326D01*
X147471176Y-74191008D01*
X147466513Y-74194084D01*
X147434681Y-74206833D01*
X147355615Y-74220572D01*
X147285053Y-74233157D01*
X147246336Y-74241464D01*
X147211832Y-74252664D01*
X147184096Y-74265391D01*
X147159807Y-74280569D01*
X147140200Y-74297003D01*
X147123576Y-74315631D01*
X147099703Y-74358316D01*
X147086863Y-74410695D01*
X147085878Y-74427366D01*
X147084689Y-74447480D01*
X146809311Y-74447480D01*
X146809311Y-74262777D01*
X146811069Y-74230936D01*
X146816345Y-74202736D01*
X146824110Y-74180433D01*
X146834731Y-74161063D01*
X146847284Y-74145555D01*
X146862347Y-74132607D01*
X146899892Y-74114391D01*
X146950455Y-74106095D01*
X146964283Y-74105772D01*
X147019732Y-74110828D01*
X147019732Y-73931895D01*
X146998300Y-73930631D01*
X146973244Y-73932374D01*
X146949073Y-73937536D01*
X146903655Y-73957896D01*
X146862648Y-73991745D01*
X146827279Y-74039533D01*
X146809311Y-74075547D01*
X146809311Y-73944700D01*
X146632906Y-73944700D01*
X146415066Y-73944700D01*
X146415066Y-73772582D01*
X146238717Y-73772582D01*
X146238717Y-73955251D01*
X146151724Y-73955251D01*
X146045002Y-73955251D01*
X146045002Y-73705537D01*
X145868597Y-73705537D01*
X145868597Y-74623500D01*
X145500142Y-74623500D01*
X145531046Y-74610552D01*
X145562566Y-74593458D01*
X145609541Y-74558433D01*
X145631591Y-74536262D01*
X145650374Y-74512210D01*
X145677676Y-74459918D01*
X145693854Y-74397906D01*
X145699007Y-74326909D01*
X145699007Y-73705537D01*
X145510018Y-73705537D01*
X145510018Y-74326909D01*
X145508254Y-74358877D01*
X145502942Y-74387288D01*
X145495127Y-74409783D01*
X145484406Y-74429462D01*
X145471668Y-74445403D01*
X145456327Y-74458898D01*
X145417707Y-74478648D01*
X145365069Y-74489138D01*
X145334878Y-74490399D01*
X145299496Y-74488635D01*
X145268190Y-74483318D01*
X145243724Y-74475568D01*
X145222434Y-74464951D01*
X145205549Y-74452558D01*
X145191340Y-74437670D01*
X145171138Y-74401078D01*
X145160821Y-74352278D01*
X145159737Y-74326909D01*
X145159737Y-73705537D01*
X144970748Y-73705537D01*
X144970748Y-74326909D01*
X144493580Y-74326909D01*
X144854135Y-73863037D01*
X144854135Y-73705537D01*
X144163630Y-73705537D01*
X144163630Y-73863037D01*
X143824469Y-73863037D01*
X143769989Y-73705537D01*
X143560832Y-73705537D01*
X143356745Y-74279648D01*
X143234511Y-74623500D01*
X143134511Y-74623500D01*
X143134511Y-73605537D01*
X155849716Y-73605537D01*
X155849716Y-74751636D01*
G37*
D11*
%TO.C,L1*%
X150157122Y-76700000D02*
X149357878Y-76700000D01*
X150157122Y-75580000D02*
X149357878Y-75580000D01*
%TO.C,R3*%
X153360000Y-86873641D02*
X153360000Y-86566359D01*
X154120000Y-86873641D02*
X154120000Y-86566359D01*
%TO.C,D1*%
X144412500Y-76935000D02*
X146697500Y-76935000D01*
X146697500Y-75465000D02*
X144412500Y-75465000D01*
X146697500Y-76935000D02*
X146697500Y-75465000D01*
%TO.C,Q1*%
X152115000Y-78927500D02*
X152165000Y-78927500D01*
X152115000Y-80447500D02*
X152115000Y-78927500D01*
X153115000Y-80447500D02*
X152115000Y-80447500D01*
X153285000Y-78927500D02*
X154065000Y-78927500D01*
X155185000Y-78927500D02*
X155235000Y-78927500D01*
X155235000Y-78927500D02*
X155235000Y-80447500D01*
X155235000Y-80447500D02*
X154235000Y-80447500D01*
X154055000Y-78387500D02*
X153725000Y-78627500D01*
X153725000Y-78147500D01*
X154055000Y-78387500D01*
G36*
X154055000Y-78387500D02*
G01*
X153725000Y-78627500D01*
X153725000Y-78147500D01*
X154055000Y-78387500D01*
G37*
%TO.C,SW1*%
D12*
X147190000Y-86000000D02*
X143190000Y-86000000D01*
X143190000Y-81000000D01*
X147190000Y-81000000D01*
X147190000Y-86000000D01*
D10*
%TO.C,BZ1*%
X156250000Y-74750000D02*
X159750000Y-74750000D01*
X156250000Y-87250000D02*
X156250000Y-74750000D01*
X156250000Y-87250000D02*
X159750000Y-87250000D01*
X168750000Y-74750000D02*
X165250000Y-74750000D01*
X168750000Y-74750000D02*
X168750000Y-87250000D01*
X168750000Y-87250000D02*
X165250000Y-87250000D01*
D11*
%TO.C,D2*%
X166075000Y-87950000D02*
X166075000Y-87975000D01*
X166075000Y-87975000D02*
X166075000Y-89150000D01*
X166075000Y-89150000D02*
X167375000Y-89150000D01*
X166175000Y-87950000D02*
X166075000Y-87950000D01*
X167375000Y-87950000D02*
X166175000Y-87950000D01*
X167675000Y-89150000D02*
X167675000Y-87950000D01*
%TO.C,U1*%
X148727500Y-77440000D02*
X150547500Y-77440000D01*
X148727500Y-77490000D02*
X148727500Y-77440000D01*
X148727500Y-80560000D02*
X148727500Y-80510000D01*
X150547500Y-77440000D02*
X150547500Y-77490000D01*
X150547500Y-78610000D02*
X150547500Y-79390000D01*
X150547500Y-80510000D02*
X150547500Y-80560000D01*
X150547500Y-80560000D02*
X148727500Y-80560000D01*
X148187500Y-77490000D02*
X147947500Y-77160000D01*
X148427500Y-77160000D01*
X148187500Y-77490000D01*
G36*
X148187500Y-77490000D02*
G01*
X147947500Y-77160000D01*
X148427500Y-77160000D01*
X148187500Y-77490000D01*
G37*
%TO.C,C5*%
X149965580Y-82990000D02*
X149684420Y-82990000D01*
X149965580Y-84010000D02*
X149684420Y-84010000D01*
%TO.C,C4*%
X149861252Y-80965000D02*
X149338748Y-80965000D01*
X149861252Y-82435000D02*
X149338748Y-82435000D01*
%TO.C,C3*%
X153534420Y-74990000D02*
X153815580Y-74990000D01*
X153534420Y-76010000D02*
X153815580Y-76010000D01*
%TO.C,U2*%
X151587761Y-83442462D02*
X151764538Y-83265685D01*
X151764538Y-83619239D02*
X151587761Y-83442462D01*
X152980761Y-82049462D02*
X153157538Y-81872685D01*
X153157538Y-81872685D02*
X153334315Y-82049462D01*
X153157538Y-85012239D02*
X152980761Y-84835462D01*
X153334315Y-84835462D02*
X153157538Y-85012239D01*
X154565683Y-83604094D02*
X154550538Y-83619239D01*
X154889950Y-83194975D02*
X154691960Y-83392965D01*
X154656604Y-83159619D01*
X154889950Y-83194975D01*
G36*
X154889950Y-83194975D02*
G01*
X154691960Y-83392965D01*
X154656604Y-83159619D01*
X154889950Y-83194975D01*
G37*
%TO.C,J1*%
X143430000Y-89815000D02*
X144480000Y-89815000D01*
X143430000Y-92315000D02*
X143430000Y-89815000D01*
X144480000Y-89815000D02*
X144480000Y-88825000D01*
X144600000Y-94285000D02*
X146480000Y-94285000D01*
X147650000Y-89815000D02*
X146600000Y-89815000D01*
X147650000Y-92315000D02*
X147650000Y-89815000D01*
%TO.C,C2*%
X153534420Y-76490000D02*
X153815580Y-76490000D01*
X153534420Y-77510000D02*
X153815580Y-77510000D01*
%TO.C,R2*%
X154667500Y-86432258D02*
X154667500Y-85957742D01*
X155712500Y-86432258D02*
X155712500Y-85957742D01*
%TO.C,D3*%
X147700000Y-87150000D02*
X147700000Y-88450000D01*
X147700000Y-88750000D02*
X148900000Y-88750000D01*
X148875000Y-87150000D02*
X147700000Y-87150000D01*
X148900000Y-87150000D02*
X148875000Y-87150000D01*
X148900000Y-87250000D02*
X148900000Y-87150000D01*
X148900000Y-88450000D02*
X148900000Y-87250000D01*
%TO.C,R1*%
X144962742Y-77377500D02*
X145437258Y-77377500D01*
X144962742Y-78422500D02*
X145437258Y-78422500D01*
%TD*%
M02*
