%TF.GenerationSoftware,KiCad,Pcbnew,9.0.6*%
%TF.CreationDate,2025-12-27T16:00:58+00:00*%
%TF.ProjectId,AZUltra,415a556c-7472-4612-9e6b-696361645f70,rev?*%
%TF.SameCoordinates,Original*%
%TF.FileFunction,Copper,L4,Bot*%
%TF.FilePolarity,Positive*%
%FSLAX46Y46*%
G04 Gerber Fmt 4.6, Leading zero omitted, Abs format (unit mm)*
G04 Created by KiCad (PCBNEW 9.0.6) date 2025-12-27 16:00:58*
%MOMM*%
%LPD*%
G01*
G04 APERTURE LIST*
%TA.AperFunction,Conductor*%
%ADD10C,0.800000*%
%TD*%
%TA.AperFunction,SMDPad,CuDef*%
%ADD11R,1.270000X5.080000*%
%TD*%
%TA.AperFunction,SMDPad,CuDef*%
%ADD12C,1.000000*%
%TD*%
%TA.AperFunction,ViaPad*%
%ADD13C,0.600000*%
%TD*%
%TA.AperFunction,Conductor*%
%ADD14C,0.200000*%
%TD*%
G04 APERTURE END LIST*
%TO.N,+5V*%
D10*
X167975000Y-74825000D02*
G75*
G02*
X167175000Y-74825000I-400000J0D01*
G01*
X167175000Y-74825000D02*
G75*
G02*
X167975000Y-74825000I400000J0D01*
G01*
%TD*%
D11*
%TO.P,BT1,1,+*%
%TO.N,+BATT1*%
X166750000Y-83850000D03*
X144780000Y-83850000D03*
D12*
%TO.P,BT1,2,-*%
%TO.N,GND*%
X155765000Y-83850000D03*
%TD*%
D13*
%TO.N,+BATT1*%
X167925000Y-84850000D03*
X167925000Y-83850000D03*
X167925000Y-82850000D03*
X154800000Y-81000000D03*
X167925000Y-85850000D03*
X167925000Y-81850000D03*
%TO.N,GND*%
X160500000Y-77950000D03*
X155525000Y-76950000D03*
X146500000Y-78975000D03*
X158500000Y-80000000D03*
X146790000Y-89320000D03*
X149630000Y-79360000D03*
X149575000Y-87400000D03*
X144470000Y-88220000D03*
X156800000Y-88150000D03*
X155400000Y-78450000D03*
X156800000Y-86050000D03*
X151150000Y-88075000D03*
X149700000Y-89050000D03*
X158850000Y-86100000D03*
X145225000Y-78975000D03*
X159200000Y-76900000D03*
X157200000Y-78750000D03*
X147700000Y-81750000D03*
X153700000Y-79350000D03*
X158850000Y-88150000D03*
X143925000Y-78975000D03*
X147000000Y-76000000D03*
X155575000Y-83025000D03*
X147950000Y-83400000D03*
X151650000Y-79000000D03*
X155517203Y-75474635D03*
X149740000Y-77140000D03*
X153157538Y-83442462D03*
%TO.N,+5V*%
X166050000Y-74850000D03*
X153730000Y-88060000D03*
X151450000Y-81850000D03*
%TO.N,Net-(U2-PD0)*%
X152500000Y-81000000D03*
X147000000Y-77960000D03*
%TD*%
D14*
%TO.N,+BATT1*%
X167600000Y-81525000D02*
X167925000Y-81850000D01*
%TO.N,+5V*%
X166050000Y-74850000D02*
X167550000Y-74850000D01*
%TD*%
%TA.AperFunction,Conductor*%
%TO.N,+BATT1*%
G36*
X167385648Y-81316057D02*
G01*
X167853417Y-81497129D01*
X167987065Y-81548864D01*
X167991947Y-81552472D01*
X168119740Y-81714670D01*
X168247533Y-81876869D01*
X168250000Y-81883985D01*
X168250000Y-85865002D01*
X168246632Y-85873134D01*
X168246347Y-85873409D01*
X167951523Y-86148578D01*
X167948073Y-86150797D01*
X167385897Y-86383421D01*
X167377095Y-86383418D01*
X167370874Y-86377192D01*
X167370000Y-86372795D01*
X167370000Y-81326783D01*
X167373368Y-81318651D01*
X167381500Y-81315283D01*
X167385648Y-81316057D01*
G37*
%TD.AperFunction*%
%TD*%
%TA.AperFunction,Conductor*%
%TO.N,GND*%
G36*
X168490898Y-73454111D02*
G01*
X168551232Y-73454109D01*
X168562310Y-73454730D01*
X168656857Y-73465382D01*
X168678467Y-73470314D01*
X168762990Y-73499889D01*
X168782962Y-73509507D01*
X168858778Y-73557144D01*
X168876111Y-73570966D01*
X168939428Y-73634282D01*
X168953250Y-73651615D01*
X169000890Y-73727433D01*
X169010510Y-73747408D01*
X169040083Y-73831927D01*
X169045016Y-73853539D01*
X169055657Y-73947984D01*
X169056279Y-73959068D01*
X169056279Y-74027469D01*
X169056280Y-74027482D01*
X169056280Y-93948047D01*
X169055657Y-93959133D01*
X169045005Y-94053663D01*
X169040072Y-94075276D01*
X169010496Y-94159794D01*
X169000877Y-94179767D01*
X168953239Y-94255580D01*
X168939418Y-94272912D01*
X168907760Y-94304570D01*
X168876099Y-94336230D01*
X168858774Y-94350045D01*
X168782955Y-94397685D01*
X168762981Y-94407303D01*
X168678466Y-94436874D01*
X168656853Y-94441807D01*
X168562058Y-94452486D01*
X168550974Y-94453108D01*
X168497565Y-94453107D01*
X168490898Y-94453107D01*
X168490897Y-94453107D01*
X168484015Y-94453107D01*
X168483987Y-94453109D01*
X143562347Y-94453109D01*
X143551261Y-94452486D01*
X143456726Y-94441833D01*
X143435115Y-94436900D01*
X143390235Y-94421195D01*
X143350592Y-94407323D01*
X143330621Y-94397704D01*
X143254803Y-94350064D01*
X143237469Y-94336241D01*
X143174154Y-94272924D01*
X143160333Y-94255593D01*
X143112691Y-94179771D01*
X143103073Y-94159798D01*
X143073499Y-94075282D01*
X143068566Y-94053669D01*
X143057903Y-93959034D01*
X143057280Y-93947949D01*
X143057280Y-87994108D01*
X153229500Y-87994108D01*
X153229500Y-88125892D01*
X153259579Y-88238151D01*
X153263609Y-88253190D01*
X153329496Y-88367309D01*
X153329498Y-88367311D01*
X153329500Y-88367314D01*
X153422686Y-88460500D01*
X153422688Y-88460501D01*
X153422690Y-88460503D01*
X153536810Y-88526390D01*
X153536808Y-88526390D01*
X153536812Y-88526391D01*
X153536814Y-88526392D01*
X153664108Y-88560500D01*
X153664110Y-88560500D01*
X153795890Y-88560500D01*
X153795892Y-88560500D01*
X153923186Y-88526392D01*
X153923188Y-88526390D01*
X153923190Y-88526390D01*
X154037309Y-88460503D01*
X154037309Y-88460502D01*
X154037314Y-88460500D01*
X154130500Y-88367314D01*
X154196392Y-88253186D01*
X154230500Y-88125892D01*
X154230500Y-87994108D01*
X154196392Y-87866814D01*
X154196390Y-87866811D01*
X154196390Y-87866809D01*
X154130503Y-87752690D01*
X154130501Y-87752688D01*
X154130500Y-87752686D01*
X154037314Y-87659500D01*
X154037311Y-87659498D01*
X154037309Y-87659496D01*
X153923189Y-87593609D01*
X153923191Y-87593609D01*
X153873799Y-87580375D01*
X153795892Y-87559500D01*
X153664108Y-87559500D01*
X153586200Y-87580375D01*
X153536809Y-87593609D01*
X153422690Y-87659496D01*
X153329496Y-87752690D01*
X153263609Y-87866809D01*
X153263608Y-87866814D01*
X153229500Y-87994108D01*
X143057280Y-87994108D01*
X143057280Y-81290253D01*
X143944500Y-81290253D01*
X143944500Y-86409746D01*
X143944501Y-86409758D01*
X143956132Y-86468227D01*
X143956133Y-86468231D01*
X144000448Y-86534552D01*
X144066769Y-86578867D01*
X144111231Y-86587711D01*
X144125241Y-86590498D01*
X144125246Y-86590498D01*
X144125252Y-86590500D01*
X144125253Y-86590500D01*
X145434747Y-86590500D01*
X145434748Y-86590500D01*
X145493231Y-86578867D01*
X145559552Y-86534552D01*
X145603867Y-86468231D01*
X145615500Y-86409748D01*
X145615500Y-81784108D01*
X150949500Y-81784108D01*
X150949500Y-81915892D01*
X150979579Y-82028151D01*
X150983609Y-82043190D01*
X151049496Y-82157309D01*
X151049498Y-82157311D01*
X151049500Y-82157314D01*
X151142686Y-82250500D01*
X151142688Y-82250501D01*
X151142690Y-82250503D01*
X151256810Y-82316390D01*
X151256808Y-82316390D01*
X151256812Y-82316391D01*
X151256814Y-82316392D01*
X151384108Y-82350500D01*
X151384110Y-82350500D01*
X151515890Y-82350500D01*
X151515892Y-82350500D01*
X151643186Y-82316392D01*
X151643188Y-82316390D01*
X151643190Y-82316390D01*
X151757309Y-82250503D01*
X151757309Y-82250502D01*
X151757314Y-82250500D01*
X151850500Y-82157314D01*
X151916392Y-82043186D01*
X151950500Y-81915892D01*
X151950500Y-81784108D01*
X151916392Y-81656814D01*
X151916390Y-81656811D01*
X151916390Y-81656809D01*
X151850503Y-81542690D01*
X151850501Y-81542688D01*
X151850500Y-81542686D01*
X151757314Y-81449500D01*
X151757311Y-81449498D01*
X151757309Y-81449496D01*
X151643189Y-81383609D01*
X151643191Y-81383609D01*
X151593799Y-81370375D01*
X151515892Y-81349500D01*
X151384108Y-81349500D01*
X151306200Y-81370375D01*
X151256809Y-81383609D01*
X151142690Y-81449496D01*
X151049496Y-81542690D01*
X150983609Y-81656809D01*
X150983608Y-81656814D01*
X150949500Y-81784108D01*
X145615500Y-81784108D01*
X145615500Y-81290252D01*
X145603867Y-81231769D01*
X145559552Y-81165448D01*
X145515484Y-81136002D01*
X145493233Y-81121134D01*
X145493231Y-81121133D01*
X145493228Y-81121132D01*
X145493227Y-81121132D01*
X145434758Y-81109501D01*
X145434748Y-81109500D01*
X144125252Y-81109500D01*
X144125251Y-81109500D01*
X144125241Y-81109501D01*
X144066772Y-81121132D01*
X144066766Y-81121134D01*
X144000451Y-81165445D01*
X144000445Y-81165451D01*
X143956134Y-81231766D01*
X143956132Y-81231772D01*
X143944501Y-81290241D01*
X143944500Y-81290253D01*
X143057280Y-81290253D01*
X143057280Y-80934108D01*
X151999500Y-80934108D01*
X151999500Y-81065892D01*
X152029579Y-81178151D01*
X152033609Y-81193190D01*
X152099496Y-81307309D01*
X152099498Y-81307311D01*
X152099500Y-81307314D01*
X152192686Y-81400500D01*
X152192688Y-81400501D01*
X152192690Y-81400503D01*
X152306810Y-81466390D01*
X152306808Y-81466390D01*
X152306812Y-81466391D01*
X152306814Y-81466392D01*
X152434108Y-81500500D01*
X152434110Y-81500500D01*
X152565890Y-81500500D01*
X152565892Y-81500500D01*
X152693186Y-81466392D01*
X152693188Y-81466390D01*
X152693190Y-81466390D01*
X152807309Y-81400503D01*
X152807309Y-81400502D01*
X152807314Y-81400500D01*
X152900500Y-81307314D01*
X152941738Y-81235888D01*
X152966390Y-81193190D01*
X152966391Y-81193187D01*
X152966392Y-81193186D01*
X153000500Y-81065892D01*
X153000500Y-80934108D01*
X154299500Y-80934108D01*
X154299500Y-81065892D01*
X154329579Y-81178151D01*
X154333609Y-81193190D01*
X154399496Y-81307309D01*
X154399498Y-81307311D01*
X154399500Y-81307314D01*
X154492686Y-81400500D01*
X154492688Y-81400501D01*
X154492690Y-81400503D01*
X154606810Y-81466390D01*
X154606808Y-81466390D01*
X154606812Y-81466391D01*
X154606814Y-81466392D01*
X154734108Y-81500500D01*
X154734110Y-81500500D01*
X154865890Y-81500500D01*
X154865892Y-81500500D01*
X154993186Y-81466392D01*
X154993188Y-81466390D01*
X154993190Y-81466390D01*
X155107309Y-81400503D01*
X155107309Y-81400502D01*
X155107314Y-81400500D01*
X155200500Y-81307314D01*
X155210350Y-81290253D01*
X165914500Y-81290253D01*
X165914500Y-86409746D01*
X165914501Y-86409758D01*
X165926132Y-86468227D01*
X165926133Y-86468231D01*
X165970448Y-86534552D01*
X166036769Y-86578867D01*
X166081231Y-86587711D01*
X166095241Y-86590498D01*
X166095246Y-86590498D01*
X166095252Y-86590500D01*
X166095253Y-86590500D01*
X167404747Y-86590500D01*
X167404748Y-86590500D01*
X167463231Y-86578867D01*
X167474946Y-86571038D01*
X167492097Y-86561874D01*
X168019052Y-86343824D01*
X168031271Y-86339679D01*
X168070815Y-86329084D01*
X168118180Y-86316394D01*
X168118182Y-86316393D01*
X168118181Y-86316393D01*
X168118186Y-86316392D01*
X168232314Y-86250500D01*
X168325500Y-86157314D01*
X168391392Y-86043186D01*
X168398178Y-86017857D01*
X168411979Y-85987755D01*
X168436492Y-85951768D01*
X168439860Y-85943636D01*
X168455500Y-85865002D01*
X168455500Y-81883985D01*
X168444163Y-81816672D01*
X168441696Y-81809556D01*
X168429011Y-81786364D01*
X168420241Y-81764482D01*
X168391392Y-81656814D01*
X168391390Y-81656811D01*
X168391390Y-81656809D01*
X168325503Y-81542690D01*
X168325501Y-81542688D01*
X168325500Y-81542686D01*
X168232314Y-81449500D01*
X168232311Y-81449498D01*
X168232309Y-81449496D01*
X168118189Y-81383609D01*
X168118180Y-81383605D01*
X168112283Y-81382025D01*
X168090196Y-81373143D01*
X168061251Y-81357221D01*
X168061242Y-81357217D01*
X167489769Y-81136002D01*
X167470506Y-81125994D01*
X167463232Y-81121133D01*
X167404748Y-81109500D01*
X166095252Y-81109500D01*
X166095251Y-81109500D01*
X166095241Y-81109501D01*
X166036772Y-81121132D01*
X166036766Y-81121134D01*
X165970451Y-81165445D01*
X165970445Y-81165451D01*
X165926134Y-81231766D01*
X165926132Y-81231772D01*
X165914501Y-81290241D01*
X165914500Y-81290253D01*
X155210350Y-81290253D01*
X155266392Y-81193186D01*
X155300500Y-81065892D01*
X155300500Y-80934108D01*
X155266392Y-80806814D01*
X155266390Y-80806811D01*
X155266390Y-80806809D01*
X155200503Y-80692690D01*
X155200501Y-80692688D01*
X155200500Y-80692686D01*
X155107314Y-80599500D01*
X155107311Y-80599498D01*
X155107309Y-80599496D01*
X154993189Y-80533609D01*
X154993191Y-80533609D01*
X154943799Y-80520375D01*
X154865892Y-80499500D01*
X154734108Y-80499500D01*
X154656200Y-80520375D01*
X154606809Y-80533609D01*
X154492690Y-80599496D01*
X154399496Y-80692690D01*
X154333609Y-80806809D01*
X154333608Y-80806814D01*
X154299500Y-80934108D01*
X153000500Y-80934108D01*
X152966392Y-80806814D01*
X152966390Y-80806811D01*
X152966390Y-80806809D01*
X152900503Y-80692690D01*
X152900501Y-80692688D01*
X152900500Y-80692686D01*
X152807314Y-80599500D01*
X152807311Y-80599498D01*
X152807309Y-80599496D01*
X152693189Y-80533609D01*
X152693191Y-80533609D01*
X152643799Y-80520375D01*
X152565892Y-80499500D01*
X152434108Y-80499500D01*
X152356200Y-80520375D01*
X152306809Y-80533609D01*
X152192690Y-80599496D01*
X152099496Y-80692690D01*
X152033609Y-80806809D01*
X152033608Y-80806814D01*
X151999500Y-80934108D01*
X143057280Y-80934108D01*
X143057280Y-77894108D01*
X146499500Y-77894108D01*
X146499500Y-78025892D01*
X146529579Y-78138151D01*
X146533609Y-78153190D01*
X146599496Y-78267309D01*
X146599498Y-78267311D01*
X146599500Y-78267314D01*
X146692686Y-78360500D01*
X146692688Y-78360501D01*
X146692690Y-78360503D01*
X146806810Y-78426390D01*
X146806808Y-78426390D01*
X146806812Y-78426391D01*
X146806814Y-78426392D01*
X146934108Y-78460500D01*
X146934110Y-78460500D01*
X147065890Y-78460500D01*
X147065892Y-78460500D01*
X147193186Y-78426392D01*
X147193188Y-78426390D01*
X147193190Y-78426390D01*
X147307309Y-78360503D01*
X147307309Y-78360502D01*
X147307314Y-78360500D01*
X147400500Y-78267314D01*
X147466392Y-78153186D01*
X147500500Y-78025892D01*
X147500500Y-77894108D01*
X147466392Y-77766814D01*
X147466390Y-77766811D01*
X147466390Y-77766809D01*
X147400503Y-77652690D01*
X147400501Y-77652688D01*
X147400500Y-77652686D01*
X147307314Y-77559500D01*
X147307311Y-77559498D01*
X147307309Y-77559496D01*
X147193189Y-77493609D01*
X147193191Y-77493609D01*
X147143799Y-77480375D01*
X147065892Y-77459500D01*
X146934108Y-77459500D01*
X146856200Y-77480375D01*
X146806809Y-77493609D01*
X146692690Y-77559496D01*
X146599496Y-77652690D01*
X146533609Y-77766809D01*
X146533608Y-77766814D01*
X146499500Y-77894108D01*
X143057280Y-77894108D01*
X143057280Y-74784108D01*
X165549500Y-74784108D01*
X165549500Y-74915892D01*
X165579579Y-75028151D01*
X165583609Y-75043190D01*
X165649496Y-75157309D01*
X165649498Y-75157311D01*
X165649500Y-75157314D01*
X165742686Y-75250500D01*
X165742688Y-75250501D01*
X165742690Y-75250503D01*
X165856810Y-75316390D01*
X165856808Y-75316390D01*
X165856812Y-75316391D01*
X165856814Y-75316392D01*
X165984108Y-75350500D01*
X165984110Y-75350500D01*
X166115890Y-75350500D01*
X166115892Y-75350500D01*
X166243186Y-75316392D01*
X166243188Y-75316390D01*
X166243190Y-75316390D01*
X166357309Y-75250503D01*
X166357309Y-75250502D01*
X166357314Y-75250500D01*
X166428319Y-75179494D01*
X166435434Y-75175869D01*
X166440130Y-75169407D01*
X166462178Y-75162243D01*
X166482834Y-75151719D01*
X166498321Y-75150500D01*
X166560743Y-75150500D01*
X166618934Y-75169407D01*
X166652207Y-75211614D01*
X166688367Y-75298912D01*
X166688371Y-75298921D01*
X166766668Y-75416099D01*
X166797861Y-75462782D01*
X166937218Y-75602139D01*
X167101086Y-75711632D01*
X167283165Y-75787051D01*
X167476459Y-75825500D01*
X167476460Y-75825500D01*
X167673540Y-75825500D01*
X167673541Y-75825500D01*
X167866835Y-75787051D01*
X168048914Y-75711632D01*
X168212782Y-75602139D01*
X168352139Y-75462782D01*
X168461632Y-75298914D01*
X168537051Y-75116835D01*
X168575500Y-74923541D01*
X168575500Y-74726459D01*
X168537051Y-74533165D01*
X168461632Y-74351086D01*
X168352139Y-74187218D01*
X168212782Y-74047861D01*
X168079894Y-73959068D01*
X168048913Y-73938367D01*
X167866835Y-73862949D01*
X167673543Y-73824500D01*
X167673541Y-73824500D01*
X167476459Y-73824500D01*
X167476456Y-73824500D01*
X167283165Y-73862949D01*
X167283163Y-73862949D01*
X167101086Y-73938367D01*
X166937218Y-74047861D01*
X166937214Y-74047864D01*
X166797864Y-74187214D01*
X166797861Y-74187218D01*
X166688367Y-74351087D01*
X166631497Y-74488385D01*
X166614036Y-74508829D01*
X166598224Y-74530593D01*
X166594382Y-74531841D01*
X166591761Y-74534911D01*
X166540033Y-74549500D01*
X166498321Y-74549500D01*
X166440130Y-74530593D01*
X166428323Y-74520509D01*
X166357314Y-74449500D01*
X166357311Y-74449498D01*
X166357309Y-74449496D01*
X166243189Y-74383609D01*
X166243191Y-74383609D01*
X166193799Y-74370375D01*
X166115892Y-74349500D01*
X165984108Y-74349500D01*
X165906200Y-74370375D01*
X165856809Y-74383609D01*
X165742690Y-74449496D01*
X165649496Y-74542690D01*
X165583609Y-74656809D01*
X165583608Y-74656814D01*
X165549500Y-74784108D01*
X143057280Y-74784108D01*
X143057280Y-74019500D01*
X143057281Y-74019497D01*
X143057280Y-73959163D01*
X143057902Y-73948083D01*
X143057913Y-73947984D01*
X143068554Y-73853529D01*
X143073485Y-73831926D01*
X143103063Y-73747394D01*
X143112677Y-73727430D01*
X143160322Y-73651602D01*
X143174138Y-73634276D01*
X143237461Y-73570950D01*
X143254787Y-73557132D01*
X143330622Y-73509481D01*
X143350577Y-73499871D01*
X143435116Y-73470287D01*
X143456718Y-73465357D01*
X143551005Y-73454732D01*
X143562091Y-73454109D01*
X168490891Y-73454109D01*
X168490898Y-73454111D01*
G37*
%TD.AperFunction*%
%TD*%
M02*
